{"glyphs":{"0":{"ha":1007,"x_min":69,"x_max":946,"o":"m 508 -19 q 276 33 375 -19 q 123 183 176 86 q 69 408 69 279 l 69 561 q 123 787 69 690 q 276 936 176 883 q 508 989 375 989 q 740 936 640 989 q 892 787 839 883 q 946 561 946 690 l 946 408 q 892 183 946 279 q 740 33 839 86 q 508 -19 640 -19 m 508 183 q 660 244 604 183 q 717 408 717 306 l 717 561 q 661 726 717 665 q 508 786 606 786 q 356 726 411 786 q 300 561 300 665 l 300 408 q 356 244 300 304 q 508 183 411 183 z "},"1":{"ha":640,"x_min":60,"x_max":607,"o":"m 454 186 l 607 186 l 607 0 l 60 0 l 60 186 l 231 186 l 231 713 l 76 667 l 76 858 l 432 983 l 454 983 l 454 186 z "},"2":{"ha":951,"x_min":69,"x_max":879,"o":"m 296 194 l 875 194 l 875 0 l 69 0 l 69 232 q 174 473 69 390 q 475 556 279 556 q 602 590 554 556 q 650 679 650 625 q 606 763 650 732 q 486 793 563 793 q 359 763 404 793 q 310 674 314 732 l 82 674 q 192 902 85 819 q 486 985 300 985 q 694 948 606 985 q 831 842 783 911 q 879 682 879 774 q 479 369 879 369 q 344 335 392 369 q 296 238 296 301 l 296 194 z "},"3":{"ha":940,"x_min":58,"x_max":878,"o":"m 722 497 q 838 413 799 469 q 878 279 878 357 q 826 124 878 192 q 681 20 774 57 q 465 -17 588 -17 q 251 24 343 -17 q 109 137 160 64 q 58 306 58 210 l 286 306 q 338 214 286 249 q 474 179 389 179 q 599 211 551 179 q 646 297 646 243 q 603 381 646 351 q 481 410 560 410 l 306 410 l 306 583 l 465 583 q 589 610 546 583 q 632 685 632 636 q 588 763 632 733 q 467 793 543 793 q 342 762 389 793 q 296 679 296 731 l 74 679 q 123 842 74 772 q 260 949 172 911 q 467 988 349 988 q 668 951 581 988 q 805 848 756 914 q 854 697 854 782 q 818 575 854 629 q 722 497 782 521 z "},"4":{"ha":947,"x_min":28,"x_max":888,"o":"m 888 367 l 888 175 l 781 175 l 781 0 l 560 0 l 560 175 l 46 175 l 28 375 l 550 972 l 781 972 l 781 367 l 888 367 m 561 700 l 269 364 l 561 364 l 561 700 z "},"5":{"ha":918,"x_min":68,"x_max":865,"o":"m 467 631 q 765 549 664 631 q 865 308 865 467 q 816 139 865 213 q 677 25 767 65 q 471 -15 588 -15 q 172 68 276 -15 q 68 307 68 151 l 299 307 q 344 215 299 249 q 468 181 390 181 q 589 216 544 181 q 633 311 633 251 q 590 406 633 372 q 467 439 547 439 l 94 439 l 94 972 l 813 972 l 813 774 l 315 774 l 315 631 l 467 631 z "},"6":{"ha":961,"x_min":72,"x_max":906,"o":"m 549 629 q 735 590 654 629 q 861 480 817 551 q 906 315 906 408 q 853 142 906 217 q 708 26 801 67 q 490 -15 614 -15 q 270 25 365 -15 q 124 140 175 65 q 72 314 72 215 l 72 657 q 124 831 72 756 q 268 947 175 906 q 483 988 361 988 q 779 910 674 988 q 886 696 885 833 l 660 696 q 608 770 656 743 q 485 797 561 797 q 354 758 404 797 q 304 654 304 718 l 304 557 q 413 610 349 592 q 549 629 476 629 m 489 182 q 624 219 572 182 q 675 315 675 256 q 624 413 675 375 q 489 450 572 450 q 353 413 404 450 q 303 315 303 376 q 353 218 303 254 q 489 182 404 182 z "},"7":{"ha":810,"x_min":35,"x_max":792,"o":"m 35 972 l 792 972 l 792 860 l 367 0 l 108 0 l 499 772 l 35 772 l 35 972 z "},"8":{"ha":967,"x_min":65,"x_max":901,"o":"m 767 504 q 864 414 826 475 q 901 281 901 353 q 792 59 901 138 q 483 -19 682 -19 q 176 60 288 -19 q 65 281 65 140 q 103 414 65 353 q 200 504 140 475 q 123 594 150 542 q 96 708 96 646 q 144 857 96 793 q 279 956 192 921 q 483 990 367 990 q 689 956 601 990 q 824 857 776 921 q 871 708 871 793 q 844 594 871 647 q 767 504 817 542 m 483 808 q 363 776 408 808 q 317 692 317 744 q 363 608 317 640 q 483 576 408 576 q 604 608 558 576 q 650 692 650 640 q 604 776 650 744 q 483 808 558 808 m 483 172 q 619 206 569 172 q 669 294 669 239 q 619 383 669 350 q 483 417 569 417 q 347 383 397 417 q 297 294 297 350 q 347 206 297 239 q 483 172 397 172 z "},"9":{"ha":957,"x_min":57,"x_max":885,"o":"m 467 988 q 685 946 590 988 q 832 830 779 904 q 885 658 885 756 l 885 318 q 833 142 885 217 q 688 26 782 67 q 469 -15 593 -15 q 172 61 278 -15 q 64 278 65 138 l 292 278 q 342 203 294 231 q 467 175 390 175 q 599 216 546 175 q 653 324 653 257 l 653 413 q 419 343 561 343 q 228 381 310 343 q 101 491 146 419 q 57 657 57 563 q 108 831 57 756 q 251 947 158 906 q 467 988 344 988 m 471 522 q 603 559 553 522 q 654 657 654 596 q 603 753 654 717 q 471 790 553 790 q 338 753 388 790 q 288 657 288 717 q 338 559 288 596 q 471 522 388 522 z "},"\r":{"ha":447,"x_min":0,"x_max":0,"o":""}," ":{"ha":325,"x_min":0,"x_max":0,"o":""},"A":{"ha":1093,"x_min":-10,"x_max":1103,"o":"m 857 0 l 785 175 l 306 175 l 233 0 l -10 0 l 426 972 l 669 972 l 1103 0 l 857 0 m 547 754 l 388 371 l 704 371 l 547 754 z "},"Á":{"ha":1093,"x_min":-10,"x_max":1103,"o":"m 857 0 l 785 175 l 306 175 l 233 0 l -10 0 l 426 972 l 669 972 l 1103 0 l 857 0 m 547 754 l 388 371 l 704 371 l 547 754 m 543 1260 l 788 1260 l 632 1060 l 440 1060 l 543 1260 z "},"Ă":{"ha":1093,"x_min":-10,"x_max":1103,"o":"m 857 0 l 785 175 l 306 175 l 233 0 l -10 0 l 426 972 l 669 972 l 1103 0 l 857 0 m 547 754 l 388 371 l 704 371 l 547 754 m 546 1056 q 378 1110 439 1056 q 317 1263 317 1165 l 481 1263 q 499 1214 481 1232 q 546 1196 517 1196 q 594 1214 576 1196 q 613 1263 613 1232 l 775 1263 q 714 1110 775 1165 q 546 1056 653 1056 z "},"Â":{"ha":1093,"x_min":-10,"x_max":1103,"o":"m 857 0 l 785 175 l 306 175 l 233 0 l -10 0 l 426 972 l 669 972 l 1103 0 l 857 0 m 547 754 l 388 371 l 704 371 l 547 754 m 815 1060 l 615 1060 l 547 1124 l 479 1060 l 279 1060 l 474 1260 l 622 1260 l 815 1060 z "},"Ä":{"ha":1093,"x_min":-10,"x_max":1103,"o":"m 857 0 l 785 175 l 306 175 l 233 0 l -10 0 l 426 972 l 669 972 l 1103 0 l 857 0 m 547 754 l 388 371 l 704 371 l 547 754 m 385 1056 q 302 1086 336 1056 q 268 1169 268 1117 q 302 1252 268 1222 q 385 1282 336 1282 q 467 1252 432 1282 q 501 1169 501 1222 q 467 1086 501 1117 q 385 1056 432 1056 m 708 1056 q 626 1086 661 1056 q 592 1169 592 1117 q 626 1252 592 1222 q 708 1282 661 1282 q 791 1252 757 1282 q 825 1169 825 1222 q 791 1086 825 1117 q 708 1056 757 1056 z "},"À":{"ha":1093,"x_min":-10,"x_max":1103,"o":"m 857 0 l 785 175 l 306 175 l 233 0 l -10 0 l 426 972 l 669 972 l 1103 0 l 857 0 m 547 754 l 388 371 l 704 371 l 547 754 m 461 1060 l 306 1260 l 550 1260 l 653 1060 l 461 1060 z "},"Ā":{"ha":1093,"x_min":-10,"x_max":1103,"o":"m 857 0 l 785 175 l 306 175 l 233 0 l -10 0 l 426 972 l 669 972 l 1103 0 l 857 0 m 547 754 l 388 371 l 704 371 l 547 754 m 318 1229 l 775 1229 l 775 1072 l 318 1072 l 318 1229 z "},"Ą":{"ha":1093,"x_min":-10,"x_max":1167,"o":"m 1167 -217 q 1088 -265 1129 -250 q 994 -279 1046 -279 q 881 -243 922 -279 q 840 -143 840 -207 q 908 0 840 -64 l 857 0 l 785 175 l 306 175 l 233 0 l -10 0 l 426 972 l 669 972 l 1103 0 q 1017 -92 1017 -49 q 1026 -116 1017 -107 q 1054 -125 1036 -125 q 1101 -110 1079 -125 l 1167 -217 m 547 754 l 388 371 l 704 371 l 547 754 z "},"Å":{"ha":1093,"x_min":-10,"x_max":1103,"o":"m 785 175 l 306 175 l 233 0 l -10 0 l 408 932 q 353 1057 353 981 q 407 1181 353 1133 q 546 1229 461 1229 q 686 1181 632 1229 q 740 1057 740 1133 q 686 935 740 981 l 1103 0 l 857 0 l 785 175 m 546 1114 q 503 1098 519 1114 q 488 1057 488 1082 q 503 1017 488 1033 q 546 1001 519 1001 q 588 1017 572 1001 q 604 1057 604 1032 q 588 1098 604 1082 q 546 1114 572 1114 m 547 754 l 388 371 l 704 371 l 547 754 z "},"Ã":{"ha":1093,"x_min":-10,"x_max":1103,"o":"m 857 0 l 785 175 l 306 175 l 233 0 l -10 0 l 426 972 l 669 972 l 1103 0 l 857 0 m 547 754 l 388 371 l 704 371 l 547 754 m 643 1053 q 539 1082 592 1053 q 468 1106 496 1106 q 407 1060 426 1106 l 294 1136 q 358 1229 315 1196 q 453 1263 400 1263 q 550 1235 503 1263 q 622 1211 589 1211 q 683 1258 664 1211 l 794 1186 q 735 1087 775 1121 q 643 1053 694 1053 z "},"Æ":{"ha":1428,"x_min":-42,"x_max":1365,"o":"m 896 192 l 1365 192 l 1365 0 l 683 0 l 683 175 l 326 175 l 214 0 l -42 0 l 585 972 l 1350 972 l 1350 782 l 896 782 l 896 585 l 1321 585 l 1321 401 l 896 401 l 896 192 m 449 376 l 683 376 l 683 614 l 685 757 l 596 607 l 449 376 z "},"Ǽ":{"ha":1428,"x_min":-42,"x_max":1365,"o":"m 896 192 l 1365 192 l 1365 0 l 683 0 l 683 175 l 326 175 l 214 0 l -42 0 l 585 972 l 1350 972 l 1350 782 l 896 782 l 896 585 l 1321 585 l 1321 401 l 896 401 l 896 192 m 449 376 l 683 376 l 683 614 l 685 757 l 596 607 l 449 376 m 765 1260 l 1010 1260 l 854 1060 l 663 1060 l 765 1260 z "},"B":{"ha":1008,"x_min":106,"x_max":954,"o":"m 800 508 q 913 415 871 478 q 954 272 954 351 q 856 72 954 144 q 586 0 758 0 l 106 0 l 106 972 l 586 972 q 833 903 743 972 q 924 714 924 833 q 891 590 924 643 q 800 508 858 536 m 329 785 l 329 592 l 590 592 q 674 617 644 592 q 703 688 703 642 q 673 759 703 733 q 590 785 643 785 l 329 785 m 601 192 q 697 221 663 192 q 731 301 731 250 q 697 383 731 354 q 601 411 663 411 l 329 411 l 329 192 l 601 192 z "},"C":{"ha":978,"x_min":50,"x_max":953,"o":"m 574 -22 q 298 42 417 -22 q 115 221 179 106 q 50 486 50 336 q 116 752 50 636 q 300 931 182 868 q 569 994 418 994 q 939 843 785 994 l 799 703 q 575 792 706 792 q 420 753 488 792 q 316 646 353 715 q 279 486 279 576 q 316 326 279 396 q 420 219 353 257 q 575 181 488 181 q 708 206 644 181 q 819 278 772 231 l 953 129 q 574 -22 796 -22 z "},"Ć":{"ha":978,"x_min":50,"x_max":953,"o":"m 574 -22 q 298 42 417 -22 q 115 221 179 106 q 50 486 50 336 q 116 752 50 636 q 300 931 182 868 q 569 994 418 994 q 939 843 785 994 l 799 703 q 575 792 706 792 q 420 753 488 792 q 316 646 353 715 q 279 486 279 576 q 316 326 279 396 q 420 219 353 257 q 575 181 488 181 q 708 206 644 181 q 819 278 772 231 l 953 129 q 574 -22 796 -22 m 547 1260 l 792 1260 l 636 1060 l 444 1060 l 547 1260 z "},"Č":{"ha":978,"x_min":50,"x_max":953,"o":"m 574 -22 q 298 42 417 -22 q 115 221 179 106 q 50 486 50 336 q 116 752 50 636 q 300 931 182 868 q 569 994 418 994 q 939 843 785 994 l 799 703 q 575 792 706 792 q 420 753 488 792 q 316 646 353 715 q 279 486 279 576 q 316 326 279 396 q 420 219 353 257 q 575 181 488 181 q 708 206 644 181 q 819 278 772 231 l 953 129 q 574 -22 796 -22 m 619 1264 l 819 1264 l 626 1064 l 478 1064 l 283 1264 l 483 1264 l 551 1200 l 619 1264 z "},"Ç":{"ha":978,"x_min":50,"x_max":953,"o":"m 618 -56 q 717 -99 681 -61 q 754 -196 754 -136 q 701 -302 754 -261 q 564 -343 649 -343 q 457 -324 506 -343 q 376 -269 408 -306 l 450 -185 q 551 -222 496 -222 q 597 -211 581 -222 q 614 -181 614 -200 q 597 -148 614 -160 q 550 -136 579 -136 q 501 -146 515 -136 l 460 -107 l 493 -18 q 258 65 358 -3 q 104 241 158 132 q 50 486 50 350 q 116 752 50 636 q 300 931 182 868 q 569 994 418 994 q 939 843 785 994 l 799 703 q 575 792 706 792 q 420 753 488 792 q 316 646 353 715 q 279 486 279 576 q 316 326 279 396 q 420 219 353 257 q 575 181 488 181 q 708 206 644 181 q 819 278 772 231 l 953 129 q 633 -19 817 0 l 618 -56 z "},"Ĉ":{"ha":978,"x_min":50,"x_max":953,"o":"m 574 -22 q 298 42 417 -22 q 115 221 179 106 q 50 486 50 336 q 116 752 50 636 q 300 931 182 868 q 569 994 418 994 q 939 843 785 994 l 799 703 q 575 792 706 792 q 420 753 488 792 q 316 646 353 715 q 279 486 279 576 q 316 326 279 396 q 420 219 353 257 q 575 181 488 181 q 708 206 644 181 q 819 278 772 231 l 953 129 q 574 -22 796 -22 m 819 1060 l 619 1060 l 551 1124 l 483 1060 l 283 1060 l 478 1260 l 626 1260 l 819 1060 z "},"Ċ":{"ha":978,"x_min":50,"x_max":953,"o":"m 574 -22 q 298 42 417 -22 q 115 221 179 106 q 50 486 50 336 q 116 752 50 636 q 300 931 182 868 q 569 994 418 994 q 939 843 785 994 l 799 703 q 575 792 706 792 q 420 753 488 792 q 316 646 353 715 q 279 486 279 576 q 316 326 279 396 q 420 219 353 257 q 575 181 488 181 q 708 206 644 181 q 819 278 772 231 l 953 129 q 574 -22 796 -22 m 551 1051 q 465 1083 499 1051 q 431 1164 431 1115 q 465 1245 431 1214 q 551 1276 499 1276 q 638 1245 604 1276 q 672 1164 672 1214 q 638 1083 672 1115 q 551 1051 604 1051 z "},"D":{"ha":1054,"x_min":106,"x_max":1004,"o":"m 504 972 q 767 913 654 972 q 942 742 881 853 q 1004 486 1004 632 q 942 230 1004 340 q 767 60 881 119 q 504 0 654 0 l 106 0 l 106 972 l 504 972 m 504 199 q 701 276 626 199 q 776 486 776 354 q 742 638 776 574 q 647 738 708 703 q 504 774 585 774 l 333 774 l 333 199 l 504 199 z "},"Ð":{"ha":1069,"x_min":15,"x_max":1019,"o":"m 519 972 q 783 913 669 972 q 958 742 896 853 q 1019 486 1019 632 q 958 230 1019 340 q 783 60 896 119 q 519 0 669 0 l 119 0 l 119 400 l 15 400 l 15 576 l 119 576 l 119 972 l 519 972 m 517 196 q 717 275 644 196 q 790 486 790 354 q 717 697 790 618 q 517 776 644 776 l 347 776 l 347 576 l 544 576 l 544 400 l 347 400 l 347 196 l 517 196 z "},"Ď":{"ha":1054,"x_min":106,"x_max":1004,"o":"m 504 972 q 767 913 654 972 q 942 742 881 853 q 1004 486 1004 632 q 942 230 1004 340 q 767 60 881 119 q 504 0 654 0 l 106 0 l 106 972 l 504 972 m 504 199 q 701 276 626 199 q 776 486 776 354 q 742 638 776 574 q 647 738 708 703 q 504 774 585 774 l 333 774 l 333 199 l 504 199 m 547 1264 l 747 1264 l 554 1064 l 406 1064 l 211 1264 l 411 1264 l 479 1200 l 547 1264 z "},"Đ":{"ha":1069,"x_min":15,"x_max":1019,"o":"m 519 972 q 783 913 669 972 q 958 742 896 853 q 1019 486 1019 632 q 958 230 1019 340 q 783 60 896 119 q 519 0 669 0 l 119 0 l 119 400 l 15 400 l 15 576 l 119 576 l 119 972 l 519 972 m 517 196 q 717 275 644 196 q 790 486 790 354 q 717 697 790 618 q 517 776 644 776 l 347 776 l 347 576 l 544 576 l 544 400 l 347 400 l 347 196 l 517 196 z "},"E":{"ha":925,"x_min":106,"x_max":863,"o":"m 326 192 l 863 192 l 863 0 l 106 0 l 106 972 l 847 972 l 847 782 l 326 782 l 326 585 l 819 585 l 819 401 l 326 401 l 326 192 z "},"É":{"ha":925,"x_min":106,"x_max":863,"o":"m 326 192 l 863 192 l 863 0 l 106 0 l 106 972 l 847 972 l 847 782 l 326 782 l 326 585 l 819 585 l 819 401 l 326 401 l 326 192 m 486 1260 l 731 1260 l 575 1060 l 383 1060 l 486 1260 z "},"Ĕ":{"ha":925,"x_min":106,"x_max":863,"o":"m 326 192 l 863 192 l 863 0 l 106 0 l 106 972 l 847 972 l 847 782 l 326 782 l 326 585 l 819 585 l 819 401 l 326 401 l 326 192 m 489 1056 q 321 1110 382 1056 q 260 1263 260 1165 l 424 1263 q 442 1214 424 1232 q 489 1196 460 1196 q 538 1214 519 1196 q 556 1263 556 1232 l 718 1263 q 657 1110 718 1165 q 489 1056 596 1056 z "},"Ě":{"ha":925,"x_min":106,"x_max":863,"o":"m 326 192 l 863 192 l 863 0 l 106 0 l 106 972 l 847 972 l 847 782 l 326 782 l 326 585 l 819 585 l 819 401 l 326 401 l 326 192 m 557 1264 l 757 1264 l 564 1064 l 415 1064 l 221 1264 l 421 1264 l 489 1200 l 557 1264 z "},"Ê":{"ha":925,"x_min":106,"x_max":863,"o":"m 326 192 l 863 192 l 863 0 l 106 0 l 106 972 l 847 972 l 847 782 l 326 782 l 326 585 l 819 585 l 819 401 l 326 401 l 326 192 m 757 1060 l 557 1060 l 489 1124 l 421 1060 l 221 1060 l 415 1260 l 564 1260 l 757 1060 z "},"Ë":{"ha":925,"x_min":106,"x_max":863,"o":"m 326 192 l 863 192 l 863 0 l 106 0 l 106 972 l 847 972 l 847 782 l 326 782 l 326 585 l 819 585 l 819 401 l 326 401 l 326 192 m 328 1056 q 245 1086 279 1056 q 211 1169 211 1117 q 245 1252 211 1222 q 328 1282 279 1282 q 410 1252 375 1282 q 444 1169 444 1222 q 410 1086 444 1117 q 328 1056 375 1056 m 651 1056 q 569 1086 604 1056 q 535 1169 535 1117 q 569 1252 535 1222 q 651 1282 604 1282 q 734 1252 700 1282 q 768 1169 768 1222 q 734 1086 768 1117 q 651 1056 700 1056 z "},"Ė":{"ha":925,"x_min":106,"x_max":863,"o":"m 326 192 l 863 192 l 863 0 l 106 0 l 106 972 l 847 972 l 847 782 l 326 782 l 326 585 l 819 585 l 819 401 l 326 401 l 326 192 m 489 1051 q 402 1083 436 1051 q 368 1164 368 1115 q 402 1245 368 1214 q 489 1276 436 1276 q 576 1245 542 1276 q 610 1164 610 1214 q 576 1083 610 1115 q 489 1051 542 1051 z "},"È":{"ha":925,"x_min":106,"x_max":863,"o":"m 326 192 l 863 192 l 863 0 l 106 0 l 106 972 l 847 972 l 847 782 l 326 782 l 326 585 l 819 585 l 819 401 l 326 401 l 326 192 m 403 1060 l 247 1260 l 492 1260 l 594 1060 l 403 1060 z "},"Ē":{"ha":925,"x_min":106,"x_max":863,"o":"m 326 192 l 863 192 l 863 0 l 106 0 l 106 972 l 847 972 l 847 782 l 326 782 l 326 585 l 819 585 l 819 401 l 326 401 l 326 192 m 260 1229 l 717 1229 l 717 1072 l 260 1072 l 260 1229 z "},"Ę":{"ha":925,"x_min":106,"x_max":926,"o":"m 926 -217 q 847 -265 889 -250 q 754 -279 806 -279 q 641 -243 682 -279 q 600 -143 600 -207 q 668 0 600 -64 l 106 0 l 106 972 l 847 972 l 847 782 l 326 782 l 326 585 l 819 585 l 819 401 l 326 401 l 326 192 l 863 192 l 863 0 q 776 -92 776 -49 q 786 -116 776 -107 q 814 -125 796 -125 q 861 -110 839 -125 l 926 -217 z "},"F":{"ha":883,"x_min":106,"x_max":824,"o":"m 824 774 l 333 774 l 333 542 l 796 542 l 796 349 l 333 349 l 333 0 l 106 0 l 106 972 l 824 972 l 824 774 z "},"G":{"ha":1044,"x_min":50,"x_max":981,"o":"m 981 575 l 981 142 q 799 20 907 63 q 563 -22 692 -22 q 292 40 408 -22 q 113 218 176 103 q 50 486 50 333 q 117 751 50 635 q 303 931 183 867 q 579 996 424 996 q 783 957 692 996 q 950 839 874 918 l 813 703 q 705 774 767 749 q 578 799 643 799 q 356 715 438 799 q 275 486 275 631 q 311 322 275 393 q 414 213 347 251 q 568 174 481 174 q 788 244 706 174 l 788 393 l 524 393 l 524 575 l 981 575 z "},"Ğ":{"ha":1044,"x_min":50,"x_max":981,"o":"m 981 575 l 981 142 q 799 20 907 63 q 563 -22 692 -22 q 292 40 408 -22 q 113 218 176 103 q 50 486 50 333 q 117 751 50 635 q 303 931 183 867 q 579 996 424 996 q 783 957 692 996 q 950 839 874 918 l 813 703 q 705 774 767 749 q 578 799 643 799 q 356 715 438 799 q 275 486 275 631 q 311 322 275 393 q 414 213 347 251 q 568 174 481 174 q 788 244 706 174 l 788 393 l 524 393 l 524 575 l 981 575 m 567 1056 q 399 1110 460 1056 q 338 1263 338 1165 l 501 1263 q 519 1214 501 1232 q 567 1196 538 1196 q 615 1214 597 1196 q 633 1263 633 1232 l 796 1263 q 735 1110 796 1165 q 567 1056 674 1056 z "},"Ĝ":{"ha":1044,"x_min":50,"x_max":981,"o":"m 981 575 l 981 142 q 799 20 907 63 q 563 -22 692 -22 q 292 40 408 -22 q 113 218 176 103 q 50 486 50 333 q 117 751 50 635 q 303 931 183 867 q 579 996 424 996 q 783 957 692 996 q 950 839 874 918 l 813 703 q 705 774 767 749 q 578 799 643 799 q 356 715 438 799 q 275 486 275 631 q 311 322 275 393 q 414 213 347 251 q 568 174 481 174 q 788 244 706 174 l 788 393 l 524 393 l 524 575 l 981 575 m 836 1060 l 636 1060 l 568 1124 l 500 1060 l 300 1060 l 494 1260 l 643 1260 l 836 1060 z "},"Ģ":{"ha":1044,"x_min":50,"x_max":981,"o":"m 981 575 l 981 142 q 799 20 907 63 q 563 -22 692 -22 q 292 40 408 -22 q 113 218 176 103 q 50 486 50 333 q 117 751 50 635 q 303 931 183 867 q 579 996 424 996 q 783 957 692 996 q 950 839 874 918 l 813 703 q 705 774 767 749 q 578 799 643 799 q 356 715 438 799 q 275 486 275 631 q 311 322 275 393 q 414 213 347 251 q 568 174 481 174 q 788 244 706 174 l 788 393 l 524 393 l 524 575 l 981 575 m 582 -72 q 658 -99 629 -72 q 688 -168 688 -126 q 674 -241 688 -200 q 619 -371 660 -282 l 514 -371 l 540 -243 q 493 -217 510 -237 q 476 -165 476 -197 q 506 -99 476 -125 q 582 -72 536 -72 z "},"Ġ":{"ha":1044,"x_min":50,"x_max":981,"o":"m 981 575 l 981 142 q 799 20 907 63 q 563 -22 692 -22 q 292 40 408 -22 q 113 218 176 103 q 50 486 50 333 q 117 751 50 635 q 303 931 183 867 q 579 996 424 996 q 783 957 692 996 q 950 839 874 918 l 813 703 q 705 774 767 749 q 578 799 643 799 q 356 715 438 799 q 275 486 275 631 q 311 322 275 393 q 414 213 347 251 q 568 174 481 174 q 788 244 706 174 l 788 393 l 524 393 l 524 575 l 981 575 m 568 1051 q 481 1083 515 1051 q 447 1164 447 1115 q 481 1245 447 1214 q 568 1276 515 1276 q 655 1245 621 1276 q 689 1164 689 1214 q 655 1083 689 1115 q 568 1051 621 1051 z "},"H":{"ha":1079,"x_min":106,"x_max":972,"o":"m 746 972 l 972 972 l 972 0 l 746 0 l 746 390 l 333 390 l 333 0 l 106 0 l 106 972 l 333 972 l 333 596 l 746 596 l 746 972 z "},"Ħ":{"ha":1100,"x_min":28,"x_max":1072,"o":"m 1072 851 l 1072 715 l 983 715 l 983 0 l 756 0 l 756 378 l 344 378 l 344 0 l 117 0 l 117 715 l 28 715 l 28 851 l 117 851 l 117 972 l 344 972 l 344 851 l 756 851 l 756 972 l 983 972 l 983 851 l 1072 851 m 344 578 l 756 578 l 756 718 l 344 718 l 344 578 z "},"Ĥ":{"ha":1079,"x_min":106,"x_max":972,"o":"m 746 972 l 972 972 l 972 0 l 746 0 l 746 390 l 333 390 l 333 0 l 106 0 l 106 972 l 333 972 l 333 596 l 746 596 l 746 972 m 808 1060 l 608 1060 l 540 1124 l 472 1060 l 272 1060 l 467 1260 l 615 1260 l 808 1060 z "},"I":{"ha":440,"x_min":106,"x_max":333,"o":"m 106 972 l 333 972 l 333 0 l 106 0 l 106 972 z "},"Ĳ":{"ha":1424,"x_min":106,"x_max":1333,"o":"m 106 972 l 333 972 l 333 0 l 106 0 l 106 972 m 1333 972 l 1333 413 q 1280 183 1333 281 q 1128 33 1226 86 q 899 -19 1029 -19 q 583 93 696 -19 q 468 411 469 206 l 690 411 q 746 242 692 301 q 899 183 800 183 q 1051 244 996 183 q 1106 415 1106 304 l 1106 775 l 822 775 l 822 972 l 1333 972 z "},"Í":{"ha":440,"x_min":106,"x_max":461,"o":"m 106 972 l 333 972 l 333 0 l 106 0 l 106 972 m 217 1260 l 461 1260 l 306 1060 l 114 1060 l 217 1260 z "},"Ĭ":{"ha":440,"x_min":-10,"x_max":449,"o":"m 106 972 l 333 972 l 333 0 l 106 0 l 106 972 m 219 1056 q 51 1110 113 1056 q -10 1263 -10 1165 l 154 1263 q 172 1214 154 1232 q 219 1196 190 1196 q 268 1214 250 1196 q 286 1263 286 1232 l 449 1263 q 388 1110 449 1165 q 219 1056 326 1056 z "},"Î":{"ha":440,"x_min":-44,"x_max":486,"o":"m 106 972 l 333 972 l 333 0 l 106 0 l 106 972 m 486 1060 l 286 1060 l 221 1122 l 156 1060 l -44 1060 l 142 1260 l 299 1260 l 486 1060 z "},"Ï":{"ha":440,"x_min":-58,"x_max":499,"o":"m 106 972 l 333 972 l 333 0 l 106 0 l 106 972 m 58 1056 q -24 1086 10 1056 q -58 1169 -58 1117 q -24 1252 -58 1222 q 58 1282 10 1282 q 140 1252 106 1282 q 175 1169 175 1222 q 140 1086 175 1117 q 58 1056 106 1056 m 382 1056 q 300 1086 335 1056 q 265 1169 265 1117 q 300 1252 265 1222 q 382 1282 335 1282 q 465 1252 431 1282 q 499 1169 499 1222 q 465 1086 499 1117 q 382 1056 431 1056 z "},"İ":{"ha":440,"x_min":100,"x_max":342,"o":"m 106 972 l 333 972 l 333 0 l 106 0 l 106 972 m 221 1051 q 134 1083 168 1051 q 100 1164 100 1115 q 134 1245 100 1214 q 221 1276 168 1276 q 308 1245 274 1276 q 342 1164 342 1214 q 308 1083 342 1115 q 221 1051 274 1051 z "},"Ì":{"ha":440,"x_min":-21,"x_max":333,"o":"m 106 972 l 333 972 l 333 0 l 106 0 l 106 972 m 135 1060 l -21 1260 l 224 1260 l 326 1060 l 135 1060 z "},"Ī":{"ha":440,"x_min":-1,"x_max":442,"o":"m 106 972 l 333 972 l 333 0 l 106 0 l 106 972 m -1 1229 l 442 1229 l 442 1072 l -1 1072 l -1 1229 z "},"Į":{"ha":440,"x_min":71,"x_max":397,"o":"m 397 -217 q 318 -265 360 -250 q 225 -279 276 -279 q 112 -243 153 -279 q 71 -143 71 -207 q 139 0 71 -64 l 106 0 l 106 972 l 333 972 l 333 0 q 247 -92 247 -49 q 257 -116 247 -107 q 285 -125 267 -125 q 332 -110 310 -125 l 397 -217 z "},"Ĩ":{"ha":440,"x_min":-32,"x_max":468,"o":"m 106 972 l 333 972 l 333 0 l 106 0 l 106 972 m 317 1053 q 213 1082 265 1053 q 142 1106 169 1106 q 81 1060 100 1106 l -32 1136 q 31 1229 -11 1196 q 126 1263 74 1263 q 224 1235 176 1263 q 296 1211 263 1211 q 357 1258 338 1211 l 468 1186 q 408 1087 449 1121 q 317 1053 368 1053 z "},"J":{"ha":983,"x_min":28,"x_max":893,"o":"m 893 972 l 893 413 q 840 183 893 281 q 688 33 786 86 q 458 -19 589 -19 q 142 93 256 -19 q 28 411 29 206 l 250 411 q 306 242 251 301 q 458 183 360 183 q 610 244 556 183 q 665 415 665 304 l 665 775 l 382 775 l 382 972 l 893 972 z "},"Ĵ":{"ha":983,"x_min":28,"x_max":899,"o":"m 893 972 l 893 413 q 840 183 893 281 q 688 33 786 86 q 458 -19 589 -19 q 142 93 256 -19 q 28 411 29 206 l 250 411 q 306 242 251 301 q 458 183 360 183 q 610 244 556 183 q 665 415 665 304 l 665 775 l 382 775 l 382 972 l 893 972 m 899 1060 l 699 1060 l 633 1122 l 568 1060 l 368 1060 l 554 1260 l 711 1260 l 899 1060 z "},"K":{"ha":950,"x_min":106,"x_max":969,"o":"m 969 0 l 674 0 l 332 386 l 332 0 l 106 0 l 106 972 l 332 972 l 332 592 l 651 972 l 932 972 l 522 496 l 969 0 z "},"Ķ":{"ha":950,"x_min":106,"x_max":969,"o":"m 969 0 l 674 0 l 332 386 l 332 0 l 106 0 l 106 972 l 332 972 l 332 592 l 651 972 l 932 972 l 522 496 l 969 0 m 489 -72 q 565 -99 536 -72 q 594 -168 594 -126 q 581 -241 594 -200 q 526 -371 567 -282 l 421 -371 l 447 -243 q 400 -217 417 -237 q 383 -165 383 -197 q 413 -99 383 -125 q 489 -72 443 -72 z "},"L":{"ha":846,"x_min":106,"x_max":822,"o":"m 106 972 l 333 972 l 333 206 l 822 206 l 822 0 l 106 0 l 106 972 z "},"Ĺ":{"ha":846,"x_min":106,"x_max":822,"o":"m 106 972 l 333 972 l 333 206 l 822 206 l 822 0 l 106 0 l 106 972 m 217 1260 l 461 1260 l 306 1060 l 114 1060 l 217 1260 z "},"Ľ":{"ha":846,"x_min":106,"x_max":822,"o":"m 106 972 l 333 972 l 333 201 l 822 201 l 822 0 l 106 0 l 106 972 m 575 972 l 772 972 l 664 667 l 511 667 l 575 972 z "},"Ļ":{"ha":846,"x_min":106,"x_max":822,"o":"m 106 972 l 333 972 l 333 206 l 822 206 l 822 0 l 106 0 l 106 972 m 474 -72 q 550 -99 521 -72 q 579 -168 579 -126 q 565 -241 579 -200 q 511 -371 551 -282 l 406 -371 l 432 -243 q 385 -217 401 -237 q 368 -165 368 -197 q 398 -99 368 -125 q 474 -72 428 -72 z "},"Ŀ":{"ha":846,"x_min":106,"x_max":822,"o":"m 333 972 l 333 206 l 822 206 l 822 0 l 106 0 l 106 972 l 333 972 m 592 382 q 497 417 535 382 q 460 507 460 453 q 497 596 460 561 q 592 631 535 631 q 686 596 649 631 q 724 507 724 561 q 686 417 724 453 q 592 382 649 382 z "},"Ł":{"ha":857,"x_min":19,"x_max":833,"o":"m 344 201 l 833 201 l 833 0 l 117 0 l 117 313 l 19 265 l 19 440 l 117 489 l 117 972 l 344 972 l 344 603 l 494 678 l 494 499 l 344 425 l 344 201 z "},"M":{"ha":1283,"x_min":106,"x_max":1178,"o":"m 974 972 l 1178 972 l 1178 0 l 951 0 l 951 608 l 665 258 l 621 258 l 332 610 l 332 0 l 106 0 l 106 972 l 310 972 l 642 558 l 974 972 z "},"N":{"ha":1079,"x_min":106,"x_max":974,"o":"m 747 972 l 974 972 l 974 0 l 769 0 l 329 601 l 332 339 l 332 0 l 106 0 l 106 972 l 310 972 l 750 368 l 747 628 l 747 972 z "},"Ń":{"ha":1079,"x_min":106,"x_max":974,"o":"m 747 972 l 974 972 l 974 0 l 769 0 l 329 601 l 332 339 l 332 0 l 106 0 l 106 972 l 310 972 l 750 368 l 747 628 l 747 972 m 542 1260 l 786 1260 l 631 1060 l 439 1060 l 542 1260 z "},"Ň":{"ha":1079,"x_min":106,"x_max":974,"o":"m 747 972 l 974 972 l 974 0 l 769 0 l 329 601 l 332 339 l 332 0 l 106 0 l 106 972 l 310 972 l 750 368 l 747 628 l 747 972 m 614 1264 l 814 1264 l 621 1064 l 472 1064 l 278 1264 l 478 1264 l 546 1200 l 614 1264 z "},"Ņ":{"ha":1079,"x_min":106,"x_max":974,"o":"m 747 972 l 974 972 l 974 0 l 769 0 l 329 601 l 332 339 l 332 0 l 106 0 l 106 972 l 310 972 l 750 368 l 747 628 l 747 972 m 549 -72 q 625 -99 596 -72 q 654 -168 654 -126 q 640 -241 654 -200 q 586 -371 626 -282 l 481 -371 l 507 -243 q 460 -217 476 -237 q 443 -165 443 -197 q 473 -99 443 -125 q 549 -72 503 -72 z "},"Ŋ":{"ha":1079,"x_min":106,"x_max":974,"o":"m 974 972 l 974 -36 q 916 -243 974 -172 q 750 -314 858 -314 q 563 -271 660 -314 l 601 -112 q 674 -132 643 -132 q 747 -32 747 -132 l 747 31 l 329 601 l 332 339 l 332 0 l 106 0 l 106 972 l 308 972 l 751 368 l 747 625 l 747 972 l 974 972 z "},"Ñ":{"ha":1079,"x_min":106,"x_max":974,"o":"m 747 972 l 974 972 l 974 0 l 769 0 l 329 601 l 332 339 l 332 0 l 106 0 l 106 972 l 310 972 l 750 368 l 747 628 l 747 972 m 642 1053 q 538 1082 590 1053 q 467 1106 494 1106 q 406 1060 425 1106 l 293 1136 q 356 1229 314 1196 q 451 1263 399 1263 q 549 1235 501 1263 q 621 1211 588 1211 q 682 1258 663 1211 l 793 1186 q 733 1087 774 1121 q 642 1053 693 1053 z "},"O":{"ha":1147,"x_min":50,"x_max":1097,"o":"m 574 -24 q 298 40 417 -24 q 115 218 179 103 q 50 486 50 333 q 115 754 50 639 q 298 933 179 869 q 574 996 417 996 q 849 933 731 996 q 1033 754 968 869 q 1097 486 1097 639 q 1033 218 1097 333 q 849 40 968 103 q 574 -24 731 -24 m 574 179 q 728 217 661 179 q 833 325 796 256 q 869 486 869 394 q 833 647 869 578 q 728 755 796 717 q 574 793 661 793 q 419 755 486 793 q 316 647 353 717 q 279 486 279 578 q 316 325 279 394 q 419 217 353 256 q 574 179 486 179 z "},"Ó":{"ha":1147,"x_min":50,"x_max":1097,"o":"m 574 -24 q 298 40 417 -24 q 115 218 179 103 q 50 486 50 333 q 115 754 50 639 q 298 933 179 869 q 574 996 417 996 q 849 933 731 996 q 1033 754 968 869 q 1097 486 1097 639 q 1033 218 1097 333 q 849 40 968 103 q 574 -24 731 -24 m 574 179 q 728 217 661 179 q 833 325 796 256 q 869 486 869 394 q 833 647 869 578 q 728 755 796 717 q 574 793 661 793 q 419 755 486 793 q 316 647 353 717 q 279 486 279 578 q 316 325 279 394 q 419 217 353 256 q 574 179 486 179 m 571 1260 l 815 1260 l 660 1060 l 468 1060 l 571 1260 z "},"Ŏ":{"ha":1147,"x_min":50,"x_max":1097,"o":"m 574 -24 q 298 40 417 -24 q 115 218 179 103 q 50 486 50 333 q 115 754 50 639 q 298 933 179 869 q 574 996 417 996 q 849 933 731 996 q 1033 754 968 869 q 1097 486 1097 639 q 1033 218 1097 333 q 849 40 968 103 q 574 -24 731 -24 m 574 179 q 728 217 661 179 q 833 325 796 256 q 869 486 869 394 q 833 647 869 578 q 728 755 796 717 q 574 793 661 793 q 419 755 486 793 q 316 647 353 717 q 279 486 279 578 q 316 325 279 394 q 419 217 353 256 q 574 179 486 179 m 574 1056 q 406 1110 467 1056 q 344 1263 344 1165 l 508 1263 q 526 1214 508 1232 q 574 1196 544 1196 q 622 1214 604 1196 q 640 1263 640 1232 l 803 1263 q 742 1110 803 1165 q 574 1056 681 1056 z "},"Ô":{"ha":1147,"x_min":50,"x_max":1097,"o":"m 574 -24 q 298 40 417 -24 q 115 218 179 103 q 50 486 50 333 q 115 754 50 639 q 298 933 179 869 q 574 996 417 996 q 849 933 731 996 q 1033 754 968 869 q 1097 486 1097 639 q 1033 218 1097 333 q 849 40 968 103 q 574 -24 731 -24 m 574 179 q 728 217 661 179 q 833 325 796 256 q 869 486 869 394 q 833 647 869 578 q 728 755 796 717 q 574 793 661 793 q 419 755 486 793 q 316 647 353 717 q 279 486 279 578 q 316 325 279 394 q 419 217 353 256 q 574 179 486 179 m 842 1060 l 642 1060 l 574 1124 l 506 1060 l 306 1060 l 500 1260 l 649 1260 l 842 1060 z "},"Ö":{"ha":1147,"x_min":50,"x_max":1097,"o":"m 574 -24 q 298 40 417 -24 q 115 218 179 103 q 50 486 50 333 q 115 754 50 639 q 298 933 179 869 q 574 996 417 996 q 849 933 731 996 q 1033 754 968 869 q 1097 486 1097 639 q 1033 218 1097 333 q 849 40 968 103 q 574 -24 731 -24 m 574 179 q 728 217 661 179 q 833 325 796 256 q 869 486 869 394 q 833 647 869 578 q 728 755 796 717 q 574 793 661 793 q 419 755 486 793 q 316 647 353 717 q 279 486 279 578 q 316 325 279 394 q 419 217 353 256 q 574 179 486 179 m 413 1056 q 330 1086 364 1056 q 296 1169 296 1117 q 330 1252 296 1222 q 413 1282 364 1282 q 494 1252 460 1282 q 529 1169 529 1222 q 494 1086 529 1117 q 413 1056 460 1056 m 736 1056 q 654 1086 689 1056 q 619 1169 619 1117 q 654 1252 619 1222 q 736 1282 689 1282 q 819 1252 785 1282 q 853 1169 853 1222 q 819 1086 853 1117 q 736 1056 785 1056 z "},"Ò":{"ha":1147,"x_min":50,"x_max":1097,"o":"m 574 -24 q 298 40 417 -24 q 115 218 179 103 q 50 486 50 333 q 115 754 50 639 q 298 933 179 869 q 574 996 417 996 q 849 933 731 996 q 1033 754 968 869 q 1097 486 1097 639 q 1033 218 1097 333 q 849 40 968 103 q 574 -24 731 -24 m 574 179 q 728 217 661 179 q 833 325 796 256 q 869 486 869 394 q 833 647 869 578 q 728 755 796 717 q 574 793 661 793 q 419 755 486 793 q 316 647 353 717 q 279 486 279 578 q 316 325 279 394 q 419 217 353 256 q 574 179 486 179 m 488 1060 l 332 1260 l 576 1260 l 679 1060 l 488 1060 z "},"Ő":{"ha":1147,"x_min":50,"x_max":1097,"o":"m 574 -24 q 298 40 417 -24 q 115 218 179 103 q 50 486 50 333 q 115 754 50 639 q 298 933 179 869 q 574 996 417 996 q 849 933 731 996 q 1033 754 968 869 q 1097 486 1097 639 q 1033 218 1097 333 q 849 40 968 103 q 574 -24 731 -24 m 574 179 q 728 217 661 179 q 833 325 796 256 q 869 486 869 394 q 833 647 869 578 q 728 755 796 717 q 574 793 661 793 q 419 755 486 793 q 316 647 353 717 q 279 486 279 578 q 316 325 279 394 q 419 217 353 256 q 574 179 486 179 m 432 1258 l 651 1258 l 517 1053 l 333 1053 l 432 1258 m 725 1258 l 938 1258 l 788 1053 l 604 1053 l 725 1258 z "},"Ō":{"ha":1147,"x_min":50,"x_max":1097,"o":"m 574 -24 q 298 40 417 -24 q 115 218 179 103 q 50 486 50 333 q 115 754 50 639 q 298 933 179 869 q 574 996 417 996 q 849 933 731 996 q 1033 754 968 869 q 1097 486 1097 639 q 1033 218 1097 333 q 849 40 968 103 q 574 -24 731 -24 m 574 179 q 728 217 661 179 q 833 325 796 256 q 869 486 869 394 q 833 647 869 578 q 728 755 796 717 q 574 793 661 793 q 419 755 486 793 q 316 647 353 717 q 279 486 279 578 q 316 325 279 394 q 419 217 353 256 q 574 179 486 179 m 346 1229 l 803 1229 l 803 1072 l 346 1072 l 346 1229 z "},"Ø":{"ha":1153,"x_min":50,"x_max":1103,"o":"m 928 883 q 1058 714 1013 815 q 1103 486 1103 613 q 1038 218 1103 333 q 853 40 972 103 q 576 -24 735 -24 q 378 7 465 -24 l 313 -99 l 108 -99 l 225 88 q 95 257 140 154 q 50 486 50 360 q 115 754 50 639 q 300 933 181 869 q 576 996 419 996 q 775 965 681 996 l 842 1071 l 1047 1071 l 928 883 m 576 799 q 417 760 486 799 q 310 650 349 721 q 272 486 272 579 q 291 368 272 422 q 343 274 310 314 l 665 788 q 576 799 621 799 m 576 174 q 736 213 667 174 q 843 322 806 251 q 881 486 881 393 q 811 699 881 614 l 489 185 q 576 174 531 174 z "},"Ǿ":{"ha":1153,"x_min":50,"x_max":1103,"o":"m 928 883 q 1058 714 1013 815 q 1103 486 1103 613 q 1038 218 1103 333 q 853 40 972 103 q 576 -24 735 -24 q 378 7 465 -24 l 313 -99 l 108 -99 l 225 88 q 95 257 140 154 q 50 486 50 360 q 115 754 50 639 q 300 933 181 869 q 576 996 419 996 q 775 965 681 996 l 842 1071 l 1047 1071 l 928 883 m 576 799 q 417 760 486 799 q 310 650 349 721 q 272 486 272 579 q 291 368 272 422 q 343 274 310 314 l 665 788 q 576 799 621 799 m 576 174 q 736 213 667 174 q 843 322 806 251 q 881 486 881 393 q 811 699 881 614 l 489 185 q 576 174 531 174 m 574 1260 l 818 1260 l 663 1060 l 471 1060 l 574 1260 z "},"Õ":{"ha":1147,"x_min":50,"x_max":1097,"o":"m 574 -24 q 298 40 417 -24 q 115 218 179 103 q 50 486 50 333 q 115 754 50 639 q 298 933 179 869 q 574 996 417 996 q 849 933 731 996 q 1033 754 968 869 q 1097 486 1097 639 q 1033 218 1097 333 q 849 40 968 103 q 574 -24 731 -24 m 574 179 q 728 217 661 179 q 833 325 796 256 q 869 486 869 394 q 833 647 869 578 q 728 755 796 717 q 574 793 661 793 q 419 755 486 793 q 316 647 353 717 q 279 486 279 578 q 316 325 279 394 q 419 217 353 256 q 574 179 486 179 m 671 1053 q 567 1082 619 1053 q 496 1106 524 1106 q 435 1060 454 1106 l 322 1136 q 385 1229 343 1196 q 481 1263 428 1263 q 578 1235 531 1263 q 650 1211 617 1211 q 711 1258 692 1211 l 822 1186 q 763 1087 803 1121 q 671 1053 722 1053 z "},"Œ":{"ha":1428,"x_min":50,"x_max":1365,"o":"m 1365 0 l 731 0 q 565 -21 646 -21 q 292 42 408 -21 q 113 219 176 104 q 50 488 50 333 q 113 756 50 642 q 292 931 176 869 q 565 993 408 993 q 733 972 638 993 l 1350 972 l 1350 783 l 907 783 l 907 585 l 1324 585 l 1324 401 l 907 401 l 907 192 l 1365 192 l 1365 0 m 279 486 q 317 326 279 396 q 422 219 354 257 q 579 182 490 182 q 707 203 649 182 l 707 768 q 575 790 644 790 q 360 708 440 790 q 279 486 279 625 z "},"P":{"ha":969,"x_min":106,"x_max":943,"o":"m 571 972 q 767 930 683 972 q 897 808 851 888 q 943 624 943 729 q 897 439 943 518 q 767 317 851 360 q 571 275 683 275 l 333 275 l 333 0 l 106 0 l 106 972 l 571 972 m 560 474 q 674 514 632 474 q 717 622 717 554 q 674 731 717 690 q 560 771 632 771 l 332 771 l 332 474 l 560 474 z "},"Þ":{"ha":969,"x_min":106,"x_max":943,"o":"m 571 838 q 767 794 683 838 q 897 672 851 751 q 943 488 943 593 q 897 303 943 382 q 767 181 851 224 q 571 138 683 138 l 333 138 l 333 0 l 106 0 l 106 972 l 333 972 l 333 838 l 571 838 m 563 339 q 675 380 633 339 q 717 488 717 421 q 675 595 717 554 q 563 636 633 636 l 332 636 l 332 339 l 563 339 z "},"Q":{"ha":1144,"x_min":50,"x_max":1135,"o":"m 976 -97 l 842 36 q 574 -24 726 -24 q 298 40 417 -24 q 115 218 179 103 q 50 486 50 333 q 115 754 50 639 q 298 933 179 869 q 574 996 417 996 q 849 933 731 996 q 1033 754 968 869 q 1097 486 1097 639 q 1011 185 1097 310 l 1135 60 l 976 -97 m 574 179 q 728 217 661 179 q 833 325 796 256 q 869 486 869 394 q 833 647 869 578 q 728 755 796 717 q 574 793 661 793 q 419 755 486 793 q 316 647 353 717 q 279 486 279 578 q 316 325 279 394 q 419 217 353 256 q 574 179 486 179 z "},"R":{"ha":1006,"x_min":106,"x_max":983,"o":"m 465 321 l 333 321 l 333 0 l 106 0 l 106 972 l 579 972 q 764 931 685 972 q 886 815 843 890 q 929 643 929 740 q 872 453 929 532 q 708 340 814 374 l 983 0 l 713 0 l 465 321 m 704 640 q 665 742 704 706 q 553 778 625 778 l 332 778 l 332 504 l 553 504 q 665 540 626 504 q 704 640 704 575 z "},"Ŕ":{"ha":1006,"x_min":106,"x_max":983,"o":"m 465 321 l 333 321 l 333 0 l 106 0 l 106 972 l 579 972 q 764 931 685 972 q 886 815 843 890 q 929 643 929 740 q 872 453 929 532 q 708 340 814 374 l 983 0 l 713 0 l 465 321 m 704 640 q 665 742 704 706 q 553 778 625 778 l 332 778 l 332 504 l 553 504 q 665 540 626 504 q 704 640 704 575 m 489 1260 l 733 1260 l 578 1060 l 386 1060 l 489 1260 z "},"Ř":{"ha":1006,"x_min":106,"x_max":983,"o":"m 465 321 l 333 321 l 333 0 l 106 0 l 106 972 l 579 972 q 764 931 685 972 q 886 815 843 890 q 929 643 929 740 q 872 453 929 532 q 708 340 814 374 l 983 0 l 713 0 l 465 321 m 704 640 q 665 742 704 706 q 553 778 625 778 l 332 778 l 332 504 l 553 504 q 665 540 626 504 q 704 640 704 575 m 560 1264 l 760 1264 l 567 1064 l 418 1064 l 224 1264 l 424 1264 l 492 1200 l 560 1264 z "},"Ŗ":{"ha":1006,"x_min":106,"x_max":983,"o":"m 465 321 l 333 321 l 333 0 l 106 0 l 106 972 l 579 972 q 764 931 685 972 q 886 815 843 890 q 929 643 929 740 q 872 453 929 532 q 708 340 814 374 l 983 0 l 713 0 l 465 321 m 704 640 q 665 742 704 706 q 553 778 625 778 l 332 778 l 332 504 l 553 504 q 665 540 626 504 q 704 640 704 575 m 519 -72 q 596 -99 567 -72 q 625 -168 625 -126 q 611 -241 625 -200 q 557 -371 597 -282 l 451 -371 l 478 -243 q 431 -217 447 -237 q 414 -165 414 -197 q 444 -99 414 -125 q 519 -72 474 -72 z "},"S":{"ha":915,"x_min":44,"x_max":875,"o":"m 465 -22 q 235 14 346 -22 q 44 115 125 50 l 163 281 q 464 179 292 179 q 601 208 550 179 q 651 288 651 238 q 604 361 651 335 q 454 399 557 388 q 163 492 256 421 q 71 694 71 563 q 121 851 71 783 q 261 957 171 919 q 469 994 351 994 q 667 965 571 994 q 838 883 764 936 l 731 724 q 479 803 617 803 q 344 775 394 803 q 293 700 293 747 q 337 629 293 654 q 483 592 381 604 q 778 494 681 569 q 875 286 875 418 q 824 124 875 194 q 679 16 772 54 q 465 -22 586 -22 z "},"Ś":{"ha":915,"x_min":44,"x_max":875,"o":"m 465 -22 q 235 14 346 -22 q 44 115 125 50 l 163 281 q 464 179 292 179 q 601 208 550 179 q 651 288 651 238 q 604 361 651 335 q 454 399 557 388 q 163 492 256 421 q 71 694 71 563 q 121 851 71 783 q 261 957 171 919 q 469 994 351 994 q 667 965 571 994 q 838 883 764 936 l 731 724 q 479 803 617 803 q 344 775 394 803 q 293 700 293 747 q 337 629 293 654 q 483 592 381 604 q 778 494 681 569 q 875 286 875 418 q 824 124 875 194 q 679 16 772 54 q 465 -22 586 -22 m 454 1260 l 699 1260 l 543 1060 l 351 1060 l 454 1260 z "},"Š":{"ha":915,"x_min":44,"x_max":875,"o":"m 465 -22 q 235 14 346 -22 q 44 115 125 50 l 163 281 q 464 179 292 179 q 601 208 550 179 q 651 288 651 238 q 604 361 651 335 q 454 399 557 388 q 163 492 256 421 q 71 694 71 563 q 121 851 71 783 q 261 957 171 919 q 469 994 351 994 q 667 965 571 994 q 838 883 764 936 l 731 724 q 479 803 617 803 q 344 775 394 803 q 293 700 293 747 q 337 629 293 654 q 483 592 381 604 q 778 494 681 569 q 875 286 875 418 q 824 124 875 194 q 679 16 772 54 q 465 -22 586 -22 m 526 1264 l 726 1264 l 533 1064 l 385 1064 l 190 1264 l 390 1264 l 458 1200 l 526 1264 z "},"Ş":{"ha":915,"x_min":44,"x_max":875,"o":"m 875 286 q 781 78 875 161 q 528 -19 686 -4 l 513 -56 q 612 -99 575 -61 q 649 -196 649 -136 q 596 -302 649 -261 q 458 -343 543 -343 q 351 -324 400 -343 q 271 -269 303 -306 l 344 -185 q 446 -222 390 -222 q 492 -211 475 -222 q 508 -181 508 -200 q 491 -148 508 -160 q 444 -136 474 -136 q 396 -146 411 -136 l 354 -107 l 388 -18 q 200 27 289 -7 q 44 115 111 61 l 163 281 q 464 179 292 179 q 601 208 550 179 q 651 288 651 238 q 604 361 651 335 q 454 399 557 388 q 163 492 256 421 q 71 694 71 563 q 121 851 71 783 q 261 957 171 919 q 469 994 351 994 q 667 965 571 994 q 838 883 764 936 l 731 724 q 479 803 617 803 q 344 775 394 803 q 293 700 293 747 q 337 629 293 654 q 483 592 381 604 q 778 494 681 569 q 875 286 875 418 z "},"Ŝ":{"ha":915,"x_min":44,"x_max":875,"o":"m 465 -22 q 235 14 346 -22 q 44 115 125 50 l 163 281 q 464 179 292 179 q 601 208 550 179 q 651 288 651 238 q 604 361 651 335 q 454 399 557 388 q 163 492 256 421 q 71 694 71 563 q 121 851 71 783 q 261 957 171 919 q 469 994 351 994 q 667 965 571 994 q 838 883 764 936 l 731 724 q 479 803 617 803 q 344 775 394 803 q 293 700 293 747 q 337 629 293 654 q 483 592 381 604 q 778 494 681 569 q 875 286 875 418 q 824 124 875 194 q 679 16 772 54 q 465 -22 586 -22 m 726 1060 l 526 1060 l 458 1124 l 390 1060 l 190 1060 l 385 1260 l 533 1260 l 726 1060 z "},"Ș":{"ha":915,"x_min":44,"x_max":875,"o":"m 465 -22 q 235 14 346 -22 q 44 115 125 50 l 163 281 q 464 179 292 179 q 601 208 550 179 q 651 288 651 238 q 604 361 651 335 q 454 399 557 388 q 163 492 256 421 q 71 694 71 563 q 121 851 71 783 q 261 957 171 919 q 469 994 351 994 q 667 965 571 994 q 838 883 764 936 l 731 724 q 479 803 617 803 q 344 775 394 803 q 293 700 293 747 q 337 629 293 654 q 483 592 381 604 q 778 494 681 569 q 875 286 875 418 q 824 124 875 194 q 679 16 772 54 q 465 -22 586 -22 m 467 -72 q 543 -99 514 -72 q 572 -168 572 -126 q 558 -241 572 -200 q 504 -371 544 -282 l 399 -371 l 425 -243 q 378 -217 394 -237 q 361 -165 361 -197 q 391 -99 361 -125 q 467 -72 421 -72 z "},"ẞ":{"ha":1019,"x_min":106,"x_max":986,"o":"m 743 619 q 920 513 854 596 q 986 308 986 431 q 944 139 986 211 q 822 28 901 67 q 638 -11 743 -11 q 432 21 531 -11 l 474 207 q 600 188 535 188 q 718 222 676 188 q 760 318 760 256 q 599 444 760 444 l 514 444 l 475 543 l 625 775 l 468 775 q 365 743 396 775 q 333 639 333 711 l 333 0 l 106 0 l 106 664 q 411 972 106 972 l 900 972 l 900 853 l 743 619 z "},"T":{"ha":864,"x_min":22,"x_max":843,"o":"m 843 972 l 843 774 l 546 774 l 546 0 l 318 0 l 318 774 l 22 774 l 22 972 l 843 972 z "},"Ŧ":{"ha":864,"x_min":22,"x_max":843,"o":"m 843 778 l 546 778 l 546 563 l 717 563 l 717 393 l 546 393 l 546 0 l 318 0 l 318 393 l 147 393 l 147 563 l 318 563 l 318 778 l 22 778 l 22 972 l 843 972 l 843 778 z "},"Ť":{"ha":864,"x_min":22,"x_max":843,"o":"m 843 972 l 843 774 l 546 774 l 546 0 l 318 0 l 318 774 l 22 774 l 22 972 l 843 972 m 500 1264 l 700 1264 l 507 1064 l 358 1064 l 164 1264 l 364 1264 l 432 1200 l 500 1264 z "},"Ţ":{"ha":864,"x_min":22,"x_max":843,"o":"m 500 0 l 478 -56 q 577 -99 540 -61 q 614 -196 614 -136 q 561 -302 614 -261 q 424 -343 508 -343 q 317 -324 365 -343 q 236 -269 268 -306 l 310 -185 q 411 -222 356 -222 q 457 -211 440 -222 q 474 -181 474 -200 q 456 -148 474 -160 q 410 -136 439 -136 q 361 -146 376 -136 l 319 -107 l 360 0 l 318 0 l 318 774 l 22 774 l 22 972 l 843 972 l 843 774 l 546 774 l 546 0 l 500 0 z "},"Ț":{"ha":864,"x_min":22,"x_max":843,"o":"m 843 972 l 843 774 l 546 774 l 546 0 l 318 0 l 318 774 l 22 774 l 22 972 l 843 972 m 432 -72 q 508 -99 479 -72 q 538 -168 538 -126 q 524 -241 538 -200 q 469 -371 510 -282 l 364 -371 l 390 -243 q 343 -217 360 -237 q 326 -165 326 -197 q 356 -99 326 -125 q 432 -72 386 -72 z "},"U":{"ha":1064,"x_min":90,"x_max":972,"o":"m 532 -21 q 206 95 322 -21 q 90 419 90 211 l 90 972 l 318 972 l 318 419 q 374 244 318 308 q 532 181 431 181 q 688 244 631 181 q 744 419 744 308 l 744 972 l 972 972 l 972 419 q 857 95 972 211 q 532 -21 742 -21 z "},"Ú":{"ha":1064,"x_min":90,"x_max":972,"o":"m 532 -21 q 206 95 322 -21 q 90 419 90 211 l 90 972 l 318 972 l 318 419 q 374 244 318 308 q 532 181 431 181 q 688 244 631 181 q 744 419 744 308 l 744 972 l 972 972 l 972 419 q 857 95 972 211 q 532 -21 742 -21 m 528 1260 l 772 1260 l 617 1060 l 425 1060 l 528 1260 z "},"Ŭ":{"ha":1064,"x_min":90,"x_max":972,"o":"m 532 -21 q 206 95 322 -21 q 90 419 90 211 l 90 972 l 318 972 l 318 419 q 374 244 318 308 q 532 181 431 181 q 688 244 631 181 q 744 419 744 308 l 744 972 l 972 972 l 972 419 q 857 95 972 211 q 532 -21 742 -21 m 531 1056 q 363 1110 424 1056 q 301 1263 301 1165 l 465 1263 q 483 1214 465 1232 q 531 1196 501 1196 q 579 1214 561 1196 q 597 1263 597 1232 l 760 1263 q 699 1110 760 1165 q 531 1056 638 1056 z "},"Û":{"ha":1064,"x_min":90,"x_max":972,"o":"m 532 -21 q 206 95 322 -21 q 90 419 90 211 l 90 972 l 318 972 l 318 419 q 374 244 318 308 q 532 181 431 181 q 688 244 631 181 q 744 419 744 308 l 744 972 l 972 972 l 972 419 q 857 95 972 211 q 532 -21 742 -21 m 800 1060 l 600 1060 l 532 1124 l 464 1060 l 264 1060 l 458 1260 l 607 1260 l 800 1060 z "},"Ü":{"ha":1064,"x_min":90,"x_max":972,"o":"m 532 -21 q 206 95 322 -21 q 90 419 90 211 l 90 972 l 318 972 l 318 419 q 374 244 318 308 q 532 181 431 181 q 688 244 631 181 q 744 419 744 308 l 744 972 l 972 972 l 972 419 q 857 95 972 211 q 532 -21 742 -21 m 369 1056 q 287 1086 321 1056 q 253 1169 253 1117 q 287 1252 253 1222 q 369 1282 321 1282 q 451 1252 417 1282 q 486 1169 486 1222 q 451 1086 486 1117 q 369 1056 417 1056 m 693 1056 q 611 1086 646 1056 q 576 1169 576 1117 q 611 1252 576 1222 q 693 1282 646 1282 q 776 1252 742 1282 q 810 1169 810 1222 q 776 1086 810 1117 q 693 1056 742 1056 z "},"Ù":{"ha":1064,"x_min":90,"x_max":972,"o":"m 532 -21 q 206 95 322 -21 q 90 419 90 211 l 90 972 l 318 972 l 318 419 q 374 244 318 308 q 532 181 431 181 q 688 244 631 181 q 744 419 744 308 l 744 972 l 972 972 l 972 419 q 857 95 972 211 q 532 -21 742 -21 m 446 1060 l 290 1260 l 535 1260 l 638 1060 l 446 1060 z "},"Ű":{"ha":1064,"x_min":90,"x_max":972,"o":"m 532 -21 q 206 95 322 -21 q 90 419 90 211 l 90 972 l 318 972 l 318 419 q 374 244 318 308 q 532 181 431 181 q 688 244 631 181 q 744 419 744 308 l 744 972 l 972 972 l 972 419 q 857 95 972 211 q 532 -21 742 -21 m 389 1258 l 608 1258 l 474 1053 l 290 1053 l 389 1258 m 682 1258 l 894 1258 l 744 1053 l 561 1053 l 682 1258 z "},"Ū":{"ha":1064,"x_min":90,"x_max":972,"o":"m 532 -21 q 206 95 322 -21 q 90 419 90 211 l 90 972 l 318 972 l 318 419 q 374 244 318 308 q 532 181 431 181 q 688 244 631 181 q 744 419 744 308 l 744 972 l 972 972 l 972 419 q 857 95 972 211 q 532 -21 742 -21 m 303 1229 l 760 1229 l 760 1072 l 303 1072 l 303 1229 z "},"Ų":{"ha":1064,"x_min":90,"x_max":972,"o":"m 972 972 l 972 419 q 899 147 972 254 q 689 0 826 39 q 604 -92 604 -49 q 614 -116 604 -107 q 642 -125 624 -125 q 689 -110 667 -125 l 754 -217 q 675 -265 717 -250 q 582 -279 633 -279 q 469 -243 510 -279 q 428 -143 428 -207 q 478 -18 428 -75 q 192 111 293 -3 q 90 419 90 225 l 90 972 l 318 972 l 318 419 q 374 244 318 308 q 532 181 431 181 q 688 244 631 181 q 744 419 744 308 l 744 972 l 972 972 z "},"Ů":{"ha":1064,"x_min":90,"x_max":972,"o":"m 532 -21 q 206 95 322 -21 q 90 419 90 211 l 90 972 l 318 972 l 318 419 q 374 244 318 308 q 532 181 431 181 q 688 244 631 181 q 744 419 744 308 l 744 972 l 972 972 l 972 419 q 857 95 972 211 q 532 -21 742 -21 m 531 1035 q 392 1083 446 1035 q 338 1206 338 1131 q 392 1330 338 1282 q 531 1378 446 1378 q 671 1330 617 1378 q 725 1206 725 1282 q 671 1083 725 1131 q 531 1035 617 1035 m 531 1150 q 573 1165 557 1150 q 589 1206 589 1181 q 573 1247 589 1231 q 531 1263 557 1263 q 488 1247 504 1263 q 472 1206 472 1231 q 488 1166 472 1182 q 531 1150 504 1150 z "},"Ũ":{"ha":1064,"x_min":90,"x_max":972,"o":"m 532 -21 q 206 95 322 -21 q 90 419 90 211 l 90 972 l 318 972 l 318 419 q 374 244 318 308 q 532 181 431 181 q 688 244 631 181 q 744 419 744 308 l 744 972 l 972 972 l 972 419 q 857 95 972 211 q 532 -21 742 -21 m 628 1053 q 524 1082 576 1053 q 453 1106 481 1106 q 392 1060 411 1106 l 279 1136 q 342 1229 300 1196 q 438 1263 385 1263 q 535 1235 488 1263 q 607 1211 574 1211 q 668 1258 649 1211 l 779 1186 q 719 1087 760 1121 q 628 1053 679 1053 z "},"V":{"ha":1026,"x_min":-7,"x_max":1033,"o":"m 782 972 l 1033 972 l 633 0 l 393 0 l -7 972 l 244 972 l 375 642 l 513 264 l 653 642 l 782 972 z "},"W":{"ha":1538,"x_min":13,"x_max":1525,"o":"m 1276 972 l 1525 972 l 1185 0 l 969 0 l 878 271 l 767 597 l 658 271 l 565 0 l 354 0 l 13 972 l 261 972 l 383 585 l 463 308 l 683 972 l 847 972 l 1074 304 l 1158 585 l 1276 972 z "},"Ẃ":{"ha":1538,"x_min":13,"x_max":1525,"o":"m 1276 972 l 1525 972 l 1185 0 l 969 0 l 878 271 l 767 597 l 658 271 l 565 0 l 354 0 l 13 972 l 261 972 l 383 585 l 463 308 l 683 972 l 847 972 l 1074 304 l 1158 585 l 1276 972 m 761 1260 l 1006 1260 l 850 1060 l 658 1060 l 761 1260 z "},"Ŵ":{"ha":1538,"x_min":13,"x_max":1525,"o":"m 1276 972 l 1525 972 l 1185 0 l 969 0 l 878 271 l 767 597 l 658 271 l 565 0 l 354 0 l 13 972 l 261 972 l 383 585 l 463 308 l 683 972 l 847 972 l 1074 304 l 1158 585 l 1276 972 m 1033 1060 l 833 1060 l 765 1124 l 697 1060 l 497 1060 l 692 1260 l 840 1260 l 1033 1060 z "},"Ẅ":{"ha":1538,"x_min":13,"x_max":1525,"o":"m 1276 972 l 1525 972 l 1185 0 l 969 0 l 878 271 l 767 597 l 658 271 l 565 0 l 354 0 l 13 972 l 261 972 l 383 585 l 463 308 l 683 972 l 847 972 l 1074 304 l 1158 585 l 1276 972 m 604 1056 q 522 1086 556 1056 q 488 1169 488 1117 q 522 1252 488 1222 q 604 1282 556 1282 q 686 1252 651 1282 q 721 1169 721 1222 q 686 1086 721 1117 q 604 1056 651 1056 m 928 1056 q 846 1086 881 1056 q 811 1169 811 1117 q 846 1252 811 1222 q 928 1282 881 1282 q 1010 1252 976 1282 q 1044 1169 1044 1222 q 1010 1086 1044 1117 q 928 1056 976 1056 z "},"Ẁ":{"ha":1538,"x_min":13,"x_max":1525,"o":"m 1276 972 l 1525 972 l 1185 0 l 969 0 l 878 271 l 767 597 l 658 271 l 565 0 l 354 0 l 13 972 l 261 972 l 383 585 l 463 308 l 683 972 l 847 972 l 1074 304 l 1158 585 l 1276 972 m 679 1060 l 524 1260 l 768 1260 l 871 1060 l 679 1060 z "},"X":{"ha":964,"x_min":-3,"x_max":967,"o":"m 632 496 l 967 0 l 690 0 l 578 169 l 482 326 l 389 171 l 276 0 l -3 0 l 326 486 l 15 972 l 283 972 l 386 808 l 478 650 l 574 808 l 679 972 l 949 972 l 632 496 z "},"Y":{"ha":986,"x_min":-8,"x_max":996,"o":"m 996 972 l 600 381 l 600 0 l 374 0 l 374 381 l -8 972 l 258 972 l 489 594 l 725 972 l 996 972 z "},"Ý":{"ha":986,"x_min":-8,"x_max":996,"o":"m 996 972 l 600 381 l 600 0 l 374 0 l 374 381 l -8 972 l 258 972 l 489 594 l 725 972 l 996 972 m 489 1260 l 733 1260 l 578 1060 l 386 1060 l 489 1260 z "},"Ŷ":{"ha":986,"x_min":-8,"x_max":996,"o":"m 996 972 l 600 381 l 600 0 l 374 0 l 374 381 l -8 972 l 258 972 l 489 594 l 725 972 l 996 972 m 760 1060 l 560 1060 l 492 1124 l 424 1060 l 224 1060 l 418 1260 l 567 1260 l 760 1060 z "},"Ÿ":{"ha":986,"x_min":-8,"x_max":996,"o":"m 996 972 l 600 381 l 600 0 l 374 0 l 374 381 l -8 972 l 258 972 l 489 594 l 725 972 l 996 972 m 331 1056 q 248 1086 282 1056 q 214 1169 214 1117 q 248 1252 214 1222 q 331 1282 282 1282 q 413 1252 378 1282 q 447 1169 447 1222 q 413 1086 447 1117 q 331 1056 378 1056 m 654 1056 q 572 1086 607 1056 q 538 1169 538 1117 q 572 1252 538 1222 q 654 1282 607 1282 q 737 1252 703 1282 q 771 1169 771 1222 q 737 1086 771 1117 q 654 1056 703 1056 z "},"Ỳ":{"ha":986,"x_min":-8,"x_max":996,"o":"m 996 972 l 600 381 l 600 0 l 374 0 l 374 381 l -8 972 l 258 972 l 489 594 l 725 972 l 996 972 m 406 1060 l 250 1260 l 494 1260 l 597 1060 l 406 1060 z "},"Z":{"ha":876,"x_min":35,"x_max":829,"o":"m 353 199 l 829 199 l 829 0 l 35 0 l 35 85 l 507 779 l 65 779 l 65 972 l 821 972 l 821 890 l 353 199 z "},"Ź":{"ha":876,"x_min":35,"x_max":829,"o":"m 353 199 l 829 199 l 829 0 l 35 0 l 35 85 l 507 779 l 65 779 l 65 972 l 821 972 l 821 890 l 353 199 m 444 1260 l 689 1260 l 533 1060 l 342 1060 l 444 1260 z "},"Ž":{"ha":876,"x_min":35,"x_max":829,"o":"m 353 199 l 829 199 l 829 0 l 35 0 l 35 85 l 507 779 l 65 779 l 65 972 l 821 972 l 821 890 l 353 199 m 515 1264 l 715 1264 l 522 1064 l 374 1064 l 179 1264 l 379 1264 l 447 1200 l 515 1264 z "},"Ż":{"ha":876,"x_min":35,"x_max":829,"o":"m 353 199 l 829 199 l 829 0 l 35 0 l 35 85 l 507 779 l 65 779 l 65 972 l 821 972 l 821 890 l 353 199 m 447 1051 q 360 1083 394 1051 q 326 1164 326 1115 q 360 1245 326 1214 q 447 1276 394 1276 q 534 1245 500 1276 q 568 1164 568 1214 q 534 1083 568 1115 q 447 1051 500 1051 z "},"a":{"ha":883,"x_min":43,"x_max":801,"o":"m 801 686 l 801 0 l 613 0 l 599 82 q 371 -14 511 -14 q 201 31 275 -14 q 85 158 126 76 q 43 343 43 239 q 85 528 43 447 q 201 655 126 610 q 371 700 275 700 q 499 676 440 700 q 599 606 557 651 l 613 686 l 801 686 m 422 169 q 540 217 494 169 q 586 343 586 265 q 540 469 586 421 q 422 517 494 517 q 305 468 350 517 q 260 343 260 419 q 305 218 260 267 q 422 169 350 169 z "},"á":{"ha":883,"x_min":43,"x_max":801,"o":"m 801 686 l 801 0 l 613 0 l 599 82 q 371 -14 511 -14 q 201 31 275 -14 q 85 158 126 76 q 43 343 43 239 q 85 528 43 447 q 201 655 126 610 q 371 700 275 700 q 499 676 440 700 q 599 606 557 651 l 613 686 l 801 686 m 422 169 q 540 217 494 169 q 586 343 586 265 q 540 469 586 421 q 422 517 494 517 q 305 468 350 517 q 260 343 260 419 q 305 218 260 267 q 422 169 350 169 m 432 972 l 667 972 l 521 767 l 339 767 l 432 972 z "},"ă":{"ha":883,"x_min":43,"x_max":801,"o":"m 801 686 l 801 0 l 613 0 l 599 82 q 371 -14 511 -14 q 201 31 275 -14 q 85 158 126 76 q 43 343 43 239 q 85 528 43 447 q 201 655 126 610 q 371 700 275 700 q 499 676 440 700 q 599 606 557 651 l 613 686 l 801 686 m 422 169 q 540 217 494 169 q 586 343 586 265 q 540 469 586 421 q 422 517 494 517 q 305 468 350 517 q 260 343 260 419 q 305 218 260 267 q 422 169 350 169 m 446 765 q 278 820 339 765 q 217 972 217 875 l 381 972 q 399 924 381 942 q 446 906 417 906 q 494 924 476 906 q 513 972 513 942 l 675 972 q 614 820 675 875 q 446 765 553 765 z "},"â":{"ha":883,"x_min":43,"x_max":801,"o":"m 801 686 l 801 0 l 613 0 l 599 82 q 371 -14 511 -14 q 201 31 275 -14 q 85 158 126 76 q 43 343 43 239 q 85 528 43 447 q 201 655 126 610 q 371 700 275 700 q 499 676 440 700 q 599 606 557 651 l 613 686 l 801 686 m 422 169 q 540 217 494 169 q 586 343 586 265 q 540 469 586 421 q 422 517 494 517 q 305 468 350 517 q 260 343 260 419 q 305 218 260 267 q 422 169 350 169 m 721 764 l 525 764 l 444 838 l 367 764 l 171 764 l 378 972 l 513 972 l 721 764 z "},"ä":{"ha":883,"x_min":43,"x_max":801,"o":"m 801 686 l 801 0 l 613 0 l 599 82 q 371 -14 511 -14 q 201 31 275 -14 q 85 158 126 76 q 43 343 43 239 q 85 528 43 447 q 201 655 126 610 q 371 700 275 700 q 499 676 440 700 q 599 606 557 651 l 613 686 l 801 686 m 422 169 q 540 217 494 169 q 586 343 586 265 q 540 469 586 421 q 422 517 494 517 q 305 468 350 517 q 260 343 260 419 q 305 218 260 267 q 422 169 350 169 m 292 769 q 213 798 246 769 q 181 878 181 826 q 214 956 181 928 q 292 985 247 985 q 370 956 338 985 q 403 878 403 928 q 370 798 403 826 q 292 769 338 769 m 600 769 q 522 798 554 769 q 489 878 489 826 q 522 956 489 928 q 600 985 556 985 q 679 956 646 985 q 713 878 713 928 q 679 798 713 826 q 600 769 646 769 z "},"à":{"ha":883,"x_min":43,"x_max":801,"o":"m 801 686 l 801 0 l 613 0 l 599 82 q 371 -14 511 -14 q 201 31 275 -14 q 85 158 126 76 q 43 343 43 239 q 85 528 43 447 q 201 655 126 610 q 371 700 275 700 q 499 676 440 700 q 599 606 557 651 l 613 686 l 801 686 m 422 169 q 540 217 494 169 q 586 343 586 265 q 540 469 586 421 q 422 517 494 517 q 305 468 350 517 q 260 343 260 419 q 305 218 260 267 q 422 169 350 169 m 369 767 l 224 972 l 458 972 l 551 767 l 369 767 z "},"ā":{"ha":883,"x_min":43,"x_max":801,"o":"m 801 686 l 801 0 l 613 0 l 599 82 q 371 -14 511 -14 q 201 31 275 -14 q 85 158 126 76 q 43 343 43 239 q 85 528 43 447 q 201 655 126 610 q 371 700 275 700 q 499 676 440 700 q 599 606 557 651 l 613 686 l 801 686 m 422 169 q 540 217 494 169 q 586 343 586 265 q 540 469 586 421 q 422 517 494 517 q 305 468 350 517 q 260 343 260 419 q 305 218 260 267 q 422 169 350 169 m 238 943 l 654 943 l 654 786 l 238 786 l 238 943 z "},"ą":{"ha":883,"x_min":43,"x_max":867,"o":"m 867 -196 q 693 -261 793 -261 q 584 -228 624 -261 q 544 -136 544 -194 q 613 1 544 -58 l 599 82 q 371 -14 511 -14 q 201 31 275 -14 q 85 158 126 76 q 43 343 43 239 q 85 528 43 447 q 201 655 126 610 q 371 700 275 700 q 499 676 440 700 q 599 606 557 651 l 613 686 l 801 686 l 801 1 l 803 0 q 707 -86 707 -43 q 718 -112 707 -101 q 747 -122 729 -122 q 777 -116 761 -122 q 806 -100 793 -110 l 867 -196 m 422 169 q 540 217 494 169 q 586 343 586 265 q 540 469 586 421 q 422 517 494 517 q 305 468 350 517 q 260 343 260 419 q 305 218 260 267 q 422 169 350 169 z "},"å":{"ha":883,"x_min":43,"x_max":801,"o":"m 801 686 l 801 0 l 613 0 l 599 82 q 371 -14 511 -14 q 201 31 275 -14 q 85 158 126 76 q 43 343 43 239 q 85 528 43 447 q 201 655 126 610 q 371 700 275 700 q 499 676 440 700 q 599 606 557 651 l 613 686 l 801 686 m 422 169 q 540 217 494 169 q 586 343 586 265 q 540 469 586 421 q 422 517 494 517 q 305 468 350 517 q 260 343 260 419 q 305 218 260 267 q 422 169 350 169 m 444 749 q 306 797 360 749 q 251 919 251 844 q 306 1044 251 996 q 444 1092 360 1092 q 585 1044 531 1092 q 639 919 639 996 q 585 797 639 844 q 444 749 531 749 m 444 864 q 487 879 471 864 q 503 919 503 894 q 487 960 503 944 q 444 976 471 976 q 402 960 418 976 q 386 919 386 944 q 402 880 386 896 q 444 864 418 864 z "},"ã":{"ha":883,"x_min":43,"x_max":801,"o":"m 801 686 l 801 0 l 613 0 l 599 82 q 371 -14 511 -14 q 201 31 275 -14 q 85 158 126 76 q 43 343 43 239 q 85 528 43 447 q 201 655 126 610 q 371 700 275 700 q 499 676 440 700 q 599 606 557 651 l 613 686 l 801 686 m 422 169 q 540 217 494 169 q 586 343 586 265 q 540 469 586 421 q 422 517 494 517 q 305 468 350 517 q 260 343 260 419 q 305 218 260 267 q 422 169 350 169 m 539 772 q 438 801 490 772 q 369 825 394 825 q 308 779 328 825 l 196 856 q 259 949 217 915 q 354 982 301 982 q 449 954 401 982 q 518 931 482 931 q 579 978 560 931 l 690 906 q 631 806 671 839 q 539 772 592 772 z "},"æ":{"ha":1360,"x_min":43,"x_max":1322,"o":"m 1000 700 q 1170 658 1097 700 q 1283 540 1243 617 q 1322 364 1322 464 q 1314 274 1322 322 l 821 274 q 879 192 832 222 q 999 163 926 163 q 1099 178 1051 163 q 1178 221 1146 193 l 1293 97 q 1161 15 1238 44 q 1001 -14 1085 -14 q 775 74 856 -14 l 765 0 l 593 0 l 586 75 q 368 -14 500 -14 q 200 31 274 -14 q 85 158 126 76 q 43 343 43 239 q 85 528 43 447 q 200 655 126 610 q 368 700 274 700 q 589 610 503 700 l 597 686 l 765 686 l 775 613 q 1000 700 860 700 m 975 536 q 871 504 911 536 q 821 417 831 472 l 1124 417 q 1081 503 1122 469 q 975 536 1040 536 m 419 169 q 535 218 490 169 q 579 343 579 267 q 535 468 579 419 q 419 517 490 517 q 304 468 349 517 q 260 343 260 419 q 304 218 260 267 q 419 169 349 169 z "},"ǽ":{"ha":1360,"x_min":43,"x_max":1322,"o":"m 1000 700 q 1170 658 1097 700 q 1283 540 1243 617 q 1322 364 1322 464 q 1314 274 1322 322 l 821 274 q 879 192 832 222 q 999 163 926 163 q 1099 178 1051 163 q 1178 221 1146 193 l 1293 97 q 1161 15 1238 44 q 1001 -14 1085 -14 q 775 74 856 -14 l 765 0 l 593 0 l 586 75 q 368 -14 500 -14 q 200 31 274 -14 q 85 158 126 76 q 43 343 43 239 q 85 528 43 447 q 200 655 126 610 q 368 700 274 700 q 589 610 503 700 l 597 686 l 765 686 l 775 613 q 1000 700 860 700 m 975 536 q 871 504 911 536 q 821 417 831 472 l 1124 417 q 1081 503 1122 469 q 975 536 1040 536 m 419 169 q 535 218 490 169 q 579 343 579 267 q 535 468 579 419 q 419 517 490 517 q 304 468 349 517 q 260 343 260 419 q 304 218 260 267 q 419 169 349 169 m 668 972 l 903 972 l 757 767 l 575 767 l 668 972 z "},"b":{"ha":883,"x_min":82,"x_max":842,"o":"m 513 700 q 683 655 608 700 q 800 528 758 610 q 842 343 842 447 q 800 158 842 239 q 683 31 758 76 q 513 -14 608 -14 q 285 82 372 -14 l 271 0 l 82 0 l 82 972 l 300 972 l 300 621 q 513 700 386 700 m 461 169 q 579 217 533 169 q 625 343 625 265 q 579 469 625 421 q 461 517 533 517 q 344 468 389 517 q 299 343 299 419 q 344 218 299 267 q 461 169 389 169 z "},"c":{"ha":719,"x_min":43,"x_max":697,"o":"m 422 -15 q 222 28 307 -15 q 90 153 136 72 q 43 342 43 233 q 90 530 43 449 q 222 656 138 611 q 418 701 307 701 q 564 674 494 701 q 688 594 633 647 l 567 463 q 429 517 508 517 q 307 469 354 517 q 260 343 260 421 q 306 217 260 265 q 429 169 353 169 q 574 229 514 169 l 697 99 q 422 -15 582 -15 z "},"ć":{"ha":719,"x_min":43,"x_max":697,"o":"m 422 -15 q 222 28 307 -15 q 90 153 136 72 q 43 342 43 233 q 90 530 43 449 q 222 656 138 611 q 418 701 307 701 q 564 674 494 701 q 688 594 633 647 l 567 463 q 429 517 508 517 q 307 469 354 517 q 260 343 260 421 q 306 217 260 265 q 429 169 353 169 q 574 229 514 169 l 697 99 q 422 -15 582 -15 m 392 972 l 626 972 l 481 767 l 299 767 l 392 972 z "},"č":{"ha":719,"x_min":43,"x_max":697,"o":"m 422 -15 q 222 28 307 -15 q 90 153 136 72 q 43 342 43 233 q 90 530 43 449 q 222 656 138 611 q 418 701 307 701 q 564 674 494 701 q 688 594 633 647 l 567 463 q 429 517 508 517 q 307 469 354 517 q 260 343 260 421 q 306 217 260 265 q 429 169 353 169 q 574 229 514 169 l 697 99 q 422 -15 582 -15 m 483 972 l 679 972 l 471 764 l 336 764 l 129 972 l 325 972 l 403 899 l 483 972 z "},"ç":{"ha":719,"x_min":43,"x_max":697,"o":"m 454 -56 q 553 -97 517 -60 q 590 -196 590 -135 q 538 -302 590 -261 q 401 -343 486 -343 q 294 -324 343 -343 q 215 -271 246 -306 l 289 -186 q 389 -224 333 -224 q 433 -212 417 -224 q 450 -181 450 -200 q 433 -147 450 -160 q 388 -135 417 -135 q 339 -146 358 -135 l 297 -107 l 335 -8 q 121 108 199 15 q 43 342 43 200 q 90 530 43 449 q 222 656 138 611 q 418 701 307 701 q 564 674 494 701 q 688 594 633 647 l 567 463 q 429 517 508 517 q 307 469 354 517 q 260 343 260 421 q 306 217 260 265 q 429 169 353 169 q 574 229 514 169 l 697 99 q 472 -12 599 1 l 454 -56 z "},"ĉ":{"ha":719,"x_min":43,"x_max":697,"o":"m 422 -15 q 222 28 307 -15 q 90 153 136 72 q 43 342 43 233 q 90 530 43 449 q 222 656 138 611 q 418 701 307 701 q 564 674 494 701 q 688 594 633 647 l 567 463 q 429 517 508 517 q 307 469 354 517 q 260 343 260 421 q 306 217 260 265 q 429 169 353 169 q 574 229 514 169 l 697 99 q 422 -15 582 -15 m 679 764 l 483 764 l 403 838 l 325 764 l 129 764 l 336 972 l 471 972 l 679 764 z "},"ċ":{"ha":719,"x_min":43,"x_max":697,"o":"m 422 -15 q 222 28 307 -15 q 90 153 136 72 q 43 342 43 233 q 90 530 43 449 q 222 656 138 611 q 418 701 307 701 q 564 674 494 701 q 688 594 633 647 l 567 463 q 429 517 508 517 q 307 469 354 517 q 260 343 260 421 q 306 217 260 265 q 429 169 353 169 q 574 229 514 169 l 697 99 q 422 -15 582 -15 m 404 769 q 319 800 353 769 q 286 878 286 831 q 319 956 286 925 q 404 986 353 986 q 488 956 456 986 q 521 878 521 925 q 488 800 521 831 q 404 769 456 769 z "},"d":{"ha":885,"x_min":43,"x_max":801,"o":"m 801 972 l 801 0 l 613 0 l 599 82 q 371 -14 511 -14 q 201 31 275 -14 q 85 158 126 76 q 43 343 43 239 q 85 528 43 447 q 201 655 126 610 q 371 700 275 700 q 583 621 497 700 l 583 972 l 801 972 m 422 169 q 540 217 494 169 q 586 343 586 265 q 540 469 586 421 q 422 517 494 517 q 305 468 350 517 q 260 343 260 419 q 305 218 260 267 q 422 169 350 169 z "},"ð":{"ha":814,"x_min":43,"x_max":768,"o":"m 547 839 q 710 626 653 754 q 768 343 768 497 q 723 155 768 236 q 596 29 678 74 q 406 -15 514 -15 q 215 27 297 -15 q 88 148 133 69 q 43 329 43 226 q 85 504 43 428 q 202 623 126 581 q 376 665 278 665 q 485 642 440 665 q 362 748 440 703 q 192 808 283 793 l 228 969 q 418 918 336 956 l 481 993 l 601 901 l 547 839 m 406 165 q 513 211 471 165 q 556 329 556 257 q 513 446 556 400 q 406 492 471 492 q 298 446 340 492 q 256 329 256 400 q 298 211 256 257 q 406 165 340 165 z "},"ď":{"ha":988,"x_min":43,"x_max":1086,"o":"m 583 972 l 801 972 l 801 0 l 613 0 l 599 82 q 371 -14 511 -14 q 201 31 275 -14 q 85 158 126 76 q 43 343 43 239 q 85 528 43 447 q 201 655 126 610 q 371 700 275 700 q 583 621 497 700 l 583 972 m 903 972 l 1086 972 l 985 681 l 840 681 l 903 972 m 422 169 q 540 217 494 169 q 586 343 586 265 q 540 469 586 421 q 422 517 494 517 q 305 468 350 517 q 260 343 260 419 q 305 218 260 267 q 422 169 350 169 z "},"đ":{"ha":888,"x_min":47,"x_max":893,"o":"m 893 767 l 806 767 l 806 0 l 617 0 l 603 82 q 375 -14 515 -14 q 205 31 279 -14 q 89 158 131 76 q 47 343 47 239 q 89 528 47 447 q 205 655 131 610 q 375 700 279 700 q 588 621 501 700 l 588 767 l 463 767 l 463 894 l 588 894 l 588 972 l 806 972 l 806 894 l 893 894 l 893 767 m 426 169 q 544 217 499 169 q 590 343 590 265 q 544 469 590 421 q 426 517 499 517 q 308 468 354 517 q 263 343 263 419 q 308 218 263 267 q 426 169 354 169 z "},"e":{"ha":815,"x_min":43,"x_max":776,"o":"m 413 701 q 607 659 525 701 q 733 540 689 617 q 776 360 776 463 q 769 278 776 326 l 265 278 q 322 192 275 225 q 443 160 369 160 q 543 175 494 160 q 626 218 592 190 l 740 96 q 602 13 682 42 q 432 -17 522 -17 q 225 27 313 -17 q 90 151 138 71 q 43 342 43 232 q 90 529 43 447 q 219 656 136 611 q 413 701 303 701 m 419 529 q 313 496 354 529 q 267 403 272 463 l 569 403 q 526 496 565 463 q 419 529 486 529 z "},"é":{"ha":815,"x_min":43,"x_max":776,"o":"m 413 701 q 607 659 525 701 q 733 540 689 617 q 776 360 776 463 q 769 278 776 326 l 265 278 q 322 192 275 225 q 443 160 369 160 q 543 175 494 160 q 626 218 592 190 l 740 96 q 602 13 682 42 q 432 -17 522 -17 q 225 27 313 -17 q 90 151 138 71 q 43 342 43 232 q 90 529 43 447 q 219 656 136 611 q 413 701 303 701 m 419 529 q 313 496 354 529 q 267 403 272 463 l 569 403 q 526 496 565 463 q 419 529 486 529 m 401 972 l 636 972 l 490 767 l 308 767 l 401 972 z "},"ĕ":{"ha":815,"x_min":43,"x_max":776,"o":"m 413 701 q 607 659 525 701 q 733 540 689 617 q 776 360 776 463 q 769 278 776 326 l 265 278 q 322 192 275 225 q 443 160 369 160 q 543 175 494 160 q 626 218 592 190 l 740 96 q 602 13 682 42 q 432 -17 522 -17 q 225 27 313 -17 q 90 151 138 71 q 43 342 43 232 q 90 529 43 447 q 219 656 136 611 q 413 701 303 701 m 419 529 q 313 496 354 529 q 267 403 272 463 l 569 403 q 526 496 565 463 q 419 529 486 529 m 414 765 q 246 820 307 765 q 185 972 185 875 l 349 972 q 367 924 349 942 q 414 906 385 906 q 463 924 444 906 q 481 972 481 942 l 643 972 q 582 820 643 875 q 414 765 521 765 z "},"ě":{"ha":815,"x_min":43,"x_max":776,"o":"m 413 701 q 607 659 525 701 q 733 540 689 617 q 776 360 776 463 q 769 278 776 326 l 265 278 q 322 192 275 225 q 443 160 369 160 q 543 175 494 160 q 626 218 592 190 l 740 96 q 602 13 682 42 q 432 -17 522 -17 q 225 27 313 -17 q 90 151 138 71 q 43 342 43 232 q 90 529 43 447 q 219 656 136 611 q 413 701 303 701 m 419 529 q 313 496 354 529 q 267 403 272 463 l 569 403 q 526 496 565 463 q 419 529 486 529 m 493 972 l 689 972 l 481 764 l 346 764 l 139 972 l 335 972 l 413 899 l 493 972 z "},"ê":{"ha":815,"x_min":43,"x_max":776,"o":"m 413 701 q 607 659 525 701 q 733 540 689 617 q 776 360 776 463 q 769 278 776 326 l 265 278 q 322 192 275 225 q 443 160 369 160 q 543 175 494 160 q 626 218 592 190 l 740 96 q 602 13 682 42 q 432 -17 522 -17 q 225 27 313 -17 q 90 151 138 71 q 43 342 43 232 q 90 529 43 447 q 219 656 136 611 q 413 701 303 701 m 419 529 q 313 496 354 529 q 267 403 272 463 l 569 403 q 526 496 565 463 q 419 529 486 529 m 689 764 l 493 764 l 413 838 l 335 764 l 139 764 l 346 972 l 481 972 l 689 764 z "},"ë":{"ha":815,"x_min":43,"x_max":776,"o":"m 413 701 q 607 659 525 701 q 733 540 689 617 q 776 360 776 463 q 769 278 776 326 l 265 278 q 322 192 275 225 q 443 160 369 160 q 543 175 494 160 q 626 218 592 190 l 740 96 q 602 13 682 42 q 432 -17 522 -17 q 225 27 313 -17 q 90 151 138 71 q 43 342 43 232 q 90 529 43 447 q 219 656 136 611 q 413 701 303 701 m 419 529 q 313 496 354 529 q 267 403 272 463 l 569 403 q 526 496 565 463 q 419 529 486 529 m 260 769 q 181 798 214 769 q 149 878 149 826 q 182 956 149 928 q 260 985 215 985 q 338 956 306 985 q 371 878 371 928 q 338 798 371 826 q 260 769 306 769 m 568 769 q 490 798 522 769 q 457 878 457 826 q 490 956 457 928 q 568 985 524 985 q 647 956 614 985 q 681 878 681 928 q 647 798 681 826 q 568 769 614 769 z "},"ė":{"ha":815,"x_min":43,"x_max":776,"o":"m 413 701 q 607 659 525 701 q 733 540 689 617 q 776 360 776 463 q 769 278 776 326 l 265 278 q 322 192 275 225 q 443 160 369 160 q 543 175 494 160 q 626 218 592 190 l 740 96 q 602 13 682 42 q 432 -17 522 -17 q 225 27 313 -17 q 90 151 138 71 q 43 342 43 232 q 90 529 43 447 q 219 656 136 611 q 413 701 303 701 m 419 529 q 313 496 354 529 q 267 403 272 463 l 569 403 q 526 496 565 463 q 419 529 486 529 m 414 769 q 329 800 363 769 q 296 878 296 831 q 329 956 296 925 q 414 986 363 986 q 498 956 465 986 q 531 878 531 925 q 498 800 531 831 q 414 769 465 769 z "},"è":{"ha":815,"x_min":43,"x_max":776,"o":"m 413 701 q 607 659 525 701 q 733 540 689 617 q 776 360 776 463 q 769 278 776 326 l 265 278 q 322 192 275 225 q 443 160 369 160 q 543 175 494 160 q 626 218 592 190 l 740 96 q 602 13 682 42 q 432 -17 522 -17 q 225 27 313 -17 q 90 151 138 71 q 43 342 43 232 q 90 529 43 447 q 219 656 136 611 q 413 701 303 701 m 419 529 q 313 496 354 529 q 267 403 272 463 l 569 403 q 526 496 565 463 q 419 529 486 529 m 339 767 l 193 972 l 428 972 l 521 767 l 339 767 z "},"ē":{"ha":815,"x_min":43,"x_max":776,"o":"m 413 701 q 607 659 525 701 q 733 540 689 617 q 776 360 776 463 q 769 278 776 326 l 265 278 q 322 192 275 225 q 443 160 369 160 q 543 175 494 160 q 626 218 592 190 l 740 96 q 602 13 682 42 q 432 -17 522 -17 q 225 27 313 -17 q 90 151 138 71 q 43 342 43 232 q 90 529 43 447 q 219 656 136 611 q 413 701 303 701 m 419 529 q 313 496 354 529 q 267 403 272 463 l 569 403 q 526 496 565 463 q 419 529 486 529 m 206 943 l 622 943 l 622 786 l 206 786 l 206 943 z "},"ę":{"ha":815,"x_min":43,"x_max":778,"o":"m 413 701 q 608 659 525 701 q 734 539 690 617 q 778 358 778 461 q 771 278 778 324 l 265 278 q 322 192 275 225 q 442 160 369 160 q 544 175 497 160 q 626 218 592 190 l 742 96 q 576 0 674 38 q 482 -86 482 -36 q 518 -122 482 -122 q 564 -106 542 -122 l 624 -201 q 547 -245 590 -229 q 460 -261 504 -261 q 355 -228 393 -261 q 317 -136 317 -194 q 331 -72 317 -104 q 371 -14 344 -40 q 130 97 217 3 q 43 342 43 192 q 94 538 43 457 q 228 660 144 619 q 413 701 313 701 m 418 529 q 315 496 356 529 q 267 403 274 463 l 568 403 q 524 497 564 465 q 418 529 483 529 z "},"f":{"ha":578,"x_min":29,"x_max":628,"o":"m 371 686 l 557 686 l 557 511 l 371 511 l 371 0 l 150 0 l 150 511 l 29 511 l 29 686 l 150 686 l 150 722 q 190 875 150 814 q 293 965 229 936 q 431 994 357 994 q 628 931 546 994 l 554 793 q 509 815 529 808 q 464 822 489 822 q 396 798 421 822 q 371 722 371 774 l 371 686 z "},"g":{"ha":853,"x_min":43,"x_max":815,"o":"m 653 113 q 760 24 722 81 q 799 -106 799 -32 q 751 -258 799 -192 q 618 -359 704 -324 q 418 -394 532 -394 q 224 -358 307 -394 q 95 -256 140 -322 q 50 -101 50 -189 q 51 -68 50 -79 l 261 -68 q 299 -174 258 -136 q 418 -211 340 -211 q 531 -180 488 -211 q 574 -97 574 -149 q 534 -16 574 -44 q 421 13 494 13 q 222 56 307 13 q 90 177 136 99 q 43 360 43 256 q 91 538 43 460 q 224 660 139 617 q 419 704 310 704 q 575 671 504 704 l 656 771 l 815 656 l 724 549 q 793 360 793 469 q 756 219 793 283 q 653 113 719 154 m 419 197 q 536 242 492 197 q 581 360 581 286 q 537 477 581 433 q 419 521 493 521 q 303 477 347 521 q 258 360 258 433 q 303 242 258 288 q 419 197 347 197 z "},"ğ":{"ha":853,"x_min":43,"x_max":815,"o":"m 653 113 q 760 24 722 81 q 799 -106 799 -32 q 751 -258 799 -192 q 618 -359 704 -324 q 418 -394 532 -394 q 224 -358 307 -394 q 95 -256 140 -322 q 50 -101 50 -189 q 51 -68 50 -79 l 261 -68 q 299 -174 258 -136 q 418 -211 340 -211 q 531 -180 488 -211 q 574 -97 574 -149 q 534 -16 574 -44 q 421 13 494 13 q 222 56 307 13 q 90 177 136 99 q 43 360 43 256 q 91 538 43 460 q 224 660 139 617 q 419 704 310 704 q 575 671 504 704 l 656 771 l 815 656 l 724 549 q 793 360 793 469 q 756 219 793 283 q 653 113 719 154 m 419 197 q 536 242 492 197 q 581 360 581 286 q 537 477 581 433 q 419 521 493 521 q 303 477 347 521 q 258 360 258 433 q 303 242 258 288 q 419 197 347 197 m 426 765 q 258 820 319 765 q 197 972 197 875 l 361 972 q 379 924 361 942 q 426 906 397 906 q 475 924 457 906 q 493 972 493 942 l 656 972 q 594 820 656 875 q 426 765 533 765 z "},"ĝ":{"ha":853,"x_min":43,"x_max":815,"o":"m 653 113 q 760 24 722 81 q 799 -106 799 -32 q 751 -258 799 -192 q 618 -359 704 -324 q 418 -394 532 -394 q 224 -358 307 -394 q 95 -256 140 -322 q 50 -101 50 -189 q 51 -68 50 -79 l 261 -68 q 299 -174 258 -136 q 418 -211 340 -211 q 531 -180 488 -211 q 574 -97 574 -149 q 534 -16 574 -44 q 421 13 494 13 q 222 56 307 13 q 90 177 136 99 q 43 360 43 256 q 91 538 43 460 q 224 660 139 617 q 419 704 310 704 q 575 671 504 704 l 656 771 l 815 656 l 724 549 q 793 360 793 469 q 756 219 793 283 q 653 113 719 154 m 419 197 q 536 242 492 197 q 581 360 581 286 q 537 477 581 433 q 419 521 493 521 q 303 477 347 521 q 258 360 258 433 q 303 242 258 288 q 419 197 347 197 m 703 796 l 507 796 l 426 869 l 349 796 l 153 796 l 360 1004 l 494 1004 l 703 796 z "},"ģ":{"ha":853,"x_min":43,"x_max":815,"o":"m 421 763 q 343 793 374 763 q 313 871 313 824 q 329 954 313 910 q 393 1101 346 999 l 496 1101 l 463 958 q 511 924 493 949 q 529 867 529 900 q 499 792 529 821 q 421 763 468 763 m 653 113 q 760 24 722 81 q 799 -106 799 -32 q 751 -258 799 -192 q 618 -359 704 -324 q 418 -394 532 -394 q 224 -358 307 -394 q 95 -256 140 -322 q 50 -101 50 -189 q 51 -68 50 -79 l 261 -68 q 299 -174 258 -136 q 418 -211 340 -211 q 531 -180 488 -211 q 574 -97 574 -149 q 534 -16 574 -44 q 421 13 494 13 q 222 56 307 13 q 90 177 136 99 q 43 360 43 256 q 91 538 43 460 q 224 660 139 617 q 419 704 310 704 q 575 671 504 704 l 656 771 l 815 656 l 724 549 q 793 360 793 469 q 756 219 793 283 q 653 113 719 154 m 419 197 q 536 242 492 197 q 581 360 581 286 q 537 477 581 433 q 419 521 493 521 q 303 477 347 521 q 258 360 258 433 q 303 242 258 288 q 419 197 347 197 z "},"ġ":{"ha":853,"x_min":43,"x_max":815,"o":"m 653 113 q 760 24 722 81 q 799 -106 799 -32 q 751 -258 799 -192 q 618 -359 704 -324 q 418 -394 532 -394 q 224 -358 307 -394 q 95 -256 140 -322 q 50 -101 50 -189 q 51 -68 50 -79 l 261 -68 q 299 -174 258 -136 q 418 -211 340 -211 q 531 -180 488 -211 q 574 -97 574 -149 q 534 -16 574 -44 q 421 13 494 13 q 222 56 307 13 q 90 177 136 99 q 43 360 43 256 q 91 538 43 460 q 224 660 139 617 q 419 704 310 704 q 575 671 504 704 l 656 771 l 815 656 l 724 549 q 793 360 793 469 q 756 219 793 283 q 653 113 719 154 m 419 197 q 536 242 492 197 q 581 360 581 286 q 537 477 581 433 q 419 521 493 521 q 303 477 347 521 q 258 360 258 433 q 303 242 258 288 q 419 197 347 197 m 426 769 q 342 800 375 769 q 308 878 308 831 q 342 956 308 925 q 426 986 375 986 q 510 956 478 986 q 543 878 543 925 q 510 800 543 831 q 426 769 478 769 z "},"h":{"ha":858,"x_min":82,"x_max":785,"o":"m 510 701 q 710 617 636 701 q 785 388 785 532 l 785 0 l 567 0 l 567 375 q 534 479 567 442 q 443 517 501 517 q 340 474 379 517 q 300 361 300 431 l 300 0 l 82 0 l 82 972 l 300 972 l 300 611 q 510 701 379 701 z "},"ħ":{"ha":858,"x_min":3,"x_max":785,"o":"m 504 701 q 708 622 631 701 q 785 376 785 542 l 785 0 l 567 0 l 567 375 q 531 481 567 444 q 442 517 496 517 q 340 474 381 517 q 300 360 300 432 l 300 0 l 82 0 l 82 767 l 3 767 l 3 894 l 82 894 l 82 972 l 300 972 l 300 894 l 457 894 l 457 767 l 300 767 l 300 619 q 504 701 378 701 z "},"ĥ":{"ha":858,"x_min":-86,"x_max":785,"o":"m 510 701 q 710 617 636 701 q 785 388 785 532 l 785 0 l 567 0 l 567 375 q 534 479 567 442 q 443 517 501 517 q 340 474 379 517 q 300 361 300 431 l 300 0 l 82 0 l 82 972 l 300 972 l 300 611 q 510 701 379 701 m 464 1050 l 268 1050 l 188 1124 l 110 1050 l -86 1050 l 121 1258 l 256 1258 l 464 1050 z "},"i":{"ha":382,"x_min":64,"x_max":319,"o":"m 192 754 q 99 788 135 754 q 64 872 64 821 q 100 958 64 925 q 192 992 136 992 q 283 958 247 992 q 319 872 319 925 q 284 788 319 821 q 192 754 249 754 m 82 686 l 300 686 l 300 0 l 82 0 l 82 686 z "},"ı":{"ha":382,"x_min":82,"x_max":300,"o":"m 82 686 l 300 686 l 300 0 l 82 0 l 82 686 z "},"í":{"ha":382,"x_min":82,"x_max":392,"o":"m 82 686 l 300 686 l 300 0 l 82 0 l 82 686 m 157 972 l 392 972 l 269 767 l 86 767 l 157 972 z "},"ĭ":{"ha":382,"x_min":-24,"x_max":408,"o":"m 82 686 l 300 686 l 300 0 l 82 0 l 82 686 m 192 765 q 33 820 90 765 q -24 972 -24 875 l 135 972 q 150 923 135 940 q 192 906 165 906 q 234 923 219 906 q 249 972 249 940 l 408 972 q 351 820 408 875 q 192 765 294 765 z "},"î":{"ha":382,"x_min":-67,"x_max":449,"o":"m 82 686 l 300 686 l 300 0 l 82 0 l 82 686 m 449 764 l 256 764 l 190 838 l 126 764 l -67 764 l 121 972 l 263 972 l 449 764 z "},"ï":{"ha":382,"x_min":-62,"x_max":443,"o":"m 82 686 l 300 686 l 300 0 l 82 0 l 82 686 m 44 769 q -31 799 1 769 q -62 878 -62 828 q -31 956 -62 926 q 44 985 1 985 q 120 956 89 985 q 151 878 151 926 q 120 799 151 828 q 44 769 89 769 m 336 769 q 260 799 292 769 q 229 878 229 828 q 260 956 229 926 q 336 985 292 985 q 412 956 381 985 q 443 878 443 926 q 412 799 443 828 q 336 769 381 769 z "},"ì":{"ha":382,"x_min":-10,"x_max":300,"o":"m 82 686 l 300 686 l 300 0 l 82 0 l 82 686 m 113 767 l -10 972 l 225 972 l 296 767 l 113 767 z "},"ĳ":{"ha":767,"x_min":64,"x_max":704,"o":"m 192 754 q 99 788 135 754 q 64 872 64 821 q 100 958 64 925 q 192 992 136 992 q 283 958 247 992 q 319 872 319 925 q 284 788 319 821 q 192 754 249 754 m 82 686 l 300 686 l 300 0 l 82 0 l 82 686 m 575 754 q 483 788 519 754 q 447 872 447 821 q 483 958 447 924 q 575 992 519 992 q 668 958 632 992 q 704 872 704 924 q 668 788 704 821 q 575 754 632 754 m 443 -329 q 278 -285 363 -329 l 326 -128 q 397 -147 365 -147 q 449 -123 432 -147 q 465 -47 465 -99 l 465 686 l 683 686 l 683 -47 q 620 -256 683 -182 q 443 -329 557 -329 z "},"ī":{"ha":382,"x_min":-1,"x_max":383,"o":"m 82 686 l 300 686 l 300 0 l 82 0 l 82 686 m -1 943 l 383 943 l 383 786 l -1 786 l -1 943 z "},"į":{"ha":382,"x_min":57,"x_max":356,"o":"m 192 769 q 107 800 140 769 q 74 878 74 831 q 107 956 74 925 q 192 986 140 986 q 276 956 243 986 q 308 878 308 925 q 276 800 308 831 q 192 769 243 769 m 356 -201 q 281 -245 324 -229 q 193 -261 238 -261 q 93 -229 129 -261 q 57 -143 57 -197 q 76 -67 57 -104 q 129 0 96 -31 l 82 0 l 82 686 l 300 686 l 300 0 q 238 -44 257 -22 q 218 -90 218 -67 q 251 -125 218 -125 q 296 -108 275 -125 l 356 -201 z "},"ĩ":{"ha":382,"x_min":-47,"x_max":431,"o":"m 82 686 l 300 686 l 300 0 l 82 0 l 82 686 m 279 772 q 186 801 233 772 q 126 825 149 825 q 63 781 86 825 l -47 856 q 16 949 -26 915 q 111 982 58 982 q 197 954 156 982 q 258 931 232 931 q 321 975 299 931 l 431 906 q 372 806 411 839 q 279 772 332 772 z "},"j":{"ha":385,"x_min":-104,"x_max":322,"o":"m 193 754 q 101 788 138 754 q 65 872 65 821 q 101 958 65 924 q 193 992 138 992 q 286 958 250 992 q 322 872 322 924 q 286 788 322 821 q 193 754 250 754 m 61 -329 q -104 -285 -19 -329 l -56 -128 q 15 -147 -17 -147 q 67 -123 50 -147 q 83 -47 83 -99 l 83 686 l 301 686 l 301 -47 q 238 -256 301 -182 q 61 -329 175 -329 z "},"ȷ":{"ha":385,"x_min":-104,"x_max":301,"o":"m 61 -329 q -104 -285 -19 -329 l -56 -128 q 15 -147 -17 -147 q 67 -123 50 -147 q 83 -47 83 -99 l 83 686 l 301 686 l 301 -47 q 238 -256 301 -182 q 61 -329 175 -329 z "},"ĵ":{"ha":385,"x_min":-104,"x_max":450,"o":"m 61 -329 q -104 -285 -19 -329 l -56 -128 q 15 -147 -17 -147 q 67 -123 50 -147 q 83 -47 83 -99 l 83 686 l 301 686 l 301 -47 q 238 -256 301 -182 q 61 -329 175 -329 m 450 764 l 257 764 l 192 838 l 128 764 l -65 764 l 122 972 l 264 972 l 450 764 z "},"k":{"ha":765,"x_min":82,"x_max":778,"o":"m 778 0 l 508 0 l 299 272 l 299 0 l 82 0 l 82 972 l 299 972 l 299 426 l 489 686 l 738 686 l 490 361 l 778 0 z "},"ķ":{"ha":765,"x_min":82,"x_max":778,"o":"m 778 0 l 508 0 l 299 272 l 299 0 l 82 0 l 82 972 l 299 972 l 299 426 l 489 686 l 738 686 l 490 361 l 778 0 m 382 -72 q 458 -99 429 -72 q 488 -168 488 -126 q 474 -241 488 -200 q 419 -371 460 -282 l 314 -371 l 340 -243 q 293 -217 310 -237 q 276 -165 276 -197 q 306 -99 276 -125 q 382 -72 336 -72 z "},"ĸ":{"ha":765,"x_min":82,"x_max":778,"o":"m 778 0 l 508 0 l 299 269 l 299 0 l 82 0 l 82 686 l 299 686 l 299 428 l 489 686 l 738 686 l 493 361 l 778 0 z "},"l":{"ha":382,"x_min":82,"x_max":300,"o":"m 82 972 l 300 972 l 300 0 l 82 0 l 82 972 z "},"ĺ":{"ha":382,"x_min":82,"x_max":413,"o":"m 82 972 l 300 972 l 300 0 l 82 0 l 82 972 m 178 1258 l 413 1258 l 267 1053 l 85 1053 l 178 1258 z "},"ľ":{"ha":515,"x_min":82,"x_max":586,"o":"m 82 972 l 300 972 l 300 0 l 82 0 l 82 972 m 403 972 l 586 972 l 485 681 l 342 681 l 403 972 z "},"ļ":{"ha":382,"x_min":82,"x_max":300,"o":"m 82 972 l 300 972 l 300 0 l 82 0 l 82 972 m 192 -72 q 268 -99 239 -72 q 297 -168 297 -126 q 283 -241 297 -200 q 229 -371 269 -282 l 124 -371 l 150 -243 q 103 -217 119 -237 q 86 -165 86 -197 q 116 -99 86 -125 q 192 -72 146 -72 z "},"ŀ":{"ha":610,"x_min":82,"x_max":625,"o":"m 82 972 l 300 972 l 300 0 l 82 0 l 82 972 z "},"ł":{"ha":446,"x_min":24,"x_max":422,"o":"m 422 674 l 422 513 l 332 468 l 332 0 l 114 0 l 114 363 l 24 318 l 24 479 l 114 524 l 114 972 l 332 972 l 332 629 l 422 674 z "},"m":{"ha":1272,"x_min":82,"x_max":1199,"o":"m 918 701 q 1124 625 1049 701 q 1199 415 1199 549 l 1199 0 l 981 0 l 981 388 q 952 483 981 449 q 872 517 924 517 q 782 478 815 517 q 749 375 749 439 l 749 0 l 532 0 l 532 388 q 504 483 532 449 q 425 517 476 517 q 334 478 368 517 q 300 375 300 439 l 300 0 l 82 0 l 82 686 l 271 686 l 283 610 q 370 678 319 654 q 479 701 421 701 q 599 673 546 701 q 682 594 651 644 q 918 701 765 701 z "},"n":{"ha":858,"x_min":82,"x_max":785,"o":"m 506 701 q 709 618 633 701 q 785 388 785 535 l 785 0 l 567 0 l 567 375 q 533 479 567 442 q 442 517 500 517 q 339 474 378 517 q 300 361 300 431 l 300 0 l 82 0 l 82 686 l 271 686 l 285 606 q 381 676 325 651 q 506 701 438 701 z "},"ń":{"ha":858,"x_min":82,"x_max":785,"o":"m 506 701 q 709 618 633 701 q 785 388 785 535 l 785 0 l 567 0 l 567 375 q 533 479 567 442 q 442 517 500 517 q 339 474 378 517 q 300 361 300 431 l 300 0 l 82 0 l 82 686 l 271 686 l 285 606 q 381 676 325 651 q 506 701 438 701 m 443 972 l 678 972 l 532 767 l 350 767 l 443 972 z "},"ŉ":{"ha":1093,"x_min":88,"x_max":1019,"o":"m 740 701 q 944 618 868 701 q 1019 388 1019 535 l 1019 0 l 801 0 l 801 375 q 768 479 801 442 q 676 517 735 517 q 574 474 613 517 q 535 361 535 431 l 535 0 l 317 0 l 317 686 l 506 686 l 519 606 q 616 676 560 651 q 740 701 672 701 m 200 982 q 281 951 250 982 q 313 869 313 919 q 294 780 313 828 q 228 629 276 732 l 122 629 l 157 778 q 106 815 125 789 q 88 875 88 840 q 119 952 88 922 q 200 982 150 982 z "},"ň":{"ha":858,"x_min":82,"x_max":785,"o":"m 506 701 q 709 618 633 701 q 785 388 785 535 l 785 0 l 567 0 l 567 375 q 533 479 567 442 q 442 517 500 517 q 339 474 378 517 q 300 361 300 431 l 300 0 l 82 0 l 82 686 l 271 686 l 285 606 q 381 676 325 651 q 506 701 438 701 m 536 972 l 732 972 l 524 764 l 389 764 l 182 972 l 378 972 l 456 899 l 536 972 z "},"ņ":{"ha":858,"x_min":82,"x_max":785,"o":"m 506 701 q 709 618 633 701 q 785 388 785 535 l 785 0 l 567 0 l 567 375 q 533 479 567 442 q 442 517 500 517 q 339 474 378 517 q 300 361 300 431 l 300 0 l 82 0 l 82 686 l 271 686 l 285 606 q 381 676 325 651 q 506 701 438 701 m 433 -72 q 510 -99 481 -72 q 539 -168 539 -126 q 525 -241 539 -200 q 471 -371 511 -282 l 365 -371 l 392 -243 q 344 -217 361 -237 q 328 -165 328 -197 q 358 -99 328 -125 q 433 -72 388 -72 z "},"ŋ":{"ha":858,"x_min":82,"x_max":785,"o":"m 506 701 q 709 618 633 701 q 785 388 785 535 l 785 -35 q 720 -241 785 -169 q 543 -312 656 -312 q 378 -268 463 -312 l 429 -112 q 497 -132 464 -132 q 567 -32 567 -132 l 567 375 q 533 479 567 442 q 442 517 500 517 q 339 474 378 517 q 300 361 300 431 l 300 0 l 82 0 l 82 686 l 271 686 l 285 606 q 381 676 325 651 q 506 701 438 701 z "},"ñ":{"ha":858,"x_min":82,"x_max":785,"o":"m 506 701 q 709 618 633 701 q 785 388 785 535 l 785 0 l 567 0 l 567 375 q 533 479 567 442 q 442 517 500 517 q 339 474 378 517 q 300 361 300 431 l 300 0 l 82 0 l 82 686 l 271 686 l 285 606 q 381 676 325 651 q 506 701 438 701 m 550 772 q 449 801 501 772 q 381 825 406 825 q 319 779 339 825 l 207 856 q 270 949 228 915 q 365 982 313 982 q 460 954 413 982 q 529 931 493 931 q 590 978 571 931 l 701 906 q 642 806 682 839 q 550 772 603 772 z "},"o":{"ha":840,"x_min":43,"x_max":797,"o":"m 419 -15 q 220 30 306 -15 q 89 156 135 75 q 43 343 43 236 q 89 531 43 450 q 220 656 135 611 q 419 701 306 701 q 619 656 533 701 q 751 531 706 611 q 797 343 797 450 q 751 156 797 236 q 619 30 706 75 q 419 -15 533 -15 m 419 169 q 536 218 492 169 q 581 343 581 267 q 536 468 581 419 q 419 517 492 517 q 304 468 349 517 q 260 343 260 419 q 304 218 260 267 q 419 169 349 169 z "},"ó":{"ha":840,"x_min":43,"x_max":797,"o":"m 419 -15 q 220 30 306 -15 q 89 156 135 75 q 43 343 43 236 q 89 531 43 450 q 220 656 135 611 q 419 701 306 701 q 619 656 533 701 q 751 531 706 611 q 797 343 797 450 q 751 156 797 236 q 619 30 706 75 q 419 -15 533 -15 m 419 169 q 536 218 492 169 q 581 343 581 267 q 536 468 581 419 q 419 517 492 517 q 304 468 349 517 q 260 343 260 419 q 304 218 260 267 q 419 169 349 169 m 407 972 l 642 972 l 496 767 l 314 767 l 407 972 z "},"ŏ":{"ha":840,"x_min":43,"x_max":797,"o":"m 419 -15 q 220 30 306 -15 q 89 156 135 75 q 43 343 43 236 q 89 531 43 450 q 220 656 135 611 q 419 701 306 701 q 619 656 533 701 q 751 531 706 611 q 797 343 797 450 q 751 156 797 236 q 619 30 706 75 q 419 -15 533 -15 m 419 169 q 536 218 492 169 q 581 343 581 267 q 536 468 581 419 q 419 517 492 517 q 304 468 349 517 q 260 343 260 419 q 304 218 260 267 q 419 169 349 169 m 419 765 q 251 820 313 765 q 190 972 190 875 l 354 972 q 372 924 354 942 q 419 906 390 906 q 468 924 450 906 q 486 972 486 942 l 649 972 q 588 820 649 875 q 419 765 526 765 z "},"ô":{"ha":840,"x_min":43,"x_max":797,"o":"m 419 -15 q 220 30 306 -15 q 89 156 135 75 q 43 343 43 236 q 89 531 43 450 q 220 656 135 611 q 419 701 306 701 q 619 656 533 701 q 751 531 706 611 q 797 343 797 450 q 751 156 797 236 q 619 30 706 75 q 419 -15 533 -15 m 419 169 q 536 218 492 169 q 581 343 581 267 q 536 468 581 419 q 419 517 492 517 q 304 468 349 517 q 260 343 260 419 q 304 218 260 267 q 419 169 349 169 m 696 764 l 500 764 l 419 838 l 342 764 l 146 764 l 353 972 l 488 972 l 696 764 z "},"ö":{"ha":840,"x_min":43,"x_max":797,"o":"m 419 -15 q 220 30 306 -15 q 89 156 135 75 q 43 343 43 236 q 89 531 43 450 q 220 656 135 611 q 419 701 306 701 q 619 656 533 701 q 751 531 706 611 q 797 343 797 450 q 751 156 797 236 q 619 30 706 75 q 419 -15 533 -15 m 419 169 q 536 218 492 169 q 581 343 581 267 q 536 468 581 419 q 419 517 492 517 q 304 468 349 517 q 260 343 260 419 q 304 218 260 267 q 419 169 349 169 m 265 769 q 187 798 219 769 q 154 878 154 826 q 188 956 154 928 q 265 985 221 985 q 344 956 311 985 q 376 878 376 928 q 344 798 376 826 q 265 769 311 769 m 574 769 q 495 798 528 769 q 463 878 463 826 q 496 956 463 928 q 574 985 529 985 q 653 956 619 985 q 686 878 686 928 q 653 798 686 826 q 574 769 619 769 z "},"ò":{"ha":840,"x_min":43,"x_max":797,"o":"m 419 -15 q 220 30 306 -15 q 89 156 135 75 q 43 343 43 236 q 89 531 43 450 q 220 656 135 611 q 419 701 306 701 q 619 656 533 701 q 751 531 706 611 q 797 343 797 450 q 751 156 797 236 q 619 30 706 75 q 419 -15 533 -15 m 419 169 q 536 218 492 169 q 581 343 581 267 q 536 468 581 419 q 419 517 492 517 q 304 468 349 517 q 260 343 260 419 q 304 218 260 267 q 419 169 349 169 m 344 767 l 199 972 l 433 972 l 526 767 l 344 767 z "},"ő":{"ha":840,"x_min":43,"x_max":797,"o":"m 419 -15 q 220 30 306 -15 q 89 156 135 75 q 43 343 43 236 q 89 531 43 450 q 220 656 135 611 q 419 701 306 701 q 619 656 533 701 q 751 531 706 611 q 797 343 797 450 q 751 156 797 236 q 619 30 706 75 q 419 -15 533 -15 m 419 169 q 536 218 492 169 q 581 343 581 267 q 536 468 581 419 q 419 517 492 517 q 304 468 349 517 q 260 343 260 419 q 304 218 260 267 q 419 169 349 169 m 276 972 l 492 972 l 361 767 l 182 767 l 276 972 m 567 972 l 783 972 l 633 767 l 451 767 l 567 972 z "},"ō":{"ha":840,"x_min":43,"x_max":797,"o":"m 419 -15 q 220 30 306 -15 q 89 156 135 75 q 43 343 43 236 q 89 531 43 450 q 220 656 135 611 q 419 701 306 701 q 619 656 533 701 q 751 531 706 611 q 797 343 797 450 q 751 156 797 236 q 619 30 706 75 q 419 -15 533 -15 m 419 169 q 536 218 492 169 q 581 343 581 267 q 536 468 581 419 q 419 517 492 517 q 304 468 349 517 q 260 343 260 419 q 304 218 260 267 q 419 169 349 169 m 213 943 l 629 943 l 629 786 l 213 786 l 213 943 z "},"ø":{"ha":835,"x_min":43,"x_max":792,"o":"m 657 631 q 757 509 722 583 q 792 343 792 435 q 746 156 792 236 q 615 30 700 75 q 417 -15 529 -15 q 290 1 349 -15 l 240 -85 l 96 -85 l 178 56 q 78 176 113 103 q 43 343 43 250 q 89 530 43 449 q 219 656 135 611 q 417 701 304 701 q 546 683 490 701 l 596 768 l 739 768 l 657 631 m 417 517 q 303 468 347 517 q 260 343 260 419 q 286 240 260 286 l 447 514 q 417 517 428 517 m 417 169 q 531 218 488 169 q 575 343 575 267 q 549 444 575 400 l 389 172 q 417 169 408 169 z "},"ǿ":{"ha":835,"x_min":43,"x_max":792,"o":"m 657 631 q 757 509 722 583 q 792 343 792 435 q 746 156 792 236 q 615 30 700 75 q 417 -15 529 -15 q 290 1 349 -15 l 240 -85 l 96 -85 l 178 56 q 78 176 113 103 q 43 343 43 250 q 89 530 43 449 q 219 656 135 611 q 417 701 304 701 q 546 683 490 701 l 596 768 l 739 768 l 657 631 m 417 517 q 303 468 347 517 q 260 343 260 419 q 286 240 260 286 l 447 514 q 417 517 428 517 m 417 169 q 531 218 488 169 q 575 343 575 267 q 549 444 575 400 l 389 172 q 417 169 408 169 m 403 972 l 638 972 l 492 767 l 310 767 l 403 972 z "},"õ":{"ha":840,"x_min":43,"x_max":797,"o":"m 419 -15 q 220 30 306 -15 q 89 156 135 75 q 43 343 43 236 q 89 531 43 450 q 220 656 135 611 q 419 701 306 701 q 619 656 533 701 q 751 531 706 611 q 797 343 797 450 q 751 156 797 236 q 619 30 706 75 q 419 -15 533 -15 m 419 169 q 536 218 492 169 q 581 343 581 267 q 536 468 581 419 q 419 517 492 517 q 304 468 349 517 q 260 343 260 419 q 304 218 260 267 q 419 169 349 169 m 514 772 q 413 801 465 772 q 344 825 369 825 q 283 779 303 825 l 171 856 q 234 949 192 915 q 329 982 276 982 q 424 954 376 982 q 493 931 457 931 q 554 978 535 931 l 665 906 q 606 806 646 839 q 514 772 567 772 z "},"œ":{"ha":1329,"x_min":43,"x_max":1289,"o":"m 943 701 q 1126 659 1049 701 q 1247 541 1204 617 q 1289 368 1289 465 q 1281 278 1289 324 l 778 278 q 840 193 790 224 q 953 163 890 163 q 1056 178 1008 163 q 1135 224 1103 194 l 1250 100 q 1119 13 1194 42 q 958 -15 1043 -15 q 792 14 868 -15 q 667 101 717 43 q 551 15 619 46 q 394 -15 482 -15 q 209 30 289 -15 q 86 156 129 75 q 43 343 43 238 q 86 530 43 449 q 209 656 129 611 q 394 701 289 701 q 553 671 483 701 q 669 583 624 640 q 790 672 718 642 q 943 701 861 701 m 938 532 q 831 498 874 532 q 779 403 788 464 l 1078 403 q 1041 497 1081 463 q 938 532 1001 532 m 418 169 q 533 218 489 169 q 578 343 578 267 q 533 468 578 419 q 418 517 489 517 q 303 467 347 517 q 260 343 260 418 q 303 219 260 268 q 418 169 347 169 z "},"p":{"ha":883,"x_min":82,"x_max":842,"o":"m 513 700 q 683 655 608 700 q 800 528 758 610 q 842 343 842 447 q 800 158 842 239 q 683 31 758 76 q 513 -14 608 -14 q 300 67 385 -14 l 300 -297 l 82 -297 l 82 686 l 271 686 l 285 606 q 513 700 371 700 m 461 169 q 579 217 533 169 q 625 343 625 265 q 579 469 625 421 q 461 517 533 517 q 344 468 389 517 q 299 343 299 419 q 344 218 299 267 q 461 169 389 169 z "},"þ":{"ha":882,"x_min":82,"x_max":839,"o":"m 507 700 q 679 655 604 700 q 797 528 754 610 q 839 343 839 447 q 797 158 839 239 q 679 31 754 76 q 507 -14 604 -14 q 300 68 374 -14 l 300 -297 l 82 -297 l 82 972 l 300 972 l 300 618 q 507 700 374 700 m 460 169 q 578 217 532 169 q 624 343 624 265 q 578 469 624 421 q 460 517 532 517 q 342 469 388 517 q 296 343 296 421 q 342 217 296 265 q 460 169 388 169 z "},"q":{"ha":885,"x_min":42,"x_max":801,"o":"m 801 686 l 801 -297 l 583 -297 l 583 67 q 371 -14 499 -14 q 200 31 275 -14 q 83 158 125 76 q 42 343 42 239 q 83 528 42 447 q 200 655 125 610 q 371 700 275 700 q 599 606 513 700 l 613 686 l 801 686 m 422 169 q 540 218 494 169 q 585 343 585 267 q 540 468 585 419 q 422 517 494 517 q 304 469 350 517 q 258 343 258 421 q 304 217 258 265 q 422 169 350 169 z "},"r":{"ha":640,"x_min":82,"x_max":649,"o":"m 472 701 q 567 684 519 701 q 649 633 614 667 l 557 474 q 503 500 528 492 q 450 508 478 508 q 340 464 381 508 q 300 333 300 419 l 300 0 l 82 0 l 82 686 l 272 686 l 289 600 q 472 701 356 701 z "},"ŕ":{"ha":640,"x_min":82,"x_max":649,"o":"m 472 701 q 567 684 519 701 q 649 633 614 667 l 557 474 q 503 500 528 492 q 450 508 478 508 q 340 464 381 508 q 300 333 300 419 l 300 0 l 82 0 l 82 686 l 272 686 l 289 600 q 472 701 356 701 m 322 972 l 557 972 l 411 767 l 229 767 l 322 972 z "},"ř":{"ha":640,"x_min":61,"x_max":649,"o":"m 472 701 q 567 684 519 701 q 649 633 614 667 l 557 474 q 503 500 528 492 q 450 508 478 508 q 340 464 381 508 q 300 333 300 419 l 300 0 l 82 0 l 82 686 l 272 686 l 289 600 q 472 701 356 701 m 415 972 l 611 972 l 403 764 l 268 764 l 61 972 l 257 972 l 335 899 l 415 972 z "},"ŗ":{"ha":640,"x_min":82,"x_max":649,"o":"m 472 701 q 567 684 519 701 q 649 633 614 667 l 557 474 q 503 500 528 492 q 450 508 478 508 q 340 464 381 508 q 300 333 300 419 l 300 0 l 82 0 l 82 686 l 272 686 l 289 600 q 472 701 356 701 m 192 -72 q 268 -99 239 -72 q 297 -168 297 -126 q 283 -241 297 -200 q 229 -371 269 -282 l 124 -371 l 150 -243 q 103 -217 119 -237 q 86 -165 86 -197 q 116 -99 86 -125 q 192 -72 146 -72 z "},"s":{"ha":703,"x_min":32,"x_max":668,"o":"m 349 -18 q 32 74 167 -18 l 115 224 q 231 176 165 193 q 363 160 297 160 q 453 208 453 160 q 428 246 453 233 q 344 263 403 258 q 137 328 214 269 q 60 481 60 386 q 143 644 60 583 q 368 704 226 704 q 522 685 449 704 q 647 631 594 665 l 563 485 q 378 529 485 529 q 272 479 272 529 q 294 447 272 458 q 367 431 315 436 q 591 364 514 419 q 668 208 668 308 q 583 42 668 103 q 349 -18 499 -18 z "},"ś":{"ha":703,"x_min":32,"x_max":668,"o":"m 349 -18 q 32 74 167 -18 l 115 224 q 231 176 165 193 q 363 160 297 160 q 453 208 453 160 q 428 246 453 233 q 344 263 403 258 q 137 328 214 269 q 60 481 60 386 q 143 644 60 583 q 368 704 226 704 q 522 685 449 704 q 647 631 594 665 l 563 485 q 378 529 485 529 q 272 479 272 529 q 294 447 272 458 q 367 431 315 436 q 591 364 514 419 q 668 208 668 308 q 583 42 668 103 q 349 -18 499 -18 m 339 972 l 574 972 l 428 767 l 246 767 l 339 972 z "},"š":{"ha":703,"x_min":32,"x_max":668,"o":"m 349 -18 q 32 74 167 -18 l 115 224 q 231 176 165 193 q 363 160 297 160 q 453 208 453 160 q 428 246 453 233 q 344 263 403 258 q 137 328 214 269 q 60 481 60 386 q 143 644 60 583 q 368 704 226 704 q 522 685 449 704 q 647 631 594 665 l 563 485 q 378 529 485 529 q 272 479 272 529 q 294 447 272 458 q 367 431 315 436 q 591 364 514 419 q 668 208 668 308 q 583 42 668 103 q 349 -18 499 -18 m 432 972 l 628 972 l 419 764 l 285 764 l 78 972 l 274 972 l 351 899 l 432 972 z "},"ş":{"ha":703,"x_min":32,"x_max":668,"o":"m 668 208 q 603 58 668 115 q 418 -14 538 0 l 401 -56 q 501 -97 464 -60 q 538 -196 538 -135 q 485 -302 538 -261 q 349 -343 433 -343 q 242 -324 290 -343 q 163 -271 193 -306 l 236 -186 q 336 -224 281 -224 q 381 -212 364 -224 q 397 -181 397 -200 q 381 -147 397 -160 q 335 -135 364 -135 q 286 -146 306 -135 l 244 -107 l 281 -14 q 32 74 142 0 l 115 224 q 231 176 165 193 q 363 160 297 160 q 453 208 453 160 q 428 246 453 233 q 344 263 403 258 q 137 328 214 269 q 60 481 60 386 q 143 644 60 583 q 368 704 226 704 q 522 685 449 704 q 647 631 594 665 l 563 485 q 378 529 485 529 q 272 479 272 529 q 294 447 272 458 q 367 431 315 436 q 591 364 514 419 q 668 208 668 308 z "},"ŝ":{"ha":703,"x_min":32,"x_max":668,"o":"m 349 -18 q 32 74 167 -18 l 115 224 q 231 176 165 193 q 363 160 297 160 q 453 208 453 160 q 428 246 453 233 q 344 263 403 258 q 137 328 214 269 q 60 481 60 386 q 143 644 60 583 q 368 704 226 704 q 522 685 449 704 q 647 631 594 665 l 563 485 q 378 529 485 529 q 272 479 272 529 q 294 447 272 458 q 367 431 315 436 q 591 364 514 419 q 668 208 668 308 q 583 42 668 103 q 349 -18 499 -18 m 628 764 l 432 764 l 351 838 l 274 764 l 78 764 l 285 972 l 419 972 l 628 764 z "},"ș":{"ha":703,"x_min":32,"x_max":668,"o":"m 349 -18 q 32 74 167 -18 l 115 224 q 231 176 165 193 q 363 160 297 160 q 453 208 453 160 q 428 246 453 233 q 344 263 403 258 q 137 328 214 269 q 60 481 60 386 q 143 644 60 583 q 368 704 226 704 q 522 685 449 704 q 647 631 594 665 l 563 485 q 378 529 485 529 q 272 479 272 529 q 294 447 272 458 q 367 431 315 436 q 591 364 514 419 q 668 208 668 308 q 583 42 668 103 q 349 -18 499 -18 m 358 -72 q 435 -99 406 -72 q 464 -168 464 -126 q 450 -241 464 -200 q 396 -371 436 -282 l 290 -371 l 317 -243 q 269 -217 286 -237 q 253 -165 253 -197 q 283 -99 253 -125 q 358 -72 313 -72 z "},"ß":{"ha":861,"x_min":82,"x_max":819,"o":"m 640 533 q 772 436 725 504 q 819 274 819 368 q 734 61 819 138 q 494 -15 649 -15 q 375 -3 450 -15 l 375 190 q 458 178 417 178 q 565 210 528 178 q 603 306 603 243 q 559 402 603 369 q 431 435 515 435 l 386 435 l 386 614 l 421 614 q 511 638 479 614 q 543 704 543 663 q 510 772 543 747 q 422 797 478 797 q 300 675 300 797 l 300 0 l 82 0 l 82 697 q 170 910 82 835 q 419 986 258 986 q 595 954 519 986 q 712 863 671 922 q 753 728 753 804 q 723 610 753 661 q 640 533 693 558 z "},"ſ":{"ha":481,"x_min":29,"x_max":625,"o":"m 431 994 q 537 978 486 994 q 625 928 588 961 l 554 788 q 457 822 510 822 q 394 797 418 822 q 371 722 371 772 l 371 0 l 150 0 l 150 511 l 29 511 l 29 686 l 150 686 l 150 722 q 190 875 150 814 q 293 965 229 936 q 431 994 357 994 z "},"t":{"ha":589,"x_min":32,"x_max":574,"o":"m 574 26 q 392 -14 493 -14 q 214 49 279 -14 q 149 253 149 113 l 149 513 l 32 513 l 32 686 l 149 686 l 149 857 l 365 881 l 365 686 l 536 686 l 536 513 l 365 513 l 365 253 q 386 191 365 211 q 443 171 407 171 q 522 190 483 171 l 574 26 z "},"ŧ":{"ha":589,"x_min":32,"x_max":574,"o":"m 574 26 q 392 -14 493 -14 q 214 49 279 -14 q 149 253 149 113 l 149 292 l 54 292 l 54 425 l 149 425 l 149 521 l 32 521 l 32 686 l 149 686 l 149 857 l 365 881 l 365 686 l 536 686 l 536 521 l 365 521 l 365 425 l 490 425 l 490 292 l 365 292 l 365 253 q 386 191 365 211 q 443 171 407 171 q 522 194 488 171 l 574 26 z "},"ť":{"ha":703,"x_min":32,"x_max":789,"o":"m 596 899 l 789 899 l 683 597 l 535 597 l 596 899 m 443 171 q 522 190 483 171 l 574 26 q 392 -14 493 -14 q 214 49 279 -14 q 149 253 149 113 l 149 513 l 32 513 l 32 686 l 149 686 l 149 857 l 365 881 l 365 686 l 497 686 l 497 513 l 365 513 l 365 253 q 386 191 365 211 q 443 171 407 171 z "},"ţ":{"ha":589,"x_min":32,"x_max":574,"o":"m 413 -56 q 512 -97 475 -60 q 549 -196 549 -135 q 497 -302 549 -261 q 360 -343 444 -343 q 253 -324 301 -343 q 174 -271 204 -306 l 247 -186 q 347 -224 292 -224 q 392 -212 375 -224 q 408 -181 408 -200 q 392 -147 408 -160 q 346 -135 375 -135 q 297 -146 317 -135 l 256 -107 l 296 0 q 149 253 149 46 l 149 513 l 32 513 l 32 686 l 149 686 l 149 857 l 365 881 l 365 686 l 536 686 l 536 513 l 365 513 l 365 253 q 386 191 365 211 q 443 171 407 171 q 522 190 483 171 l 574 26 q 431 -12 508 -6 l 413 -56 z "},"ț":{"ha":589,"x_min":32,"x_max":574,"o":"m 574 26 q 392 -14 493 -14 q 214 49 279 -14 q 149 253 149 113 l 149 513 l 32 513 l 32 686 l 149 686 l 149 857 l 365 881 l 365 686 l 536 686 l 536 513 l 365 513 l 365 253 q 386 191 365 211 q 443 171 407 171 q 522 190 483 171 l 574 26 m 371 -72 q 447 -99 418 -72 q 476 -168 476 -126 q 463 -241 476 -200 q 408 -371 449 -282 l 303 -371 l 329 -243 q 282 -217 299 -237 q 265 -165 265 -197 q 295 -99 265 -125 q 371 -72 325 -72 z "},"u":{"ha":853,"x_min":74,"x_max":771,"o":"m 771 686 l 771 0 l 582 0 l 568 79 q 473 9 529 33 q 350 -15 417 -15 q 149 68 224 -15 q 74 299 74 151 l 74 686 l 292 686 l 292 311 q 324 207 292 244 q 414 169 357 169 q 515 213 476 169 q 553 326 553 257 l 553 686 l 771 686 z "},"ú":{"ha":853,"x_min":74,"x_max":771,"o":"m 771 686 l 771 0 l 582 0 l 568 79 q 473 9 529 33 q 350 -15 417 -15 q 149 68 224 -15 q 74 299 74 151 l 74 686 l 292 686 l 292 311 q 324 207 292 244 q 414 169 357 169 q 515 213 476 169 q 553 326 553 257 l 553 686 l 771 686 m 410 972 l 644 972 l 499 767 l 317 767 l 410 972 z "},"ŭ":{"ha":853,"x_min":74,"x_max":771,"o":"m 771 686 l 771 0 l 582 0 l 568 79 q 473 9 529 33 q 350 -15 417 -15 q 149 68 224 -15 q 74 299 74 151 l 74 686 l 292 686 l 292 311 q 324 207 292 244 q 414 169 357 169 q 515 213 476 169 q 553 326 553 257 l 553 686 l 771 686 m 422 765 q 254 820 315 765 q 193 972 193 875 l 357 972 q 375 924 357 942 q 422 906 393 906 q 471 924 453 906 q 489 972 489 942 l 651 972 q 590 820 651 875 q 422 765 529 765 z "},"û":{"ha":853,"x_min":74,"x_max":771,"o":"m 771 686 l 771 0 l 582 0 l 568 79 q 473 9 529 33 q 350 -15 417 -15 q 149 68 224 -15 q 74 299 74 151 l 74 686 l 292 686 l 292 311 q 324 207 292 244 q 414 169 357 169 q 515 213 476 169 q 553 326 553 257 l 553 686 l 771 686 m 699 764 l 503 764 l 422 838 l 344 764 l 149 764 l 356 972 l 490 972 l 699 764 z "},"ü":{"ha":853,"x_min":74,"x_max":771,"o":"m 771 686 l 771 0 l 582 0 l 568 79 q 473 9 529 33 q 350 -15 417 -15 q 149 68 224 -15 q 74 299 74 151 l 74 686 l 292 686 l 292 311 q 324 207 292 244 q 414 169 357 169 q 515 213 476 169 q 553 326 553 257 l 553 686 l 771 686 m 268 769 q 190 798 222 769 q 157 878 157 826 q 190 956 157 928 q 268 985 224 985 q 347 956 314 985 q 379 878 379 928 q 347 798 379 826 q 268 769 314 769 m 576 769 q 498 798 531 769 q 465 878 465 826 q 499 956 465 928 q 576 985 532 985 q 656 956 622 985 q 689 878 689 928 q 656 798 689 826 q 576 769 622 769 z "},"ù":{"ha":853,"x_min":74,"x_max":771,"o":"m 771 686 l 771 0 l 582 0 l 568 79 q 473 9 529 33 q 350 -15 417 -15 q 149 68 224 -15 q 74 299 74 151 l 74 686 l 292 686 l 292 311 q 324 207 292 244 q 414 169 357 169 q 515 213 476 169 q 553 326 553 257 l 553 686 l 771 686 m 347 767 l 201 972 l 436 972 l 529 767 l 347 767 z "},"ű":{"ha":853,"x_min":74,"x_max":786,"o":"m 771 686 l 771 0 l 582 0 l 568 79 q 473 9 529 33 q 350 -15 417 -15 q 149 68 224 -15 q 74 299 74 151 l 74 686 l 292 686 l 292 311 q 324 207 292 244 q 414 169 357 169 q 515 213 476 169 q 553 326 553 257 l 553 686 l 771 686 m 279 972 l 494 972 l 364 767 l 185 767 l 279 972 m 569 972 l 786 972 l 636 767 l 454 767 l 569 972 z "},"ū":{"ha":853,"x_min":74,"x_max":771,"o":"m 771 686 l 771 0 l 582 0 l 568 79 q 473 9 529 33 q 350 -15 417 -15 q 149 68 224 -15 q 74 299 74 151 l 74 686 l 292 686 l 292 311 q 324 207 292 244 q 414 169 357 169 q 515 213 476 169 q 553 326 553 257 l 553 686 l 771 686 m 215 943 l 632 943 l 632 786 l 215 786 l 215 943 z "},"ų":{"ha":853,"x_min":74,"x_max":835,"o":"m 835 -196 q 661 -261 761 -261 q 552 -228 592 -261 q 513 -136 513 -194 q 582 3 513 -58 l 568 79 q 473 9 529 33 q 350 -15 417 -15 q 149 68 224 -15 q 74 299 74 151 l 74 686 l 292 686 l 292 311 q 324 207 292 244 q 414 169 357 169 q 515 213 476 169 q 553 326 553 257 l 553 686 l 771 686 l 771 0 q 675 -86 675 -43 q 686 -112 675 -101 q 715 -122 697 -122 q 745 -116 729 -122 q 774 -100 761 -110 l 835 -196 z "},"ů":{"ha":853,"x_min":74,"x_max":771,"o":"m 771 686 l 771 0 l 582 0 l 568 79 q 473 9 529 33 q 350 -15 417 -15 q 149 68 224 -15 q 74 299 74 151 l 74 686 l 292 686 l 292 311 q 324 207 292 244 q 414 169 357 169 q 515 213 476 169 q 553 326 553 257 l 553 686 l 771 686 m 422 749 q 283 797 338 749 q 229 919 229 844 q 283 1044 229 996 q 422 1092 338 1092 q 563 1044 508 1092 q 617 919 617 996 q 563 797 617 844 q 422 749 508 749 m 422 864 q 465 879 449 864 q 481 919 481 894 q 465 960 481 944 q 422 976 449 976 q 380 960 396 976 q 364 919 364 944 q 380 880 364 896 q 422 864 396 864 z "},"ũ":{"ha":853,"x_min":74,"x_max":771,"o":"m 771 686 l 771 0 l 582 0 l 568 79 q 473 9 529 33 q 350 -15 417 -15 q 149 68 224 -15 q 74 299 74 151 l 74 686 l 292 686 l 292 311 q 324 207 292 244 q 414 169 357 169 q 515 213 476 169 q 553 326 553 257 l 553 686 l 771 686 m 517 772 q 415 801 468 772 q 347 825 372 825 q 286 779 306 825 l 174 856 q 237 949 194 915 q 332 982 279 982 q 426 954 379 982 q 496 931 460 931 q 557 978 538 931 l 668 906 q 609 806 649 839 q 517 772 569 772 z "},"v":{"ha":810,"x_min":3,"x_max":807,"o":"m 575 686 l 807 686 l 517 0 l 294 0 l 3 686 l 240 686 l 322 479 l 407 231 l 492 479 l 575 686 z "},"w":{"ha":1151,"x_min":3,"x_max":1149,"o":"m 918 686 l 1149 686 l 919 0 l 713 0 l 656 168 l 576 389 l 497 168 l 440 0 l 232 0 l 3 686 l 233 686 l 294 475 l 347 264 l 504 686 l 649 686 l 806 263 l 858 475 l 918 686 z "},"ẃ":{"ha":1151,"x_min":3,"x_max":1149,"o":"m 918 686 l 1149 686 l 919 0 l 713 0 l 656 168 l 576 389 l 497 168 l 440 0 l 232 0 l 3 686 l 233 686 l 294 475 l 347 264 l 504 686 l 649 686 l 806 263 l 858 475 l 918 686 m 564 972 l 799 972 l 653 767 l 471 767 l 564 972 z "},"ŵ":{"ha":1151,"x_min":3,"x_max":1149,"o":"m 918 686 l 1149 686 l 919 0 l 713 0 l 656 168 l 576 389 l 497 168 l 440 0 l 232 0 l 3 686 l 233 686 l 294 475 l 347 264 l 504 686 l 649 686 l 806 263 l 858 475 l 918 686 m 851 764 l 656 764 l 575 838 l 497 764 l 301 764 l 508 972 l 643 972 l 851 764 z "},"ẅ":{"ha":1151,"x_min":3,"x_max":1149,"o":"m 918 686 l 1149 686 l 919 0 l 713 0 l 656 168 l 576 389 l 497 168 l 440 0 l 232 0 l 3 686 l 233 686 l 294 475 l 347 264 l 504 686 l 649 686 l 806 263 l 858 475 l 918 686 m 422 769 q 344 798 376 769 q 311 878 311 826 q 344 956 311 928 q 422 985 378 985 q 501 956 468 985 q 533 878 533 928 q 501 798 533 826 q 422 769 468 769 m 731 769 q 652 798 685 769 q 619 878 619 826 q 653 956 619 928 q 731 985 686 985 q 810 956 776 985 q 843 878 843 928 q 810 798 843 826 q 731 769 776 769 z "},"ẁ":{"ha":1151,"x_min":3,"x_max":1149,"o":"m 918 686 l 1149 686 l 919 0 l 713 0 l 656 168 l 576 389 l 497 168 l 440 0 l 232 0 l 3 686 l 233 686 l 294 475 l 347 264 l 504 686 l 649 686 l 806 263 l 858 475 l 918 686 m 500 767 l 354 972 l 589 972 l 682 767 l 500 767 z "},"x":{"ha":763,"x_min":4,"x_max":758,"o":"m 528 349 l 758 0 l 508 0 l 449 99 l 381 214 l 313 99 l 250 0 l 4 0 l 235 349 l 22 686 l 268 686 l 332 582 l 382 488 l 435 582 l 499 686 l 739 686 l 528 349 z "},"y":{"ha":799,"x_min":3,"x_max":796,"o":"m 560 686 l 796 686 l 368 -297 l 136 -297 l 269 10 l 3 686 l 238 686 l 317 469 l 392 246 l 472 469 l 560 686 z "},"ý":{"ha":799,"x_min":3,"x_max":796,"o":"m 560 686 l 796 686 l 368 -297 l 136 -297 l 269 10 l 3 686 l 238 686 l 317 469 l 392 246 l 472 469 l 560 686 m 385 972 l 619 972 l 474 767 l 292 767 l 385 972 z "},"ŷ":{"ha":799,"x_min":3,"x_max":796,"o":"m 560 686 l 796 686 l 368 -297 l 136 -297 l 269 10 l 3 686 l 238 686 l 317 469 l 392 246 l 472 469 l 560 686 m 674 764 l 478 764 l 397 838 l 319 764 l 124 764 l 331 972 l 465 972 l 674 764 z "},"ÿ":{"ha":799,"x_min":3,"x_max":796,"o":"m 560 686 l 796 686 l 368 -297 l 136 -297 l 269 10 l 3 686 l 238 686 l 317 469 l 392 246 l 472 469 l 560 686 m 243 769 q 165 798 197 769 q 132 878 132 826 q 165 956 132 928 q 243 985 199 985 q 322 956 289 985 q 354 878 354 928 q 322 798 354 826 q 243 769 289 769 m 551 769 q 473 798 506 769 q 440 878 440 826 q 474 956 440 928 q 551 985 507 985 q 631 956 597 985 q 664 878 664 928 q 631 798 664 826 q 551 769 597 769 z "},"ỳ":{"ha":799,"x_min":3,"x_max":796,"o":"m 560 686 l 796 686 l 368 -297 l 136 -297 l 269 10 l 3 686 l 238 686 l 317 469 l 392 246 l 472 469 l 560 686 m 322 767 l 176 972 l 411 972 l 504 767 l 322 767 z "},"z":{"ha":696,"x_min":35,"x_max":649,"o":"m 346 190 l 649 190 l 649 0 l 35 0 l 35 72 l 329 501 l 61 501 l 61 686 l 639 686 l 639 617 l 346 190 z "},"ź":{"ha":696,"x_min":35,"x_max":649,"o":"m 346 190 l 649 190 l 649 0 l 35 0 l 35 72 l 329 501 l 61 501 l 61 686 l 639 686 l 639 617 l 346 190 m 338 972 l 572 972 l 426 767 l 244 767 l 338 972 z "},"ž":{"ha":696,"x_min":35,"x_max":649,"o":"m 346 190 l 649 190 l 649 0 l 35 0 l 35 72 l 329 501 l 61 501 l 61 686 l 639 686 l 639 617 l 346 190 m 431 972 l 626 972 l 418 764 l 283 764 l 76 972 l 272 972 l 350 899 l 431 972 z "},"ż":{"ha":696,"x_min":35,"x_max":649,"o":"m 346 190 l 649 190 l 649 0 l 35 0 l 35 72 l 329 501 l 61 501 l 61 686 l 639 686 l 639 617 l 346 190 m 351 769 q 267 800 300 769 q 233 878 233 831 q 267 956 233 925 q 351 986 300 986 q 435 956 403 986 q 468 878 468 925 q 435 800 468 831 q 351 769 403 769 z "},"ﬁ":{"ha":957,"x_min":29,"x_max":894,"o":"m 875 0 l 657 0 l 657 511 l 368 511 l 368 0 l 150 0 l 150 511 l 29 511 l 29 686 l 150 686 l 150 722 q 189 876 150 814 q 292 967 228 938 q 433 996 357 996 q 592 957 525 996 l 528 810 q 461 824 489 824 q 393 798 418 824 q 368 724 368 772 l 368 686 l 875 686 l 875 0 m 767 754 q 674 788 710 754 q 639 872 639 821 q 675 958 639 925 q 767 992 711 992 q 858 958 822 992 q 894 872 894 925 q 859 788 894 821 q 767 754 824 754 z "},"ﬂ":{"ha":953,"x_min":29,"x_max":871,"o":"m 871 972 l 871 0 l 653 0 l 653 788 q 510 824 593 824 q 402 793 436 824 q 368 697 368 763 l 368 683 l 539 683 l 539 511 l 368 511 l 368 0 l 150 0 l 150 511 l 29 511 l 29 686 l 150 686 l 150 718 q 192 865 150 801 q 310 962 235 928 q 481 996 385 996 q 653 967 574 996 l 653 972 l 871 972 z "},"ª":{"ha":650,"x_min":54,"x_max":568,"o":"m 272 506 q 113 569 172 506 q 54 743 54 633 q 113 917 54 853 q 272 981 172 981 q 424 918 369 981 l 431 972 l 567 972 l 567 515 l 431 515 l 424 567 q 272 506 369 506 m 304 842 q 235 815 261 842 q 208 743 208 788 q 235 672 208 699 q 304 644 261 644 q 374 672 347 644 q 400 743 400 699 q 374 815 400 788 q 304 842 347 842 m 82 436 l 568 436 l 568 301 l 82 301 l 82 436 z "},"º":{"ha":613,"x_min":54,"x_max":556,"o":"m 304 506 q 121 569 188 506 q 54 743 54 632 q 121 917 54 854 q 304 981 188 981 q 488 917 421 981 q 556 743 556 853 q 488 569 556 633 q 304 506 421 506 m 304 644 q 374 671 349 644 q 400 743 400 697 q 374 815 400 789 q 304 842 349 842 q 235 815 261 842 q 208 743 208 789 q 235 671 208 697 q 304 644 261 644 m 67 436 l 543 436 l 543 301 l 67 301 l 67 436 z "},"А":{"ha":1093,"x_min":-10,"x_max":1103,"o":"m 857 0 l 785 175 l 306 175 l 233 0 l -10 0 l 426 972 l 669 972 l 1103 0 l 857 0 m 547 754 l 388 371 l 704 371 l 547 754 z "},"Б":{"ha":1006,"x_min":106,"x_max":953,"o":"m 590 607 q 860 529 767 607 q 953 306 953 451 q 859 78 953 156 q 590 0 765 0 l 106 0 l 106 972 l 865 972 l 865 776 l 328 776 l 328 607 l 590 607 m 596 193 q 699 222 664 193 q 733 307 733 251 q 596 419 733 419 l 328 419 l 328 193 l 596 193 z "},"В":{"ha":1008,"x_min":106,"x_max":954,"o":"m 800 508 q 913 415 871 478 q 954 272 954 351 q 856 72 954 144 q 586 0 758 0 l 106 0 l 106 972 l 586 972 q 833 903 743 972 q 924 714 924 833 q 891 590 924 643 q 800 508 858 536 m 329 785 l 329 592 l 590 592 q 674 617 644 592 q 703 688 703 642 q 673 759 703 733 q 590 785 643 785 l 329 785 m 601 192 q 697 221 663 192 q 731 301 731 250 q 697 383 731 354 q 601 411 663 411 l 329 411 l 329 192 l 601 192 z "},"Г":{"ha":811,"x_min":106,"x_max":774,"o":"m 774 972 l 774 774 l 333 774 l 333 0 l 106 0 l 106 972 l 774 972 z "},"Ѓ":{"ha":811,"x_min":106,"x_max":774,"o":"m 774 972 l 774 774 l 333 774 l 333 0 l 106 0 l 106 972 l 774 972 m 446 1260 l 690 1260 l 535 1060 l 343 1060 l 446 1260 z "},"Ґ":{"ha":811,"x_min":106,"x_max":774,"o":"m 561 1189 l 774 1189 l 774 776 l 333 776 l 333 0 l 106 0 l 106 972 l 561 972 l 561 1189 z "},"Д":{"ha":1176,"x_min":17,"x_max":1147,"o":"m 1147 206 l 1147 -200 l 932 -200 l 932 0 l 232 0 l 232 -200 l 17 -200 l 17 206 l 129 206 q 205 320 182 250 q 235 535 228 390 l 260 972 l 992 972 l 992 206 l 1147 206 m 458 513 q 433 316 453 392 q 379 190 414 240 l 767 190 l 767 767 l 471 767 l 458 513 z "},"Е":{"ha":925,"x_min":106,"x_max":863,"o":"m 326 192 l 863 192 l 863 0 l 106 0 l 106 972 l 847 972 l 847 782 l 326 782 l 326 585 l 819 585 l 819 401 l 326 401 l 326 192 z "},"Ѐ":{"ha":925,"x_min":106,"x_max":863,"o":"m 326 192 l 863 192 l 863 0 l 106 0 l 106 972 l 847 972 l 847 782 l 326 782 l 326 585 l 819 585 l 819 401 l 326 401 l 326 192 m 403 1060 l 247 1260 l 492 1260 l 594 1060 l 403 1060 z "},"Ё":{"ha":925,"x_min":106,"x_max":863,"o":"m 326 192 l 863 192 l 863 0 l 106 0 l 106 972 l 847 972 l 847 782 l 326 782 l 326 585 l 819 585 l 819 401 l 326 401 l 326 192 m 328 1056 q 245 1086 279 1056 q 211 1169 211 1117 q 245 1252 211 1222 q 328 1282 279 1282 q 410 1252 375 1282 q 444 1169 444 1222 q 410 1086 444 1117 q 328 1056 375 1056 m 651 1056 q 569 1086 604 1056 q 535 1169 535 1117 q 569 1252 535 1222 q 651 1282 604 1282 q 734 1252 700 1282 q 768 1169 768 1222 q 734 1086 768 1117 q 651 1056 700 1056 z "},"Ж":{"ha":1404,"x_min":-19,"x_max":1424,"o":"m 1424 0 l 1140 0 l 813 392 l 813 0 l 592 0 l 592 392 l 264 0 l -19 0 l 399 494 l 15 972 l 290 972 l 592 589 l 592 972 l 813 972 l 813 589 l 1114 972 l 1388 972 l 1001 499 l 1424 0 z "},"З":{"ha":890,"x_min":22,"x_max":835,"o":"m 686 504 q 795 412 756 474 q 835 268 835 350 q 787 114 835 179 q 650 13 739 49 q 440 -24 561 -24 q 212 15 322 -24 q 22 122 101 54 l 131 279 q 277 199 204 225 q 432 174 350 174 q 567 206 518 174 q 615 293 615 238 q 575 374 615 344 q 467 404 535 404 l 247 404 l 247 585 l 464 585 q 556 613 522 585 q 590 690 590 642 q 548 774 590 743 q 429 804 506 804 q 150 710 283 804 l 42 858 q 224 960 121 924 q 442 996 328 996 q 633 960 550 996 q 760 861 715 925 q 806 714 806 797 q 774 588 806 643 q 686 504 743 533 z "},"И":{"ha":1081,"x_min":106,"x_max":974,"o":"m 768 972 l 974 972 l 974 0 l 747 0 l 747 339 l 751 606 l 313 0 l 106 0 l 106 972 l 332 972 l 332 628 l 329 364 l 768 972 z "},"Й":{"ha":1081,"x_min":106,"x_max":974,"o":"m 768 972 l 974 972 l 974 0 l 747 0 l 747 339 l 751 606 l 313 0 l 106 0 l 106 972 l 332 972 l 332 628 l 329 364 l 768 972 m 551 1046 q 300 1254 342 1046 l 438 1293 q 475 1222 447 1244 q 551 1200 503 1200 q 627 1222 600 1200 q 665 1293 654 1244 l 801 1254 q 551 1046 763 1046 z "},"Ѝ":{"ha":1081,"x_min":106,"x_max":974,"o":"m 768 972 l 974 972 l 974 0 l 747 0 l 747 339 l 751 606 l 313 0 l 106 0 l 106 972 l 332 972 l 332 628 l 329 364 l 768 972 m 464 1060 l 308 1260 l 553 1260 l 656 1060 l 464 1060 z "},"К":{"ha":950,"x_min":106,"x_max":969,"o":"m 969 0 l 674 0 l 332 386 l 332 0 l 106 0 l 106 972 l 332 972 l 332 592 l 651 972 l 932 972 l 522 496 l 969 0 z "},"Ќ":{"ha":950,"x_min":106,"x_max":969,"o":"m 969 0 l 674 0 l 332 386 l 332 0 l 106 0 l 106 972 l 332 972 l 332 592 l 651 972 l 932 972 l 522 496 l 969 0 m 468 1260 l 713 1260 l 557 1060 l 365 1060 l 468 1260 z "},"Л":{"ha":1094,"x_min":25,"x_max":989,"o":"m 989 972 l 989 0 l 763 0 l 763 764 l 451 764 l 438 478 q 383 211 429 313 q 259 58 336 110 q 68 -17 182 6 l 25 189 q 129 235 92 204 q 188 331 167 265 q 217 518 210 397 l 242 972 l 989 972 z "},"М":{"ha":1283,"x_min":106,"x_max":1178,"o":"m 974 972 l 1178 972 l 1178 0 l 951 0 l 951 608 l 665 258 l 621 258 l 332 610 l 332 0 l 106 0 l 106 972 l 310 972 l 642 558 l 974 972 z "},"Н":{"ha":1079,"x_min":106,"x_max":972,"o":"m 746 972 l 972 972 l 972 0 l 746 0 l 746 390 l 333 390 l 333 0 l 106 0 l 106 972 l 333 972 l 333 596 l 746 596 l 746 972 z "},"О":{"ha":1147,"x_min":50,"x_max":1097,"o":"m 574 -24 q 298 40 417 -24 q 115 218 179 103 q 50 486 50 333 q 115 754 50 639 q 298 933 179 869 q 574 996 417 996 q 849 933 731 996 q 1033 754 968 869 q 1097 486 1097 639 q 1033 218 1097 333 q 849 40 968 103 q 574 -24 731 -24 m 574 179 q 728 217 661 179 q 833 325 796 256 q 869 486 869 394 q 833 647 869 578 q 728 755 796 717 q 574 793 661 793 q 419 755 486 793 q 316 647 353 717 q 279 486 279 578 q 316 325 279 394 q 419 217 353 256 q 574 179 486 179 z "},"П":{"ha":1086,"x_min":106,"x_max":981,"o":"m 106 972 l 981 972 l 981 0 l 746 0 l 746 763 l 342 763 l 342 0 l 106 0 l 106 972 z "},"Р":{"ha":969,"x_min":106,"x_max":943,"o":"m 571 972 q 767 930 683 972 q 897 808 851 888 q 943 624 943 729 q 897 439 943 518 q 767 317 851 360 q 571 275 683 275 l 333 275 l 333 0 l 106 0 l 106 972 l 571 972 m 560 474 q 674 514 632 474 q 717 622 717 554 q 674 731 717 690 q 560 771 632 771 l 332 771 l 332 474 l 560 474 z "},"С":{"ha":978,"x_min":50,"x_max":953,"o":"m 574 -22 q 298 42 417 -22 q 115 221 179 106 q 50 486 50 336 q 116 752 50 636 q 300 931 182 868 q 569 994 418 994 q 939 843 785 994 l 799 703 q 575 792 706 792 q 420 753 488 792 q 316 646 353 715 q 279 486 279 576 q 316 326 279 396 q 420 219 353 257 q 575 181 488 181 q 708 206 644 181 q 819 278 772 231 l 953 129 q 574 -22 796 -22 z "},"Т":{"ha":864,"x_min":22,"x_max":843,"o":"m 843 972 l 843 774 l 546 774 l 546 0 l 318 0 l 318 774 l 22 774 l 22 972 l 843 972 z "},"У":{"ha":1001,"x_min":10,"x_max":1011,"o":"m 1011 972 l 640 232 q 546 78 592 133 q 445 0 500 24 q 313 -24 390 -24 q 207 -12 257 -24 q 119 22 157 0 l 197 199 q 283 178 239 178 q 400 251 360 178 l 408 265 l 10 972 l 276 972 l 431 685 l 525 489 l 617 685 l 756 972 l 1011 972 z "},"Ў":{"ha":1001,"x_min":10,"x_max":1011,"o":"m 1011 972 l 640 232 q 546 78 592 133 q 445 0 500 24 q 313 -24 390 -24 q 207 -12 257 -24 q 119 22 157 0 l 197 199 q 283 178 239 178 q 400 251 360 178 l 408 265 l 10 972 l 276 972 l 431 685 l 525 489 l 617 685 l 756 972 l 1011 972 m 521 1046 q 269 1254 311 1046 l 407 1293 q 444 1222 417 1244 q 521 1200 472 1200 q 597 1222 569 1200 q 635 1293 624 1244 l 771 1254 q 521 1046 732 1046 z "},"Ф":{"ha":1264,"x_min":50,"x_max":1214,"o":"m 1214 493 q 1157 269 1214 365 q 994 121 1100 174 q 746 65 889 68 l 746 -57 l 518 -57 l 518 65 q 269 121 375 68 q 107 269 164 174 q 50 493 50 365 q 107 713 50 618 q 269 860 164 807 q 518 914 375 913 l 518 1032 l 746 1032 l 746 914 q 994 860 889 913 q 1157 713 1100 807 q 1214 493 1214 618 m 267 493 q 335 319 267 382 q 526 256 403 257 l 526 726 q 338 662 408 725 q 267 493 267 599 m 736 256 q 928 319 860 257 q 997 493 997 382 q 926 662 997 599 q 736 726 856 725 l 736 256 z "},"Х":{"ha":964,"x_min":-3,"x_max":967,"o":"m 632 496 l 967 0 l 690 0 l 578 169 l 482 326 l 389 171 l 276 0 l -3 0 l 326 486 l 15 972 l 283 972 l 386 808 l 478 650 l 574 808 l 679 972 l 949 972 l 632 496 z "},"Ч":{"ha":1021,"x_min":79,"x_max":915,"o":"m 915 972 l 915 0 l 688 0 l 688 339 q 446 274 585 274 q 174 378 268 274 q 79 675 79 482 l 79 972 l 306 972 l 306 690 q 490 474 306 474 q 637 525 586 474 q 688 672 688 576 l 688 972 l 915 972 z "},"Ц":{"ha":1156,"x_min":106,"x_max":1126,"o":"m 972 206 l 1126 206 l 1126 -200 l 911 -200 l 911 0 l 106 0 l 106 972 l 332 972 l 332 206 l 747 206 l 747 972 l 972 972 l 972 206 z "},"Ш":{"ha":1588,"x_min":106,"x_max":1481,"o":"m 1257 972 l 1481 972 l 1481 0 l 106 0 l 106 972 l 331 972 l 331 206 l 683 206 l 683 972 l 904 972 l 904 206 l 1257 206 l 1257 972 z "},"Щ":{"ha":1663,"x_min":106,"x_max":1633,"o":"m 1481 206 l 1633 206 l 1633 -200 l 1418 -200 l 1418 0 l 106 0 l 106 972 l 331 972 l 331 206 l 683 206 l 683 972 l 904 972 l 904 206 l 1257 206 l 1257 972 l 1481 972 l 1481 206 z "},"Џ":{"ha":1079,"x_min":106,"x_max":972,"o":"m 972 972 l 972 0 l 650 0 l 650 -200 l 431 -200 l 431 0 l 106 0 l 106 972 l 333 972 l 333 206 l 746 206 l 746 972 l 972 972 z "},"Ь":{"ha":1014,"x_min":106,"x_max":944,"o":"m 569 675 q 847 589 750 675 q 944 343 944 503 q 845 90 944 179 q 563 0 746 0 l 106 0 l 106 972 l 333 972 l 333 675 l 569 675 m 553 201 q 676 238 633 201 q 718 339 718 274 q 676 440 718 404 q 553 475 633 475 l 332 475 l 332 201 l 553 201 z "},"Ъ":{"ha":1174,"x_min":22,"x_max":1106,"o":"m 729 675 q 1008 589 910 675 q 1106 343 1106 503 q 1006 90 1106 179 q 722 0 906 0 l 267 0 l 267 776 l 22 776 l 22 972 l 493 972 l 493 675 l 729 675 m 713 201 q 835 238 793 201 q 878 339 878 274 q 835 440 878 404 q 713 475 793 475 l 492 475 l 492 201 l 713 201 z "},"Ы":{"ha":1386,"x_min":106,"x_max":1279,"o":"m 569 675 q 847 589 750 675 q 944 343 944 503 q 845 90 944 179 q 563 0 746 0 l 106 0 l 106 972 l 333 972 l 333 675 l 569 675 m 553 201 q 676 238 633 201 q 718 339 718 274 q 676 440 718 404 q 553 475 633 475 l 332 475 l 332 201 l 553 201 m 1051 972 l 1279 972 l 1279 0 l 1051 0 l 1051 972 z "},"Љ":{"ha":1636,"x_min":25,"x_max":1567,"o":"m 1192 675 q 1469 589 1372 675 q 1567 343 1567 503 q 1467 90 1567 179 q 1185 0 1368 0 l 746 0 l 746 764 l 451 764 l 438 478 q 383 211 429 313 q 259 58 336 110 q 68 -17 182 6 l 25 189 q 129 235 92 204 q 188 331 167 265 q 217 518 210 397 l 242 972 l 974 972 l 974 675 l 1192 675 m 1175 201 q 1298 238 1256 201 q 1340 339 1340 274 q 1298 440 1340 404 q 1175 475 1256 475 l 972 475 l 972 201 l 1175 201 z "},"Њ":{"ha":1589,"x_min":106,"x_max":1521,"o":"m 1160 644 q 1425 563 1329 644 q 1521 329 1521 481 q 1423 87 1521 174 q 1153 0 1325 0 l 714 0 l 714 422 l 333 422 l 333 0 l 106 0 l 106 972 l 333 972 l 333 628 l 714 628 l 714 972 l 938 972 l 938 644 l 1160 644 m 1143 201 q 1256 233 1217 201 q 1294 325 1294 264 q 1256 415 1294 385 q 1143 444 1217 444 l 938 444 l 938 201 l 1143 201 z "},"Ѕ":{"ha":915,"x_min":44,"x_max":875,"o":"m 465 -22 q 235 14 346 -22 q 44 115 125 50 l 163 281 q 464 179 292 179 q 601 208 550 179 q 651 288 651 238 q 604 361 651 335 q 454 399 557 388 q 163 492 256 421 q 71 694 71 563 q 121 851 71 783 q 261 957 171 919 q 469 994 351 994 q 667 965 571 994 q 838 883 764 936 l 731 724 q 479 803 617 803 q 344 775 394 803 q 293 700 293 747 q 337 629 293 654 q 483 592 381 604 q 778 494 681 569 q 875 286 875 418 q 824 124 875 194 q 679 16 772 54 q 465 -22 586 -22 z "},"Є":{"ha":978,"x_min":50,"x_max":953,"o":"m 953 129 q 569 -22 796 -22 q 297 41 415 -22 q 115 219 179 104 q 50 486 50 335 q 115 751 50 636 q 299 931 181 867 q 569 994 417 994 q 942 840 786 994 l 800 707 q 576 799 706 799 q 395 742 472 799 q 288 592 318 686 l 703 592 l 703 396 l 283 396 q 387 234 308 294 q 576 174 465 174 q 708 199 646 174 q 818 274 771 225 l 953 129 z "},"Э":{"ha":978,"x_min":26,"x_max":928,"o":"m 408 994 q 679 931 561 994 q 863 751 797 867 q 928 486 928 636 q 863 219 928 335 q 681 41 799 104 q 408 -22 563 -22 q 26 129 182 -22 l 160 274 q 269 200 207 226 q 401 174 332 174 q 592 234 513 174 q 696 396 671 294 l 275 396 l 275 592 l 692 592 q 584 742 661 686 q 401 799 507 799 q 178 707 272 799 l 36 840 q 408 994 194 994 z "},"І":{"ha":440,"x_min":106,"x_max":333,"o":"m 106 972 l 333 972 l 333 0 l 106 0 l 106 972 z "},"Ї":{"ha":440,"x_min":-58,"x_max":499,"o":"m 106 972 l 333 972 l 333 0 l 106 0 l 106 972 m 58 1056 q -24 1086 10 1056 q -58 1169 -58 1117 q -24 1252 -58 1222 q 58 1282 10 1282 q 140 1252 106 1282 q 175 1169 175 1222 q 140 1086 175 1117 q 58 1056 106 1056 m 382 1056 q 300 1086 335 1056 q 265 1169 265 1117 q 300 1252 265 1222 q 382 1282 335 1282 q 465 1252 431 1282 q 499 1169 499 1222 q 465 1086 499 1117 q 382 1056 431 1056 z "},"Ј":{"ha":983,"x_min":28,"x_max":893,"o":"m 893 972 l 893 413 q 840 183 893 281 q 688 33 786 86 q 458 -19 589 -19 q 142 93 256 -19 q 28 411 29 206 l 250 411 q 306 242 251 301 q 458 183 360 183 q 610 244 556 183 q 665 415 665 304 l 665 775 l 382 775 l 382 972 l 893 972 z "},"Ћ":{"ha":1139,"x_min":22,"x_max":1065,"o":"m 760 646 q 986 562 907 646 q 1065 322 1065 478 l 1065 0 l 838 0 l 838 321 q 801 424 838 388 q 696 461 764 461 q 589 417 631 461 q 547 306 547 374 l 547 0 l 321 0 l 321 778 l 22 778 l 22 972 l 843 972 l 843 788 l 547 788 l 547 569 q 760 646 635 646 z "},"Ю":{"ha":1556,"x_min":106,"x_max":1506,"o":"m 989 996 q 1260 933 1143 996 q 1441 754 1376 869 q 1506 486 1506 639 q 1441 218 1506 333 q 1260 40 1376 103 q 989 -24 1143 -24 q 742 28 850 -24 q 565 174 633 79 q 479 394 497 268 l 335 394 l 335 0 l 106 0 l 106 972 l 335 972 l 335 597 l 482 597 q 572 809 503 719 q 747 947 640 899 q 989 996 854 996 m 989 181 q 1139 219 1074 181 q 1240 326 1204 257 q 1276 486 1276 396 q 1240 646 1276 576 q 1139 753 1204 715 q 989 792 1074 792 q 839 753 904 792 q 738 646 774 715 q 701 486 701 576 q 738 326 701 396 q 839 219 774 257 q 989 181 904 181 z "},"Я":{"ha":1015,"x_min":25,"x_max":910,"o":"m 910 972 l 910 0 l 682 0 l 682 321 l 536 321 l 293 0 l 25 0 l 294 346 q 135 458 192 381 q 79 643 79 536 q 124 815 79 740 q 251 931 169 889 q 438 972 332 972 l 910 972 m 460 778 q 346 742 386 778 q 306 640 306 706 q 346 539 306 575 q 460 503 386 503 l 683 503 l 683 778 l 460 778 z "},"Ђ":{"ha":1124,"x_min":22,"x_max":1093,"o":"m 779 646 q 1010 564 928 646 q 1093 333 1093 482 q 1003 83 1093 174 q 746 -22 914 -8 l 706 167 q 822 215 782 176 q 861 318 861 253 q 822 419 861 382 q 714 456 782 456 q 592 413 638 456 q 547 299 547 371 l 547 0 l 319 0 l 319 775 l 22 775 l 22 972 l 843 972 l 843 785 l 547 785 l 547 569 q 779 646 640 646 z "},"Ӕ":{"ha":1428,"x_min":-42,"x_max":1365,"o":"m 896 192 l 1365 192 l 1365 0 l 683 0 l 683 175 l 326 175 l 214 0 l -42 0 l 585 972 l 1350 972 l 1350 782 l 896 782 l 896 585 l 1321 585 l 1321 401 l 896 401 l 896 192 m 449 376 l 683 376 l 683 614 l 685 757 l 596 607 l 449 376 z "},"а":{"ha":883,"x_min":43,"x_max":801,"o":"m 801 686 l 801 0 l 613 0 l 599 82 q 371 -14 511 -14 q 201 31 275 -14 q 85 158 126 76 q 43 343 43 239 q 85 528 43 447 q 201 655 126 610 q 371 700 275 700 q 499 676 440 700 q 599 606 557 651 l 613 686 l 801 686 m 422 169 q 540 217 494 169 q 586 343 586 265 q 540 469 586 421 q 422 517 494 517 q 305 468 350 517 q 260 343 260 419 q 305 218 260 267 q 422 169 350 169 z "},"б":{"ha":842,"x_min":44,"x_max":799,"o":"m 469 665 q 712 576 625 665 q 799 339 799 488 q 697 80 799 175 q 422 -15 596 -15 q 144 97 244 -15 q 44 426 44 210 l 44 454 q 156 809 44 676 q 476 974 267 942 q 604 1001 563 988 q 697 1043 646 1014 l 783 878 q 669 813 726 832 q 518 782 613 793 q 328 722 389 767 q 253 583 267 676 q 346 644 289 622 q 469 665 403 665 m 425 165 q 542 210 500 165 q 585 329 585 254 q 542 448 585 404 q 425 492 500 492 q 308 448 350 492 q 265 329 265 404 q 308 210 265 254 q 425 165 350 165 z "},"в":{"ha":781,"x_min":82,"x_max":733,"o":"m 628 353 q 705 289 676 332 q 733 194 733 246 q 667 52 733 104 q 488 0 601 0 l 82 0 l 82 686 l 485 686 q 651 636 589 686 q 713 503 713 586 q 690 411 713 450 q 628 353 668 372 m 496 478 q 479 518 496 503 q 432 533 463 533 l 292 533 l 292 424 l 432 424 q 479 438 463 424 q 496 478 496 453 m 443 157 q 515 215 515 157 q 443 272 515 272 l 292 272 l 292 157 l 443 157 z "},"г":{"ha":643,"x_min":82,"x_max":601,"o":"m 82 686 l 601 686 l 601 499 l 299 499 l 299 0 l 82 0 l 82 686 z "},"ѓ":{"ha":643,"x_min":82,"x_max":601,"o":"m 82 686 l 601 686 l 601 499 l 299 499 l 299 0 l 82 0 l 82 686 m 340 972 l 575 972 l 429 767 l 247 767 l 340 972 z "},"ґ":{"ha":643,"x_min":82,"x_max":601,"o":"m 413 833 l 601 833 l 601 499 l 299 499 l 299 0 l 82 0 l 82 686 l 413 686 l 413 833 z "},"д":{"ha":871,"x_min":18,"x_max":851,"o":"m 851 188 l 851 -172 l 646 -172 l 646 0 l 225 0 l 225 -172 l 18 -172 l 18 188 l 90 188 q 129 259 117 219 q 149 378 142 299 l 176 686 l 751 686 l 751 188 l 851 188 m 358 368 q 343 258 354 301 q 311 182 332 215 l 536 182 l 536 507 l 369 507 l 358 368 z "},"е":{"ha":815,"x_min":43,"x_max":776,"o":"m 413 701 q 607 659 525 701 q 733 540 689 617 q 776 360 776 463 q 769 278 776 326 l 265 278 q 322 192 275 225 q 443 160 369 160 q 543 175 494 160 q 626 218 592 190 l 740 96 q 602 13 682 42 q 432 -17 522 -17 q 225 27 313 -17 q 90 151 138 71 q 43 342 43 232 q 90 529 43 447 q 219 656 136 611 q 413 701 303 701 m 419 529 q 313 496 354 529 q 267 403 272 463 l 569 403 q 526 496 565 463 q 419 529 486 529 z "},"ѐ":{"ha":815,"x_min":43,"x_max":776,"o":"m 413 701 q 607 659 525 701 q 733 540 689 617 q 776 360 776 463 q 769 278 776 326 l 265 278 q 322 192 275 225 q 443 160 369 160 q 543 175 494 160 q 626 218 592 190 l 740 96 q 602 13 682 42 q 432 -17 522 -17 q 225 27 313 -17 q 90 151 138 71 q 43 342 43 232 q 90 529 43 447 q 219 656 136 611 q 413 701 303 701 m 419 529 q 313 496 354 529 q 267 403 272 463 l 569 403 q 526 496 565 463 q 419 529 486 529 m 339 767 l 193 972 l 428 972 l 521 767 l 339 767 z "},"ё":{"ha":815,"x_min":43,"x_max":776,"o":"m 413 701 q 607 659 525 701 q 733 540 689 617 q 776 360 776 463 q 769 278 776 326 l 265 278 q 322 192 275 225 q 443 160 369 160 q 543 175 494 160 q 626 218 592 190 l 740 96 q 602 13 682 42 q 432 -17 522 -17 q 225 27 313 -17 q 90 151 138 71 q 43 342 43 232 q 90 529 43 447 q 219 656 136 611 q 413 701 303 701 m 419 529 q 313 496 354 529 q 267 403 272 463 l 569 403 q 526 496 565 463 q 419 529 486 529 m 260 769 q 181 798 214 769 q 149 878 149 826 q 182 956 149 928 q 260 985 215 985 q 338 956 306 985 q 371 878 371 928 q 338 798 371 826 q 260 769 306 769 m 568 769 q 490 798 522 769 q 457 878 457 826 q 490 956 457 928 q 568 985 524 985 q 647 956 614 985 q 681 878 681 928 q 647 798 681 826 q 568 769 614 769 z "},"ж":{"ha":1103,"x_min":-12,"x_max":1115,"o":"m 1115 0 l 856 0 l 657 278 l 657 0 l 446 0 l 446 278 l 239 0 l -12 0 l 251 350 l 25 686 l 269 686 l 446 419 l 446 686 l 657 686 l 657 421 l 832 686 l 1074 686 l 850 360 l 1115 0 z "},"з":{"ha":686,"x_min":29,"x_max":640,"o":"m 531 358 q 611 291 582 335 q 640 192 640 247 q 557 34 640 92 q 331 -24 474 -24 q 160 3 240 -24 q 29 74 79 29 l 115 218 q 213 169 167 183 q 317 154 260 154 q 424 219 424 154 q 404 258 424 244 q 349 272 385 272 l 210 272 l 210 425 l 329 425 q 388 439 368 425 q 408 479 408 453 q 385 522 408 507 q 317 538 361 538 q 227 524 271 538 q 133 481 183 510 l 50 621 q 344 710 183 710 q 547 656 475 710 q 619 510 619 603 q 596 419 619 458 q 531 358 572 379 z "},"и":{"ha":851,"x_min":82,"x_max":769,"o":"m 581 686 l 769 686 l 769 0 l 551 0 l 551 217 l 554 349 l 272 0 l 82 0 l 82 686 l 299 686 l 299 468 l 296 336 l 581 686 z "},"й":{"ha":851,"x_min":82,"x_max":769,"o":"m 581 686 l 769 686 l 769 0 l 551 0 l 551 217 l 554 349 l 272 0 l 82 0 l 82 686 l 299 686 l 299 468 l 296 336 l 581 686 m 428 750 q 276 799 333 750 q 201 951 219 849 l 335 990 q 366 921 344 942 q 428 900 388 900 q 490 921 468 900 q 521 990 511 942 l 654 951 q 578 799 635 849 q 428 750 521 750 z "},"ѝ":{"ha":851,"x_min":82,"x_max":769,"o":"m 581 686 l 769 686 l 769 0 l 551 0 l 551 217 l 554 349 l 272 0 l 82 0 l 82 686 l 299 686 l 299 468 l 296 336 l 581 686 m 350 767 l 204 972 l 439 972 l 532 767 l 350 767 z "},"к":{"ha":765,"x_min":82,"x_max":778,"o":"m 778 0 l 508 0 l 299 269 l 299 0 l 82 0 l 82 686 l 299 686 l 299 428 l 489 686 l 738 686 l 493 361 l 778 0 z "},"ќ":{"ha":765,"x_min":82,"x_max":778,"o":"m 778 0 l 508 0 l 299 269 l 299 0 l 82 0 l 82 686 l 299 686 l 299 428 l 489 686 l 738 686 l 493 361 l 778 0 m 369 972 l 604 972 l 458 767 l 276 767 l 369 972 z "},"л":{"ha":851,"x_min":31,"x_max":769,"o":"m 769 686 l 769 0 l 553 0 l 553 499 l 379 499 l 368 353 q 326 157 358 232 q 230 42 293 82 q 63 -12 167 1 l 31 172 q 98 199 74 181 q 135 260 122 218 q 156 379 149 301 l 182 686 l 769 686 z "},"м":{"ha":1003,"x_min":82,"x_max":921,"o":"m 715 686 l 921 686 l 921 0 l 707 0 l 707 371 l 518 144 l 486 144 l 296 372 l 296 0 l 82 0 l 82 686 l 288 686 l 503 425 l 715 686 z "},"н":{"ha":853,"x_min":82,"x_max":771,"o":"m 553 686 l 771 686 l 771 0 l 553 0 l 553 258 l 300 258 l 300 0 l 82 0 l 82 686 l 300 686 l 300 446 l 553 446 l 553 686 z "},"о":{"ha":840,"x_min":43,"x_max":797,"o":"m 419 -15 q 220 30 306 -15 q 89 156 135 75 q 43 343 43 236 q 89 531 43 450 q 220 656 135 611 q 419 701 306 701 q 619 656 533 701 q 751 531 706 611 q 797 343 797 450 q 751 156 797 236 q 619 30 706 75 q 419 -15 533 -15 m 419 169 q 536 218 492 169 q 581 343 581 267 q 536 468 581 419 q 419 517 492 517 q 304 468 349 517 q 260 343 260 419 q 304 218 260 267 q 419 169 349 169 z "},"п":{"ha":853,"x_min":82,"x_max":771,"o":"m 82 686 l 771 686 l 771 0 l 553 0 l 553 499 l 300 499 l 300 0 l 82 0 l 82 686 z "},"р":{"ha":883,"x_min":82,"x_max":842,"o":"m 513 700 q 683 655 608 700 q 800 528 758 610 q 842 343 842 447 q 800 158 842 239 q 683 31 758 76 q 513 -14 608 -14 q 300 67 385 -14 l 300 -297 l 82 -297 l 82 686 l 271 686 l 285 606 q 513 700 371 700 m 461 169 q 579 217 533 169 q 625 343 625 265 q 579 469 625 421 q 461 517 533 517 q 344 468 389 517 q 299 343 299 419 q 344 218 299 267 q 461 169 389 169 z "},"с":{"ha":719,"x_min":43,"x_max":697,"o":"m 422 -15 q 222 28 307 -15 q 90 153 136 72 q 43 342 43 233 q 90 530 43 449 q 222 656 138 611 q 418 701 307 701 q 564 674 494 701 q 688 594 633 647 l 567 463 q 429 517 508 517 q 307 469 354 517 q 260 343 260 421 q 306 217 260 265 q 429 169 353 169 q 574 229 514 169 l 697 99 q 422 -15 582 -15 z "},"т":{"ha":697,"x_min":31,"x_max":667,"o":"m 667 686 l 667 499 l 457 499 l 457 0 l 240 0 l 240 499 l 31 499 l 31 686 l 667 686 z "},"у":{"ha":799,"x_min":3,"x_max":796,"o":"m 560 686 l 796 686 l 368 -297 l 136 -297 l 269 10 l 3 686 l 238 686 l 317 469 l 392 246 l 472 469 l 560 686 z "},"ў":{"ha":799,"x_min":3,"x_max":796,"o":"m 560 686 l 796 686 l 368 -297 l 136 -297 l 269 10 l 3 686 l 238 686 l 317 469 l 392 246 l 472 469 l 560 686 m 400 750 q 249 799 306 750 q 174 951 192 849 l 307 990 q 338 921 317 942 q 400 900 360 900 q 462 921 440 900 q 493 990 483 942 l 626 951 q 550 799 607 849 q 400 750 493 750 z "},"ф":{"ha":1076,"x_min":43,"x_max":1033,"o":"m 1033 343 q 986 156 1033 236 q 851 30 939 75 q 647 -17 764 -15 l 647 -306 l 431 -306 l 431 -17 q 225 29 313 -15 q 90 155 138 74 q 43 343 43 236 q 91 531 43 450 q 226 656 139 611 q 431 701 314 700 l 431 972 l 647 972 l 647 701 q 851 655 764 700 q 986 530 939 610 q 1033 343 1033 450 m 257 343 q 306 211 257 260 q 439 163 356 163 l 440 163 l 440 522 l 439 522 q 306 474 356 522 q 257 343 257 425 m 636 163 q 770 211 721 163 q 819 343 819 260 q 770 474 819 425 q 638 522 721 522 l 636 522 l 636 163 z "},"х":{"ha":763,"x_min":4,"x_max":758,"o":"m 528 349 l 758 0 l 508 0 l 449 99 l 381 214 l 313 99 l 250 0 l 4 0 l 235 349 l 22 686 l 268 686 l 332 582 l 382 488 l 435 582 l 499 686 l 739 686 l 528 349 z "},"ч":{"ha":793,"x_min":53,"x_max":711,"o":"m 711 686 l 711 0 l 500 0 l 500 226 q 324 179 422 179 q 125 256 197 179 q 53 468 53 332 l 53 686 l 263 686 l 263 492 q 292 386 263 421 q 381 351 321 351 q 469 384 438 351 q 500 476 500 417 l 500 686 l 711 686 z "},"ц":{"ha":892,"x_min":82,"x_max":872,"o":"m 771 188 l 872 188 l 872 -172 l 665 -172 l 665 0 l 82 0 l 82 686 l 300 686 l 300 188 l 553 188 l 553 686 l 771 686 l 771 188 z "},"ш":{"ha":1178,"x_min":82,"x_max":1096,"o":"m 883 686 l 1096 686 l 1096 0 l 82 0 l 82 686 l 293 686 l 293 188 l 486 188 l 486 686 l 692 686 l 692 188 l 883 188 l 883 686 z "},"щ":{"ha":1215,"x_min":82,"x_max":1196,"o":"m 1096 188 l 1196 188 l 1196 -172 l 989 -172 l 989 0 l 82 0 l 82 686 l 293 686 l 293 188 l 486 188 l 486 686 l 692 686 l 692 188 l 883 188 l 883 686 l 1096 686 l 1096 188 z "},"џ":{"ha":851,"x_min":82,"x_max":769,"o":"m 769 686 l 769 0 l 529 0 l 529 -172 l 322 -172 l 322 0 l 82 0 l 82 686 l 299 686 l 299 188 l 551 188 l 551 686 l 769 686 z "},"ь":{"ha":754,"x_min":82,"x_max":717,"o":"m 456 497 q 646 431 575 497 q 717 250 717 364 q 647 65 717 129 q 456 0 576 0 l 82 0 l 82 686 l 299 686 l 299 497 l 456 497 m 417 171 q 480 192 457 171 q 503 251 503 213 q 481 308 503 288 q 417 328 458 328 l 293 328 l 293 171 l 417 171 z "},"ъ":{"ha":888,"x_min":26,"x_max":850,"o":"m 589 497 q 779 431 708 497 q 850 250 850 364 q 780 65 850 129 q 589 0 710 0 l 215 0 l 215 501 l 26 501 l 26 686 l 432 686 l 432 497 l 589 497 m 550 171 q 613 192 590 171 q 636 251 636 213 q 614 308 636 288 q 550 328 592 328 l 426 328 l 426 171 l 550 171 z "},"ы":{"ha":1136,"x_min":82,"x_max":1054,"o":"m 456 497 q 646 431 575 497 q 717 250 717 364 q 647 65 717 129 q 456 0 576 0 l 82 0 l 82 686 l 299 686 l 299 497 l 456 497 m 417 171 q 480 192 457 171 q 503 251 503 213 q 481 308 503 288 q 417 328 458 328 l 293 328 l 293 171 l 417 171 m 836 686 l 1054 686 l 1054 0 l 836 0 l 836 686 z "},"љ":{"ha":1218,"x_min":31,"x_max":1181,"o":"m 919 497 q 1110 430 1039 497 q 1181 250 1181 363 q 1112 65 1181 131 q 919 0 1043 0 l 549 0 l 549 499 l 379 499 l 368 353 q 326 157 358 232 q 230 42 293 82 q 63 -12 167 1 l 31 172 q 98 199 74 181 q 135 260 122 218 q 156 379 149 301 l 182 686 l 760 686 l 760 497 l 919 497 m 875 171 q 940 191 917 171 q 963 250 963 211 q 940 306 963 286 q 875 326 917 326 l 756 326 l 756 171 l 875 171 z "},"њ":{"ha":1203,"x_min":82,"x_max":1165,"o":"m 904 489 q 1094 422 1024 489 q 1165 246 1165 356 q 1096 63 1165 126 q 904 0 1026 0 l 540 0 l 540 290 l 299 290 l 299 0 l 82 0 l 82 686 l 299 686 l 299 478 l 540 478 l 540 686 l 757 686 l 757 489 l 904 489 m 861 171 q 924 191 901 171 q 947 246 947 211 q 925 298 947 279 q 861 317 903 317 l 751 317 l 751 171 l 861 171 z "},"ѕ":{"ha":703,"x_min":32,"x_max":668,"o":"m 349 -18 q 32 74 167 -18 l 115 224 q 231 176 165 193 q 363 160 297 160 q 453 208 453 160 q 428 246 453 233 q 344 263 403 258 q 137 328 214 269 q 60 481 60 386 q 143 644 60 583 q 368 704 226 704 q 522 685 449 704 q 647 631 594 665 l 563 485 q 378 529 485 529 q 272 479 272 529 q 294 447 272 458 q 367 431 315 436 q 591 364 514 419 q 668 208 668 308 q 583 42 668 103 q 349 -18 499 -18 z "},"є":{"ha":721,"x_min":43,"x_max":700,"o":"m 700 99 q 418 -15 582 -15 q 220 28 306 -15 q 89 153 135 72 q 43 342 43 233 q 90 530 43 449 q 223 656 138 611 q 421 701 308 701 q 565 674 497 701 q 688 594 633 647 l 572 471 q 428 528 515 528 q 328 503 371 528 q 264 433 285 478 l 506 433 l 506 274 l 256 274 q 320 189 275 219 q 428 158 365 158 q 514 175 475 158 q 581 224 553 192 l 700 99 z "},"э":{"ha":721,"x_min":22,"x_max":678,"o":"m 300 701 q 498 656 413 701 q 631 530 583 611 q 678 342 678 449 q 632 153 678 233 q 501 28 586 72 q 303 -15 415 -15 q 22 99 140 -15 l 135 221 q 293 158 201 158 q 401 189 356 158 q 465 274 446 219 l 217 274 l 217 433 l 457 433 q 393 503 436 478 q 293 528 350 528 q 147 474 208 528 l 35 594 q 156 674 89 647 q 300 701 224 701 z "},"і":{"ha":382,"x_min":64,"x_max":319,"o":"m 192 754 q 99 788 135 754 q 64 872 64 821 q 100 958 64 925 q 192 992 136 992 q 283 958 247 992 q 319 872 319 925 q 284 788 319 821 q 192 754 249 754 m 82 686 l 300 686 l 300 0 l 82 0 l 82 686 z "},"ї":{"ha":382,"x_min":-62,"x_max":443,"o":"m 82 686 l 300 686 l 300 0 l 82 0 l 82 686 m 44 769 q -31 799 1 769 q -62 878 -62 828 q -31 956 -62 926 q 44 985 1 985 q 120 956 89 985 q 151 878 151 926 q 120 799 151 828 q 44 769 89 769 m 336 769 q 260 799 292 769 q 229 878 229 828 q 260 956 229 926 q 336 985 292 985 q 412 956 381 985 q 443 878 443 926 q 412 799 443 828 q 336 769 381 769 z "},"ј":{"ha":385,"x_min":-104,"x_max":322,"o":"m 193 754 q 101 788 138 754 q 65 872 65 821 q 101 958 65 924 q 193 992 138 992 q 286 958 250 992 q 322 872 322 924 q 286 788 322 821 q 193 754 250 754 m 61 -329 q -104 -285 -19 -329 l -56 -128 q 15 -147 -17 -147 q 67 -123 50 -147 q 83 -47 83 -99 l 83 686 l 301 686 l 301 -47 q 238 -256 301 -182 q 61 -329 175 -329 z "},"ћ":{"ha":858,"x_min":3,"x_max":785,"o":"m 504 701 q 708 622 631 701 q 785 376 785 542 l 785 0 l 567 0 l 567 375 q 531 481 567 444 q 442 517 496 517 q 340 474 381 517 q 300 360 300 432 l 300 0 l 82 0 l 82 767 l 3 767 l 3 894 l 82 894 l 82 972 l 300 972 l 300 894 l 457 894 l 457 767 l 300 767 l 300 619 q 504 701 378 701 z "},"ю":{"ha":1172,"x_min":82,"x_max":1131,"o":"m 760 701 q 956 656 872 701 q 1085 531 1040 611 q 1131 343 1131 450 q 1085 156 1131 236 q 956 30 1040 75 q 761 -15 872 -15 q 526 59 621 -15 q 408 260 432 133 l 299 260 l 299 0 l 82 0 l 82 686 l 299 686 l 299 442 l 411 442 q 533 631 439 561 q 760 701 626 701 m 761 169 q 872 218 831 169 q 914 343 914 267 q 872 468 914 419 q 761 517 831 517 q 650 467 693 517 q 607 343 607 418 q 650 219 607 268 q 761 169 693 169 z "},"я":{"ha":779,"x_min":28,"x_max":697,"o":"m 697 686 l 697 0 l 481 0 l 481 197 l 399 197 l 263 0 l 28 0 l 193 228 q 96 313 131 258 q 61 440 61 368 q 135 619 61 553 q 328 686 210 686 l 697 686 m 360 510 q 297 488 318 510 q 276 436 276 467 q 298 383 276 404 q 360 363 319 363 l 485 363 l 485 510 l 360 510 z "},"ђ":{"ha":858,"x_min":3,"x_max":785,"o":"m 504 701 q 708 622 631 701 q 785 376 785 542 l 785 -35 q 720 -241 785 -169 q 543 -312 656 -312 q 378 -268 463 -312 l 429 -112 q 496 -132 465 -132 q 550 -107 533 -132 q 567 -32 567 -82 l 567 375 q 531 481 567 444 q 442 517 496 517 q 340 474 381 517 q 300 360 300 432 l 300 0 l 82 0 l 82 767 l 3 767 l 3 894 l 82 894 l 82 972 l 300 972 l 300 894 l 457 894 l 457 767 l 300 767 l 300 619 q 504 701 378 701 z "},"ӕ":{"ha":1360,"x_min":43,"x_max":1322,"o":"m 1000 700 q 1170 658 1097 700 q 1283 540 1243 617 q 1322 364 1322 464 q 1314 274 1322 322 l 821 274 q 879 192 832 222 q 999 163 926 163 q 1099 178 1051 163 q 1178 221 1146 193 l 1293 97 q 1161 15 1238 44 q 1001 -14 1085 -14 q 775 74 856 -14 l 765 0 l 593 0 l 586 75 q 368 -14 500 -14 q 200 31 274 -14 q 85 158 126 76 q 43 343 43 239 q 85 528 43 447 q 200 655 126 610 q 368 700 274 700 q 589 610 503 700 l 597 686 l 765 686 l 775 613 q 1000 700 860 700 m 975 536 q 871 504 911 536 q 821 417 831 472 l 1124 417 q 1081 503 1122 469 q 975 536 1040 536 m 419 169 q 535 218 490 169 q 579 343 579 267 q 535 468 579 419 q 419 517 490 517 q 304 468 349 517 q 260 343 260 419 q 304 218 260 267 q 419 169 349 169 z "},"μ":{"ha":861,"x_min":82,"x_max":779,"o":"m 779 686 l 779 0 l 599 0 l 582 74 q 404 -12 506 -12 q 300 13 349 -12 l 300 -297 l 82 -297 l 82 686 l 300 686 l 300 306 q 333 208 300 244 q 422 172 367 172 q 522 215 483 172 q 561 326 561 258 l 561 686 l 779 686 z "},"π":{"ha":965,"x_min":26,"x_max":919,"o":"m 782 506 l 782 217 q 846 149 782 149 q 870 151 856 149 q 892 156 885 154 l 910 0 q 790 -17 843 -17 q 629 38 690 -17 q 568 204 568 93 l 568 506 l 382 506 l 382 0 l 163 0 l 163 506 l 26 506 l 26 686 l 919 686 l 919 506 l 782 506 z "},"₀":{"ha":560,"x_min":49,"x_max":511,"o":"m 281 -121 q 163 -92 215 -121 q 79 -12 110 -64 q 49 106 49 39 l 49 185 q 79 303 49 251 q 163 383 110 354 q 281 411 215 411 q 397 383 344 411 q 481 303 450 354 q 511 185 511 251 l 511 106 q 481 -12 511 39 q 397 -92 450 -64 q 281 -121 344 -121 m 279 7 q 349 35 321 7 q 378 107 378 63 l 378 183 q 349 257 378 229 q 279 285 321 285 q 210 257 238 285 q 183 183 183 229 l 183 107 q 211 35 183 63 q 279 7 239 7 z "},"₁":{"ha":400,"x_min":42,"x_max":357,"o":"m 269 7 l 357 7 l 357 -111 l 42 -111 l 42 7 l 133 7 l 133 261 l 61 243 l 61 360 l 256 408 l 269 408 l 269 7 z "},"₂":{"ha":519,"x_min":50,"x_max":471,"o":"m 190 15 l 465 15 l 465 -111 l 50 -111 l 50 21 q 97 142 50 101 q 233 193 144 182 q 308 210 285 199 q 332 246 332 222 q 313 281 332 268 q 261 293 293 293 q 210 281 231 293 q 186 246 189 268 l 53 246 q 111 365 53 318 q 258 411 169 411 q 414 367 357 411 q 471 243 471 322 q 426 133 471 169 q 300 88 382 96 q 216 67 242 81 q 190 21 190 53 l 190 15 z "},"₃":{"ha":525,"x_min":40,"x_max":481,"o":"m 410 153 q 461 109 442 139 q 481 42 481 79 q 421 -77 481 -33 q 260 -121 361 -121 q 103 -73 165 -121 q 40 47 40 -25 l 186 47 q 263 1 190 1 q 320 15 299 1 q 342 51 342 28 q 264 101 342 101 l 181 101 l 181 206 l 260 206 q 336 250 336 206 q 315 286 336 272 q 258 300 294 300 q 203 286 226 300 q 176 250 181 272 l 50 250 q 110 366 51 321 q 258 411 168 411 q 408 366 349 411 q 468 251 468 321 q 410 153 468 185 z "},"₄":{"ha":546,"x_min":31,"x_max":496,"o":"m 496 94 l 496 -24 l 436 -24 l 436 -111 l 300 -111 l 300 -24 l 36 -24 l 31 92 l 263 401 l 436 401 l 436 94 l 496 94 m 175 94 l 300 94 l 300 261 l 175 94 z "},"₅":{"ha":521,"x_min":56,"x_max":481,"o":"m 267 225 q 425 182 369 225 q 481 53 481 139 q 423 -74 481 -28 q 272 -121 365 -121 q 115 -76 174 -121 q 56 53 56 -31 l 192 53 q 215 14 194 28 q 267 0 236 0 q 322 15 301 0 q 342 54 342 29 q 322 96 342 81 q 267 111 303 111 l 63 111 l 63 401 l 444 401 l 444 282 l 192 282 l 192 225 l 267 225 z "},"₆":{"ha":532,"x_min":57,"x_max":488,"o":"m 293 221 q 433 174 378 221 q 488 53 488 126 q 427 -72 488 -24 q 271 -121 367 -121 q 117 -72 178 -121 q 57 53 57 -24 l 57 244 q 115 365 57 318 q 267 411 174 411 q 415 368 357 411 q 475 254 472 325 l 344 254 q 271 299 340 299 q 213 285 233 299 q 193 244 193 271 l 193 197 q 293 221 238 221 m 271 -4 q 328 11 307 -4 q 349 53 349 26 q 328 94 349 79 q 271 108 307 108 q 214 94 235 108 q 193 53 193 79 q 214 11 193 26 q 271 -4 235 -4 z "},"₇":{"ha":451,"x_min":38,"x_max":435,"o":"m 428 401 l 435 343 l 219 -111 l 67 -111 l 256 276 l 38 276 l 38 401 l 428 401 z "},"₈":{"ha":543,"x_min":46,"x_max":499,"o":"m 426 161 q 479 110 460 143 q 499 38 499 78 q 437 -78 499 -35 q 272 -121 375 -121 q 107 -78 168 -121 q 46 38 46 -35 q 65 111 46 78 q 117 161 85 144 q 76 203 90 176 q 61 261 61 229 q 119 370 61 329 q 272 411 178 411 q 424 370 367 411 q 482 261 482 329 q 467 203 482 229 q 426 161 453 176 m 272 307 q 217 293 238 307 q 197 256 197 279 q 217 219 197 232 q 272 206 238 206 q 326 219 307 206 q 346 256 346 232 q 326 293 346 279 q 272 307 307 307 m 272 -8 q 337 6 314 -8 q 360 47 360 21 q 337 88 360 74 q 272 103 314 103 q 207 88 231 103 q 183 47 183 74 q 207 6 183 21 q 272 -8 231 -8 z "},"₉":{"ha":532,"x_min":46,"x_max":476,"o":"m 263 411 q 417 363 357 411 q 476 240 476 315 l 476 47 q 417 -74 476 -28 q 263 -121 357 -121 q 109 -78 164 -121 q 51 42 54 -36 l 185 42 q 208 7 188 19 q 260 -6 228 -6 q 317 9 296 -6 q 339 50 339 24 l 339 96 q 240 72 294 72 q 100 119 154 72 q 46 240 46 167 q 106 364 46 317 q 263 411 165 411 m 263 186 q 319 200 299 186 q 340 240 340 214 q 319 279 340 265 q 263 293 299 293 q 206 279 226 293 q 185 240 185 265 q 206 200 185 214 q 263 186 226 186 z "},"⁰":{"ha":560,"x_min":49,"x_max":511,"o":"m 281 610 q 163 638 215 610 q 79 718 110 667 q 49 836 49 769 l 49 915 q 79 1033 49 982 q 163 1113 110 1085 q 281 1142 215 1142 q 397 1113 344 1142 q 481 1033 450 1085 q 511 915 511 982 l 511 836 q 481 718 511 769 q 397 638 450 667 q 281 610 344 610 m 279 738 q 349 765 321 738 q 378 838 378 793 l 378 914 q 349 988 378 960 q 279 1015 321 1015 q 210 988 238 1015 q 183 914 183 960 l 183 838 q 211 765 183 793 q 279 738 239 738 z "},"¹":{"ha":400,"x_min":42,"x_max":357,"o":"m 269 738 l 357 738 l 357 619 l 42 619 l 42 738 l 133 738 l 133 992 l 61 974 l 61 1090 l 256 1139 l 269 1139 l 269 738 z "},"²":{"ha":519,"x_min":50,"x_max":471,"o":"m 190 746 l 465 746 l 465 619 l 50 619 l 50 751 q 97 872 50 832 q 233 924 144 913 q 308 941 285 929 q 332 976 332 953 q 313 1011 332 999 q 261 1024 293 1024 q 210 1011 231 1024 q 186 976 189 999 l 53 976 q 111 1095 53 1049 q 258 1142 169 1142 q 414 1097 357 1142 q 471 974 471 1053 q 426 863 471 900 q 300 818 382 826 q 216 797 242 811 q 190 751 190 783 l 190 746 z "},"³":{"ha":525,"x_min":40,"x_max":481,"o":"m 410 883 q 461 840 442 869 q 481 772 481 810 q 421 653 481 697 q 260 610 361 610 q 103 658 165 610 q 40 778 40 706 l 186 778 q 263 732 190 732 q 320 745 299 732 q 342 782 342 758 q 264 832 342 832 l 181 832 l 181 936 l 260 936 q 336 981 336 936 q 315 1017 336 1003 q 258 1031 294 1031 q 203 1017 226 1031 q 176 981 181 1003 l 50 981 q 110 1097 51 1051 q 258 1142 168 1142 q 408 1097 349 1142 q 468 982 468 1051 q 410 883 468 915 z "},"⁴":{"ha":546,"x_min":31,"x_max":496,"o":"m 496 825 l 496 707 l 436 707 l 436 619 l 300 619 l 300 707 l 36 707 l 31 822 l 263 1132 l 436 1132 l 436 825 l 496 825 m 175 825 l 300 825 l 300 992 l 175 825 z "},"⁵":{"ha":521,"x_min":56,"x_max":481,"o":"m 267 956 q 425 913 369 956 q 481 783 481 869 q 423 656 481 703 q 272 610 365 610 q 115 655 174 610 q 56 783 56 700 l 192 783 q 215 744 194 758 q 267 731 236 731 q 322 745 301 731 q 342 785 342 760 q 322 826 342 811 q 267 842 303 842 l 63 842 l 63 1132 l 444 1132 l 444 1013 l 192 1013 l 192 956 l 267 956 z "},"⁶":{"ha":532,"x_min":57,"x_max":488,"o":"m 293 951 q 433 904 378 951 q 488 783 488 857 q 427 658 488 707 q 271 610 367 610 q 117 658 178 610 q 57 783 57 707 l 57 975 q 115 1095 57 1049 q 267 1142 174 1142 q 415 1099 357 1142 q 475 985 472 1056 l 344 985 q 271 1029 340 1029 q 213 1015 233 1029 q 193 975 193 1001 l 193 928 q 293 951 238 951 m 271 726 q 328 742 307 726 q 349 783 349 757 q 328 824 349 810 q 271 839 307 839 q 214 824 235 839 q 193 783 193 810 q 214 742 193 757 q 271 726 235 726 z "},"⁷":{"ha":451,"x_min":38,"x_max":435,"o":"m 428 1132 l 435 1074 l 219 619 l 67 619 l 256 1007 l 38 1007 l 38 1132 l 428 1132 z "},"⁸":{"ha":543,"x_min":46,"x_max":499,"o":"m 426 892 q 479 841 460 874 q 499 768 499 808 q 437 653 499 696 q 272 610 375 610 q 107 653 168 610 q 46 768 46 696 q 65 842 46 808 q 117 892 85 875 q 76 933 90 907 q 61 992 61 960 q 119 1101 61 1060 q 272 1142 178 1142 q 424 1101 367 1142 q 482 992 482 1060 q 467 933 482 960 q 426 892 453 907 m 272 1038 q 217 1024 238 1038 q 197 986 197 1010 q 217 949 197 963 q 272 936 238 936 q 326 949 307 936 q 346 986 346 963 q 326 1024 346 1010 q 272 1038 307 1038 m 272 722 q 337 737 314 722 q 360 778 360 751 q 337 819 360 804 q 272 833 314 833 q 207 819 231 833 q 183 778 183 804 q 207 737 183 751 q 272 722 231 722 z "},"⁹":{"ha":532,"x_min":46,"x_max":476,"o":"m 263 1142 q 417 1094 357 1142 q 476 971 476 1046 l 476 778 q 417 656 476 703 q 263 610 357 610 q 109 652 164 610 q 51 772 54 694 l 185 772 q 208 738 188 750 q 260 725 228 725 q 317 740 296 725 q 339 781 339 754 l 339 826 q 240 803 294 803 q 100 850 154 803 q 46 971 46 897 q 106 1094 46 1047 q 263 1142 165 1142 m 263 917 q 319 931 299 917 q 340 971 340 944 q 319 1010 340 996 q 263 1024 299 1024 q 206 1010 226 1024 q 185 971 185 996 q 206 931 185 944 q 263 917 226 917 z "},"⁄":{"ha":240,"x_min":-225,"x_max":465,"o":"m 311 972 l 465 972 l -72 0 l -225 0 l 311 972 z "},"½":{"ha":1203,"x_min":42,"x_max":1153,"o":"m 269 578 l 357 578 l 357 460 l 42 460 l 42 578 l 133 578 l 133 832 l 61 814 l 61 931 l 256 979 l 269 979 l 269 578 m 753 972 l 907 972 l 369 0 l 217 0 l 753 972 m 872 126 l 1147 126 l 1147 0 l 732 0 l 732 132 q 779 253 732 213 q 915 304 826 293 q 990 322 967 310 q 1014 357 1014 333 q 994 392 1014 379 q 943 404 975 404 q 892 392 913 404 q 868 357 871 379 l 735 357 q 793 476 735 429 q 940 522 851 522 q 1096 478 1039 522 q 1153 354 1153 433 q 1108 244 1153 281 q 982 199 1064 207 q 898 178 924 192 q 872 132 872 164 l 872 126 z "},"⅓":{"ha":1208,"x_min":42,"x_max":1163,"o":"m 269 578 l 357 578 l 357 460 l 42 460 l 42 578 l 133 578 l 133 832 l 61 814 l 61 931 l 256 979 l 269 979 l 269 578 m 753 972 l 907 972 l 369 0 l 217 0 l 753 972 m 1092 264 q 1143 220 1124 250 q 1163 153 1163 190 q 1103 34 1163 78 q 942 -10 1043 -10 q 785 38 847 -10 q 722 158 722 86 l 868 158 q 944 113 872 113 q 1002 126 981 113 q 1024 163 1024 139 q 946 213 1024 213 l 863 213 l 863 317 l 942 317 q 1018 361 1018 317 q 997 397 1018 383 q 940 411 976 411 q 885 397 908 411 q 858 361 863 383 l 732 361 q 792 477 733 432 q 940 522 850 522 q 1090 477 1031 522 q 1150 363 1150 432 q 1092 264 1150 296 z "},"⅔":{"ha":1286,"x_min":50,"x_max":1240,"o":"m 190 586 l 465 586 l 465 460 l 50 460 l 50 592 q 97 713 50 672 q 233 764 144 753 q 308 781 285 769 q 332 817 332 793 q 313 851 332 839 q 261 864 293 864 q 210 851 231 864 q 186 817 189 839 l 53 817 q 111 935 53 889 q 258 982 169 982 q 414 938 357 982 q 471 814 471 893 q 426 703 471 740 q 300 658 382 667 q 216 638 242 651 q 190 592 190 624 l 190 586 m 831 972 l 985 972 l 447 0 l 294 0 l 831 972 m 1169 264 q 1221 220 1201 250 q 1240 153 1240 190 q 1181 34 1240 78 q 1019 -10 1121 -10 q 863 38 925 -10 q 800 158 800 86 l 946 158 q 1022 113 950 113 q 1080 126 1058 113 q 1101 163 1101 139 q 1024 213 1101 213 l 940 213 l 940 317 l 1019 317 q 1096 361 1096 317 q 1075 397 1096 383 q 1018 411 1054 411 q 963 397 986 411 q 936 361 940 383 l 810 361 q 869 477 811 432 q 1018 522 928 522 q 1168 477 1108 522 q 1228 363 1228 432 q 1169 264 1228 296 z "},"¼":{"ha":1186,"x_min":42,"x_max":1136,"o":"m 269 578 l 357 578 l 357 460 l 42 460 l 42 578 l 133 578 l 133 832 l 61 814 l 61 931 l 256 979 l 269 979 l 269 578 m 753 972 l 907 972 l 369 0 l 217 0 l 753 972 m 1136 206 l 1136 88 l 1076 88 l 1076 0 l 940 0 l 940 88 l 676 88 l 671 203 l 903 513 l 1076 513 l 1076 206 l 1136 206 m 815 206 l 940 206 l 940 372 l 815 206 z "},"¾":{"ha":1269,"x_min":40,"x_max":1219,"o":"m 410 724 q 461 680 442 710 q 481 613 481 650 q 421 494 481 538 q 260 450 361 450 q 103 498 165 450 q 40 618 40 546 l 186 618 q 263 572 190 572 q 320 585 299 572 q 342 622 342 599 q 264 672 342 672 l 181 672 l 181 776 l 260 776 q 336 821 336 776 q 315 857 336 843 q 258 871 294 871 q 203 857 226 871 q 176 821 181 843 l 50 821 q 110 937 51 892 q 258 982 168 982 q 408 937 349 982 q 468 822 468 892 q 410 724 468 756 m 836 972 l 990 972 l 453 0 l 300 0 l 836 972 m 1219 206 l 1219 88 l 1160 88 l 1160 0 l 1024 0 l 1024 88 l 760 88 l 754 203 l 986 513 l 1160 513 l 1160 206 l 1219 206 m 899 206 l 1024 206 l 1024 372 l 899 206 z "},"⅕":{"ha":1203,"x_min":42,"x_max":1163,"o":"m 269 578 l 357 578 l 357 460 l 42 460 l 42 578 l 133 578 l 133 832 l 61 814 l 61 931 l 256 979 l 269 979 l 269 578 m 753 972 l 907 972 l 369 0 l 217 0 l 753 972 m 949 336 q 1107 293 1051 336 q 1163 164 1163 250 q 1105 37 1163 83 q 954 -10 1047 -10 q 797 35 856 -10 q 738 164 738 81 l 874 164 q 897 125 876 139 q 949 111 918 111 q 1003 126 983 111 q 1024 165 1024 140 q 1004 207 1024 192 q 949 222 985 222 l 744 222 l 744 513 l 1126 513 l 1126 393 l 874 393 l 874 336 l 949 336 z "},"⅖":{"ha":1281,"x_min":50,"x_max":1240,"o":"m 190 586 l 465 586 l 465 460 l 50 460 l 50 592 q 97 713 50 672 q 233 764 144 753 q 308 781 285 769 q 332 817 332 793 q 313 851 332 839 q 261 864 293 864 q 210 851 231 864 q 186 817 189 839 l 53 817 q 111 935 53 889 q 258 982 169 982 q 414 938 357 982 q 471 814 471 893 q 426 703 471 740 q 300 658 382 667 q 216 638 242 651 q 190 592 190 624 l 190 586 m 831 972 l 985 972 l 447 0 l 294 0 l 831 972 m 1026 336 q 1185 293 1129 336 q 1240 164 1240 250 q 1183 37 1240 83 q 1032 -10 1125 -10 q 874 35 933 -10 q 815 164 815 81 l 951 164 q 975 125 954 139 q 1026 111 996 111 q 1081 126 1061 111 q 1101 165 1101 140 q 1082 207 1101 192 q 1026 222 1063 222 l 822 222 l 822 513 l 1204 513 l 1204 393 l 951 393 l 951 336 l 1026 336 z "},"⅗":{"ha":1286,"x_min":40,"x_max":1246,"o":"m 410 724 q 461 680 442 710 q 481 613 481 650 q 421 494 481 538 q 260 450 361 450 q 103 498 165 450 q 40 618 40 546 l 186 618 q 263 572 190 572 q 320 585 299 572 q 342 622 342 599 q 264 672 342 672 l 181 672 l 181 776 l 260 776 q 336 821 336 776 q 315 857 336 843 q 258 871 294 871 q 203 857 226 871 q 176 821 181 843 l 50 821 q 110 937 51 892 q 258 982 168 982 q 408 937 349 982 q 468 822 468 892 q 410 724 468 756 m 836 972 l 990 972 l 453 0 l 300 0 l 836 972 m 1032 336 q 1190 293 1135 336 q 1246 164 1246 250 q 1188 37 1246 83 q 1038 -10 1131 -10 q 880 35 939 -10 q 821 164 821 81 l 957 164 q 981 125 960 139 q 1032 111 1001 111 q 1087 126 1067 111 q 1107 165 1107 140 q 1088 207 1107 192 q 1032 222 1068 222 l 828 222 l 828 513 l 1210 513 l 1210 393 l 957 393 l 957 336 l 1032 336 z "},"⅘":{"ha":1307,"x_min":31,"x_max":1267,"o":"m 496 665 l 496 547 l 436 547 l 436 460 l 300 460 l 300 547 l 36 547 l 31 663 l 263 972 l 436 972 l 436 665 l 496 665 m 175 665 l 300 665 l 300 832 l 175 665 m 857 972 l 1011 972 l 474 0 l 321 0 l 857 972 m 1053 336 q 1211 293 1156 336 q 1267 164 1267 250 q 1209 37 1267 83 q 1058 -10 1151 -10 q 901 35 960 -10 q 842 164 842 81 l 978 164 q 1001 125 981 139 q 1053 111 1022 111 q 1108 126 1088 111 q 1128 165 1128 140 q 1108 207 1128 192 q 1053 222 1089 222 l 849 222 l 849 513 l 1231 513 l 1231 393 l 978 393 l 978 336 l 1053 336 z "},"⅙":{"ha":1215,"x_min":42,"x_max":1169,"o":"m 269 578 l 357 578 l 357 460 l 42 460 l 42 578 l 133 578 l 133 832 l 61 814 l 61 931 l 256 979 l 269 979 l 269 578 m 753 972 l 907 972 l 369 0 l 217 0 l 753 972 m 975 332 q 1115 285 1060 332 q 1169 164 1169 238 q 1109 39 1169 88 q 953 -10 1049 -10 q 799 39 860 -10 q 739 164 739 88 l 739 356 q 797 476 739 429 q 949 522 856 522 q 1097 479 1039 522 q 1157 365 1154 436 l 1026 365 q 953 410 1022 410 q 895 396 915 410 q 875 356 875 382 l 875 308 q 975 332 919 332 m 953 107 q 1010 122 989 107 q 1031 164 1031 138 q 1010 205 1031 190 q 953 219 989 219 q 896 205 917 219 q 875 164 875 190 q 896 122 875 138 q 953 107 917 107 z "},"⅚":{"ha":1294,"x_min":56,"x_max":1249,"o":"m 267 796 q 425 753 369 796 q 481 624 481 710 q 423 497 481 543 q 272 450 365 450 q 115 495 174 450 q 56 624 56 540 l 192 624 q 215 585 194 599 q 267 571 236 571 q 322 585 301 571 q 342 625 342 600 q 322 667 342 651 q 267 682 303 682 l 63 682 l 63 972 l 444 972 l 444 853 l 192 853 l 192 796 l 267 796 m 832 972 l 986 972 l 449 0 l 296 0 l 832 972 m 1054 332 q 1194 285 1139 332 q 1249 164 1249 238 q 1188 39 1249 88 q 1032 -10 1128 -10 q 878 39 939 -10 q 818 164 818 88 l 818 356 q 876 476 818 429 q 1028 522 935 522 q 1176 479 1118 522 q 1236 365 1233 436 l 1106 365 q 1032 410 1101 410 q 974 396 994 410 q 954 356 954 382 l 954 308 q 1054 332 999 332 m 1032 107 q 1089 122 1068 107 q 1110 164 1110 138 q 1089 205 1110 190 q 1032 219 1068 219 q 975 205 996 219 q 954 164 954 190 q 975 122 954 138 q 1032 107 996 107 z "},"⅐":{"ha":1133,"x_min":42,"x_max":1117,"o":"m 269 578 l 357 578 l 357 460 l 42 460 l 42 578 l 133 578 l 133 832 l 61 814 l 61 931 l 256 979 l 269 979 l 269 578 m 753 972 l 907 972 l 369 0 l 217 0 l 753 972 m 1110 513 l 1117 454 l 901 0 l 749 0 l 938 388 l 719 388 l 719 513 l 1110 513 z "},"⅛":{"ha":1225,"x_min":42,"x_max":1181,"o":"m 269 578 l 357 578 l 357 460 l 42 460 l 42 578 l 133 578 l 133 832 l 61 814 l 61 931 l 256 979 l 269 979 l 269 578 m 753 972 l 907 972 l 369 0 l 217 0 l 753 972 m 1108 272 q 1161 222 1142 254 q 1181 149 1181 189 q 1119 33 1181 76 q 954 -10 1057 -10 q 789 33 850 -10 q 728 149 728 76 q 747 222 728 189 q 799 272 767 256 q 758 314 772 288 q 743 372 743 340 q 801 481 743 440 q 954 522 860 522 q 1106 481 1049 522 q 1164 372 1164 440 q 1149 314 1164 340 q 1108 272 1135 288 m 954 418 q 899 404 919 418 q 879 367 879 390 q 899 330 879 343 q 954 317 919 317 q 1008 330 989 317 q 1028 367 1028 343 q 1008 404 1028 390 q 954 418 989 418 m 954 103 q 1019 117 996 103 q 1042 158 1042 132 q 1019 199 1042 185 q 954 214 996 214 q 889 199 913 214 q 865 158 865 185 q 889 117 865 132 q 954 103 913 103 z "},"⅜":{"ha":1308,"x_min":40,"x_max":1264,"o":"m 410 724 q 461 680 442 710 q 481 613 481 650 q 421 494 481 538 q 260 450 361 450 q 103 498 165 450 q 40 618 40 546 l 186 618 q 263 572 190 572 q 320 585 299 572 q 342 622 342 599 q 264 672 342 672 l 181 672 l 181 776 l 260 776 q 336 821 336 776 q 315 857 336 843 q 258 871 294 871 q 203 857 226 871 q 176 821 181 843 l 50 821 q 110 937 51 892 q 258 982 168 982 q 408 937 349 982 q 468 822 468 892 q 410 724 468 756 m 836 972 l 990 972 l 453 0 l 300 0 l 836 972 m 1192 272 q 1244 222 1225 254 q 1264 149 1264 189 q 1202 33 1264 76 q 1038 -10 1140 -10 q 872 33 933 -10 q 811 149 811 76 q 831 222 811 189 q 882 272 850 256 q 841 314 856 288 q 826 372 826 340 q 885 481 826 440 q 1038 522 943 522 q 1190 481 1132 522 q 1247 372 1247 440 q 1233 314 1247 340 q 1192 272 1218 288 m 1038 418 q 983 404 1003 418 q 963 367 963 390 q 983 330 963 343 q 1038 317 1003 317 q 1092 330 1072 317 q 1111 367 1111 343 q 1092 404 1111 390 q 1038 418 1072 418 m 1038 103 q 1102 117 1079 103 q 1125 158 1125 132 q 1102 199 1125 185 q 1038 214 1079 214 q 972 199 996 214 q 949 158 949 185 q 972 117 949 132 q 1038 103 996 103 z "},"⅝":{"ha":1304,"x_min":56,"x_max":1260,"o":"m 267 796 q 425 753 369 796 q 481 624 481 710 q 423 497 481 543 q 272 450 365 450 q 115 495 174 450 q 56 624 56 540 l 192 624 q 215 585 194 599 q 267 571 236 571 q 322 585 301 571 q 342 625 342 600 q 322 667 342 651 q 267 682 303 682 l 63 682 l 63 972 l 444 972 l 444 853 l 192 853 l 192 796 l 267 796 m 832 972 l 986 972 l 449 0 l 296 0 l 832 972 m 1188 272 q 1240 222 1221 254 q 1260 149 1260 189 q 1198 33 1260 76 q 1033 -10 1136 -10 q 868 33 929 -10 q 807 149 807 76 q 826 222 807 189 q 878 272 846 256 q 837 314 851 288 q 822 372 822 340 q 881 481 822 440 q 1033 522 939 522 q 1185 481 1128 522 q 1243 372 1243 440 q 1228 314 1243 340 q 1188 272 1214 288 m 1033 418 q 978 404 999 418 q 958 367 958 390 q 978 330 958 343 q 1033 317 999 317 q 1088 330 1068 317 q 1107 367 1107 343 q 1088 404 1107 390 q 1033 418 1068 418 m 1033 103 q 1098 117 1075 103 q 1121 158 1121 132 q 1098 199 1121 185 q 1033 214 1075 214 q 968 199 992 214 q 944 158 944 185 q 968 117 944 132 q 1033 103 992 103 z "},"⅞":{"ha":1200,"x_min":38,"x_max":1156,"o":"m 428 972 l 435 914 l 219 460 l 67 460 l 256 847 l 38 847 l 38 972 l 428 972 m 728 972 l 882 972 l 344 0 l 192 0 l 728 972 m 1083 272 q 1136 222 1117 254 q 1156 149 1156 189 q 1094 33 1156 76 q 929 -10 1032 -10 q 764 33 825 -10 q 703 149 703 76 q 722 222 703 189 q 774 272 742 256 q 733 314 747 288 q 718 372 718 340 q 776 481 718 440 q 929 522 835 522 q 1081 481 1024 522 q 1139 372 1139 440 q 1124 314 1139 340 q 1083 272 1110 288 m 929 418 q 874 404 894 418 q 854 367 854 390 q 874 330 854 343 q 929 317 894 317 q 983 330 964 317 q 1003 367 1003 343 q 983 404 1003 390 q 929 418 964 418 m 929 103 q 994 117 971 103 q 1017 158 1017 132 q 994 199 1017 185 q 929 214 971 214 q 864 199 888 214 q 840 158 840 185 q 864 117 840 132 q 929 103 888 103 z "},"⅑":{"ha":1215,"x_min":42,"x_max":1158,"o":"m 269 578 l 357 578 l 357 460 l 42 460 l 42 578 l 133 578 l 133 832 l 61 814 l 61 931 l 256 979 l 269 979 l 269 578 m 753 972 l 907 972 l 369 0 l 217 0 l 753 972 m 944 522 q 1099 474 1039 522 q 1158 351 1158 426 l 1158 158 q 1099 37 1158 83 q 944 -10 1039 -10 q 791 33 846 -10 q 733 153 736 75 l 867 153 q 890 118 869 131 q 942 106 910 106 q 999 120 978 106 q 1021 161 1021 135 l 1021 207 q 922 183 976 183 q 782 231 836 183 q 728 351 728 278 q 788 475 728 428 q 944 522 847 522 m 944 297 q 1001 311 981 297 q 1022 351 1022 325 q 1001 390 1022 376 q 944 404 981 404 q 888 390 908 404 q 867 351 867 376 q 888 311 867 325 q 944 297 908 297 z "},".":{"ha":371,"x_min":60,"x_max":311,"o":"m 186 -14 q 95 19 131 -14 q 60 104 60 53 q 95 189 60 156 q 186 222 131 222 q 276 189 240 222 q 311 104 311 156 q 276 19 311 53 q 186 -14 240 -14 z "},",":{"ha":372,"x_min":61,"x_max":311,"o":"m 186 222 q 276 188 242 222 q 311 99 311 154 q 292 -1 311 53 q 218 -169 272 -54 l 100 -169 l 139 -3 q 82 35 103 7 q 61 104 61 64 q 96 190 61 157 q 186 222 131 222 z "},":":{"ha":371,"x_min":60,"x_max":311,"o":"m 186 -14 q 95 19 131 -14 q 60 104 60 53 q 95 189 60 156 q 186 222 131 222 q 276 189 240 222 q 311 104 311 156 q 276 19 311 53 q 186 -14 240 -14 m 186 375 q 95 408 131 375 q 60 493 60 442 q 95 578 60 544 q 186 611 131 611 q 276 578 240 611 q 311 493 311 544 q 276 408 311 442 q 186 375 240 375 z "},";":{"ha":372,"x_min":61,"x_max":313,"o":"m 186 222 q 276 188 242 222 q 311 99 311 154 q 292 -1 311 53 q 218 -169 272 -54 l 100 -169 l 139 -3 q 82 35 103 7 q 61 104 61 64 q 96 190 61 157 q 186 222 131 222 m 188 375 q 97 408 132 375 q 61 493 61 442 q 97 578 61 544 q 188 611 132 611 q 277 578 242 611 q 313 493 313 544 q 277 408 313 442 q 188 375 242 375 z "},"…":{"ha":1071,"x_min":60,"x_max":1010,"o":"m 186 -14 q 95 19 131 -14 q 60 104 60 53 q 95 189 60 156 q 186 222 131 222 q 276 189 240 222 q 311 104 311 156 q 276 19 311 53 q 186 -14 240 -14 m 536 -14 q 445 19 481 -14 q 410 104 410 53 q 445 189 410 156 q 536 222 481 222 q 626 189 590 222 q 661 104 661 156 q 626 19 661 53 q 536 -14 590 -14 m 885 -14 q 794 19 829 -14 q 758 104 758 53 q 794 189 758 156 q 885 222 829 222 q 974 189 939 222 q 1010 104 1010 156 q 974 19 1010 53 q 885 -14 939 -14 z "},"!":{"ha":425,"x_min":88,"x_max":338,"o":"m 94 972 l 331 972 l 313 300 l 113 300 l 94 972 m 213 -14 q 123 19 158 -14 q 88 104 88 53 q 123 189 88 156 q 213 222 158 222 q 302 189 267 222 q 338 104 338 156 q 302 19 338 53 q 213 -14 267 -14 z "},"¡":{"ha":397,"x_min":75,"x_max":325,"o":"m 200 708 q 290 675 254 708 q 325 590 325 642 q 290 506 325 539 q 200 472 254 472 q 110 505 144 472 q 75 590 75 538 q 110 675 75 642 q 200 708 144 708 m 99 394 l 300 394 l 318 -278 l 81 -278 l 99 394 z "},"?":{"ha":833,"x_min":40,"x_max":786,"o":"m 281 353 q 317 497 281 443 q 435 575 354 550 q 526 623 496 596 q 556 686 556 650 q 518 760 556 733 q 415 788 481 788 q 309 755 349 788 q 269 667 269 722 l 46 667 q 85 829 40 757 q 215 942 129 901 q 410 982 300 982 q 610 946 525 982 q 740 842 694 910 q 786 683 786 775 q 740 543 786 600 q 599 450 693 486 q 525 404 547 431 q 503 335 503 378 l 503 300 l 281 300 l 281 353 m 392 -14 q 302 19 338 -14 q 267 104 267 53 q 302 189 267 156 q 392 222 338 222 q 482 190 447 222 q 517 104 517 157 q 481 19 517 53 q 392 -14 446 -14 z "},"¿":{"ha":828,"x_min":46,"x_max":792,"o":"m 440 713 q 531 679 496 713 q 567 594 567 646 q 531 508 567 542 q 440 475 496 475 q 351 509 386 475 q 315 594 315 543 q 351 679 315 646 q 440 713 386 713 m 553 346 q 516 202 553 256 q 399 122 479 149 q 307 76 336 103 q 278 13 278 49 q 315 -62 278 -35 q 418 -89 353 -89 q 524 -56 485 -89 q 564 32 564 -24 l 786 32 q 747 -131 792 -58 q 618 -243 703 -203 q 424 -283 533 -283 q 223 -247 308 -283 q 92 -144 138 -211 q 46 15 46 -76 q 92 156 46 99 q 235 247 139 213 q 308 294 286 267 q 331 364 331 321 l 331 399 l 553 399 l 553 346 z "},"·":{"ha":382,"x_min":65,"x_max":317,"o":"m 192 285 q 101 318 136 285 q 65 403 65 351 q 101 488 65 454 q 192 521 136 521 q 281 488 246 521 q 317 403 317 454 q 281 318 317 351 q 192 285 246 285 z "},"•":{"ha":589,"x_min":97,"x_max":492,"o":"m 294 246 q 153 297 208 246 q 97 431 97 349 q 153 564 97 513 q 294 615 208 615 q 436 564 381 615 q 492 431 492 513 q 436 297 492 349 q 294 246 381 246 z "},"*":{"ha":586,"x_min":57,"x_max":529,"o":"m 529 751 l 401 728 l 492 635 l 363 543 l 293 657 l 225 543 l 92 635 l 181 726 l 57 751 l 103 900 l 222 851 l 214 972 l 375 972 l 357 849 l 486 900 l 529 751 z "},"‽":{"ha":833,"x_min":-11,"x_max":768,"o":"m 392 982 q 597 944 511 982 q 725 842 682 907 q 768 696 768 778 q 724 546 768 610 q 593 444 681 482 q 514 396 539 421 q 489 332 489 371 l 489 300 l 306 300 l 296 692 l 483 692 l 481 561 q 510 582 493 572 q 553 623 540 600 q 565 681 565 646 q 520 764 565 732 q 392 796 475 796 q 257 762 307 796 q 206 667 207 728 l -11 667 q 99 899 -7 817 q 392 982 206 982 m 401 222 q 491 189 456 222 q 526 104 526 156 q 491 19 526 53 q 401 -14 456 -14 q 312 19 347 -14 q 276 104 276 53 q 312 189 276 156 q 401 222 347 222 z "},"#":{"ha":1000,"x_min":50,"x_max":949,"o":"m 949 592 l 813 592 l 756 363 l 856 363 l 856 186 l 713 186 l 667 0 l 458 0 l 504 186 l 357 186 l 311 0 l 104 0 l 150 186 l 50 186 l 50 363 l 193 363 l 249 592 l 143 592 l 143 768 l 292 768 l 342 972 l 549 972 l 499 768 l 649 768 l 699 972 l 906 972 l 856 768 l 949 768 l 949 592 m 551 360 l 608 594 l 453 594 l 396 360 l 551 360 z "},"/":{"ha":721,"x_min":33,"x_max":688,"o":"m 481 1050 l 688 1050 l 240 -110 l 33 -110 l 481 1050 z "},"\\":{"ha":721,"x_min":33,"x_max":688,"o":"m 688 -110 l 482 -110 l 33 1050 l 240 1050 l 688 -110 z "},"(":{"ha":506,"x_min":44,"x_max":482,"o":"m 363 -211 q 128 73 211 -97 q 44 442 44 243 q 128 810 44 640 q 363 1094 211 981 l 482 960 q 311 735 374 874 q 249 442 249 596 q 311 149 249 288 q 482 -78 374 10 l 363 -211 z "},")":{"ha":506,"x_min":24,"x_max":461,"o":"m 24 -78 q 195 148 133 10 q 257 442 257 286 q 194 735 257 596 q 24 960 132 874 l 144 1094 q 378 810 296 981 q 461 442 461 640 q 378 73 461 243 q 144 -211 296 -97 l 24 -78 z "},"{":{"ha":518,"x_min":40,"x_max":481,"o":"m 343 571 q 319 458 343 501 q 240 390 294 414 q 319 322 294 367 q 343 208 343 278 l 343 39 q 362 -25 343 -6 q 424 -44 381 -44 q 481 -42 456 -44 l 481 -201 q 360 -214 426 -214 q 132 13 132 -214 l 132 225 q 40 313 132 313 l 40 468 q 132 556 132 468 l 132 768 q 360 994 132 994 q 481 982 415 994 l 481 821 q 424 825 446 825 q 362 806 381 825 q 343 742 343 786 l 343 571 z "},"}":{"ha":518,"x_min":38,"x_max":478,"o":"m 386 556 q 478 468 386 468 l 478 313 q 386 225 386 313 l 386 13 q 158 -214 386 -214 q 38 -201 92 -214 l 38 -42 q 94 -44 63 -44 q 156 -25 138 -44 q 175 39 175 -6 l 175 208 q 199 322 175 278 q 278 390 224 367 q 199 458 224 414 q 175 571 175 501 l 175 742 q 156 806 175 786 q 94 825 138 825 q 38 821 72 825 l 38 982 q 158 994 103 994 q 386 768 386 994 l 386 556 z "},"[":{"ha":503,"x_min":97,"x_max":454,"o":"m 97 979 l 454 979 l 454 800 l 300 800 l 300 -44 l 454 -44 l 454 -222 l 97 -222 l 97 979 z "},"]":{"ha":503,"x_min":49,"x_max":406,"o":"m 406 -222 l 49 -222 l 49 -44 l 203 -44 l 203 800 l 49 800 l 49 979 l 406 979 l 406 -222 z "},"-":{"ha":701,"x_min":81,"x_max":621,"o":"m 81 492 l 621 492 l 621 313 l 81 313 l 81 492 z "},"­":{"ha":701,"x_min":81,"x_max":621,"o":"m 81 492 l 621 492 l 621 313 l 81 313 l 81 492 z "},"–":{"ha":842,"x_min":79,"x_max":761,"o":"m 761 492 l 761 313 l 79 313 l 79 492 l 761 492 z "},"—":{"ha":965,"x_min":79,"x_max":886,"o":"m 886 492 l 886 313 l 79 313 l 79 492 l 886 492 z "},"_":{"ha":749,"x_min":38,"x_max":711,"o":"m 38 -11 l 711 -11 l 711 -189 l 38 -189 l 38 -11 z "},"‚":{"ha":372,"x_min":61,"x_max":311,"o":"m 186 222 q 276 188 242 222 q 311 99 311 154 q 292 -1 311 53 q 218 -169 272 -54 l 100 -169 l 139 -3 q 82 35 103 7 q 61 104 61 64 q 96 190 61 157 q 186 222 131 222 z "},"„":{"ha":631,"x_min":61,"x_max":571,"o":"m 174 200 q 256 169 225 200 q 288 89 288 139 q 270 1 288 47 q 203 -153 253 -46 l 96 -153 l 131 -4 q 80 33 99 7 q 61 93 61 58 q 93 170 61 140 q 174 200 125 200 m 458 200 q 540 169 508 200 q 571 89 571 139 q 553 -1 571 47 q 486 -153 535 -50 l 381 -153 l 415 -4 q 365 33 383 7 q 346 93 346 58 q 377 170 346 140 q 458 200 408 200 z "},"“":{"ha":633,"x_min":85,"x_max":560,"o":"m 231 835 q 278 801 261 825 q 296 744 296 778 q 266 673 296 701 q 190 644 236 644 q 114 673 143 644 q 85 749 85 701 q 101 832 85 788 q 164 974 118 876 l 263 974 l 231 835 m 496 835 q 542 801 525 825 q 560 744 560 778 q 531 672 560 700 q 456 644 501 644 q 379 673 408 644 q 350 749 350 701 q 366 831 350 788 q 428 974 382 875 l 528 974 l 496 835 z "},"”":{"ha":667,"x_min":86,"x_max":596,"o":"m 199 982 q 281 951 250 982 q 313 871 313 921 q 295 783 313 829 q 228 629 278 736 l 121 629 l 156 778 q 105 815 124 789 q 86 875 86 840 q 118 952 86 922 q 199 982 150 982 m 483 982 q 565 951 533 982 q 596 871 596 921 q 578 781 596 829 q 511 629 560 732 l 406 629 l 440 778 q 390 815 408 789 q 371 875 371 840 q 402 952 371 922 q 483 982 433 982 z "},"‘":{"ha":389,"x_min":89,"x_max":314,"o":"m 244 824 q 295 787 276 813 q 314 726 314 761 q 283 649 314 679 q 201 619 251 619 q 120 651 151 619 q 89 732 89 682 q 107 822 89 774 q 174 972 125 869 l 279 972 l 244 824 z "},"’":{"ha":382,"x_min":88,"x_max":313,"o":"m 200 982 q 281 951 250 982 q 313 869 313 919 q 294 780 313 828 q 228 629 276 732 l 122 629 l 157 778 q 106 815 125 789 q 88 875 88 840 q 119 952 88 922 q 200 982 150 982 z "},"«":{"ha":821,"x_min":44,"x_max":772,"o":"m 464 719 l 269 408 l 464 97 l 239 97 l 44 408 l 239 719 l 464 719 m 772 719 l 578 408 l 772 97 l 547 97 l 353 408 l 547 719 l 772 719 z "},"»":{"ha":821,"x_min":49,"x_max":776,"o":"m 274 719 l 468 408 l 274 97 l 49 97 l 243 408 l 49 719 l 274 719 m 582 719 l 776 408 l 582 97 l 357 97 l 551 408 l 357 719 l 582 719 z "},"‹":{"ha":518,"x_min":44,"x_max":471,"o":"m 471 719 l 272 408 l 471 97 l 239 97 l 44 408 l 239 719 l 471 719 z "},"›":{"ha":519,"x_min":49,"x_max":474,"o":"m 281 719 l 474 408 l 281 97 l 49 97 l 246 408 l 49 719 l 281 719 z "},"\"":{"ha":622,"x_min":86,"x_max":538,"o":"m 86 972 l 269 972 l 269 597 l 86 597 l 86 972 m 354 972 l 538 972 l 538 597 l 354 597 l 354 972 z "},"'":{"ha":354,"x_min":86,"x_max":269,"o":"m 86 972 l 269 972 l 269 597 l 86 597 l 86 972 z "}," ":{"ha":325,"x_min":0,"x_max":0,"o":""}," ":{"ha":243,"x_min":0,"x_max":0,"o":""},"​":{"ha":0,"x_min":0,"x_max":0,"o":""},"¢":{"ha":719,"x_min":43,"x_max":697,"o":"m 697 99 q 496 -8 610 13 l 496 -131 l 318 -131 l 318 -6 q 116 113 189 22 q 43 342 43 204 q 117 570 43 478 q 318 690 192 663 l 318 814 l 496 814 l 496 694 q 688 594 604 674 l 567 463 q 429 517 508 517 q 307 469 354 517 q 260 343 260 421 q 306 217 260 265 q 429 169 353 169 q 574 229 514 169 l 697 99 z "},"¤":{"ha":868,"x_min":72,"x_max":796,"o":"m 153 299 q 125 431 125 358 q 154 565 125 501 l 72 647 l 221 794 l 313 703 q 433 725 368 725 q 556 703 497 725 l 647 794 l 796 647 l 717 568 q 746 431 746 506 q 717 297 746 364 l 794 221 l 647 74 l 557 163 q 433 142 497 142 q 313 161 368 142 l 224 72 l 75 221 l 153 299 m 433 308 q 524 342 490 308 q 558 432 558 375 q 524 524 558 490 q 433 558 490 558 q 344 524 378 558 q 311 432 311 489 q 345 342 311 376 q 433 308 379 308 z "},"$":{"ha":915,"x_min":44,"x_max":875,"o":"m 875 286 q 790 88 875 168 q 563 -15 706 7 l 563 -149 l 374 -149 l 374 -17 q 194 28 279 -6 q 44 115 110 63 l 163 281 q 464 179 292 179 q 601 208 550 179 q 651 288 651 238 q 604 361 651 335 q 454 399 557 388 q 163 492 256 421 q 71 694 71 563 q 149 883 71 806 q 358 985 226 961 l 358 1122 l 547 1122 l 547 990 q 703 953 629 981 q 838 883 778 926 l 731 724 q 479 803 617 803 q 344 775 394 803 q 293 700 293 747 q 337 629 293 654 q 483 592 381 604 q 778 494 681 569 q 875 286 875 418 z "},"€":{"ha":881,"x_min":28,"x_max":829,"o":"m 829 13 q 644 -15 746 -15 q 334 65 456 -15 q 168 300 213 146 l 28 300 l 63 447 l 144 447 q 143 486 143 460 q 144 522 143 510 l 28 522 l 63 671 l 171 671 q 341 903 219 819 q 633 988 463 988 q 817 956 729 988 l 757 782 q 633 801 694 801 q 503 766 561 801 q 410 668 444 731 l 690 668 l 656 525 l 368 525 q 367 486 367 513 q 368 446 367 458 l 638 446 l 604 301 l 408 301 q 664 174 483 174 q 775 190 717 174 l 829 13 z "},"ƒ":{"ha":632,"x_min":-31,"x_max":683,"o":"m 428 685 l 614 685 l 614 511 l 428 511 l 428 -1 q 354 -209 428 -136 q 167 -282 281 -282 q 64 -266 115 -282 q -31 -221 13 -250 l 40 -75 q 78 -94 60 -89 q 121 -100 97 -100 q 185 -72 161 -100 q 208 7 208 -44 l 208 511 l 88 511 l 88 686 l 208 686 l 208 722 q 247 875 208 814 q 350 965 286 936 q 488 994 414 994 q 594 977 543 994 q 683 928 646 960 l 611 788 q 514 822 567 822 q 452 797 476 822 q 428 722 428 772 l 428 685 z "},"₴":{"ha":963,"x_min":19,"x_max":935,"o":"m 935 656 l 935 524 l 19 524 l 19 656 l 607 656 q 619 703 619 676 q 578 778 619 753 q 467 804 536 804 q 345 784 406 804 q 247 732 285 764 l 139 881 q 298 967 219 940 q 474 993 376 993 q 672 958 586 993 q 803 856 757 922 q 850 704 850 790 q 846 656 850 679 l 935 656 m 19 475 l 935 475 l 935 343 l 343 343 q 331 289 331 317 q 374 208 331 238 q 493 178 417 178 q 647 206 578 178 q 776 290 717 233 l 900 136 q 494 -22 736 -22 q 201 60 306 -22 q 97 283 97 142 q 104 343 97 313 l 19 343 l 19 475 z "},"₺":{"ha":853,"x_min":22,"x_max":842,"o":"m 842 403 l 842 329 q 756 88 842 175 q 524 0 669 0 l 149 0 l 149 317 l 22 269 l 22 438 l 149 485 l 149 575 l 22 528 l 22 696 l 149 743 l 149 972 l 378 972 l 378 828 l 633 922 l 633 754 l 378 660 l 378 568 l 633 663 l 633 494 l 378 400 l 378 214 l 479 214 q 582 244 549 214 q 615 344 615 275 l 615 403 l 842 403 z "},"₽":{"ha":917,"x_min":1,"x_max":889,"o":"m 344 328 l 344 257 l 544 257 l 544 108 l 344 108 l 344 0 l 107 0 l 107 108 l 1 108 l 1 257 l 107 257 l 107 328 l 1 328 l 1 508 l 107 508 l 107 972 l 531 972 q 720 933 639 972 q 845 819 801 893 q 889 647 889 746 q 792 414 889 500 q 531 328 696 328 l 344 328 m 342 508 l 515 508 q 617 543 581 508 q 654 639 654 578 q 617 735 654 700 q 515 769 581 769 l 342 769 l 342 508 z "},"£":{"ha":922,"x_min":72,"x_max":860,"o":"m 860 193 l 860 0 l 72 0 l 72 190 q 165 251 133 203 q 196 358 196 299 l 196 375 l 72 375 l 72 544 l 160 544 q 142 675 142 617 q 184 838 142 768 q 307 946 226 907 q 499 985 388 985 q 752 908 658 985 q 840 681 846 832 l 631 681 q 595 768 629 739 q 504 797 561 797 q 406 762 440 797 q 372 661 372 726 q 389 544 372 625 l 668 544 l 668 375 l 422 375 q 424 354 424 368 q 364 193 424 254 l 860 193 z "},"¥":{"ha":1071,"x_min":33,"x_max":1038,"o":"m 1038 972 l 731 514 l 861 514 l 861 365 l 642 365 l 642 303 l 861 303 l 861 154 l 642 154 l 642 0 l 415 0 l 415 154 l 196 154 l 196 303 l 415 303 l 415 365 l 196 365 l 196 514 l 329 514 l 33 972 l 299 972 l 531 594 l 767 972 l 1038 972 z "},"∙":{"ha":393,"x_min":67,"x_max":326,"o":"m 196 314 q 103 349 140 314 q 67 436 67 383 q 103 524 67 489 q 196 560 140 560 q 290 524 253 560 q 326 436 326 489 q 290 349 326 383 q 196 314 253 314 z "},"∕":{"ha":682,"x_min":-24,"x_max":704,"o":"m 510 972 l 704 972 l 171 0 l -24 0 l 510 972 z "},"+":{"ha":757,"x_min":81,"x_max":676,"o":"m 676 547 l 676 364 l 478 364 l 478 164 l 278 164 l 278 364 l 81 364 l 81 547 l 278 547 l 278 742 l 478 742 l 478 547 l 676 547 z "},"−":{"ha":728,"x_min":81,"x_max":647,"o":"m 81 547 l 647 547 l 647 363 l 81 363 l 81 547 z "},"×":{"ha":649,"x_min":65,"x_max":583,"o":"m 583 567 l 454 436 l 583 306 l 451 176 l 325 304 l 197 176 l 65 306 l 194 436 l 65 567 l 197 697 l 325 568 l 451 697 l 583 567 z "},"÷":{"ha":792,"x_min":81,"x_max":713,"o":"m 396 613 q 310 643 344 613 q 275 722 275 674 q 309 803 275 772 q 396 833 343 833 q 483 803 449 833 q 517 722 517 772 q 482 643 517 674 q 396 613 447 613 m 81 547 l 713 547 l 713 369 l 81 369 l 81 547 m 396 78 q 309 108 343 78 q 275 189 275 139 q 310 268 275 238 q 396 299 344 299 q 482 268 447 299 q 517 189 517 238 q 483 108 517 139 q 396 78 449 78 z "},"=":{"ha":761,"x_min":81,"x_max":681,"o":"m 81 668 l 681 668 l 681 489 l 81 489 l 81 668 m 81 372 l 681 372 l 681 193 l 81 193 l 81 372 z "},"≠":{"ha":788,"x_min":81,"x_max":707,"o":"m 707 489 l 497 489 l 433 372 l 707 372 l 707 193 l 335 193 l 260 57 l 150 118 l 192 193 l 81 193 l 81 372 l 290 372 l 354 489 l 81 489 l 81 668 l 453 668 l 528 804 l 636 743 l 594 668 l 707 668 l 707 489 z "},">":{"ha":590,"x_min":75,"x_max":518,"o":"m 213 775 l 518 469 l 518 396 l 213 89 l 75 224 l 290 431 l 75 640 l 213 775 z "},"<":{"ha":590,"x_min":72,"x_max":515,"o":"m 515 640 l 300 431 l 515 224 l 378 89 l 72 396 l 72 469 l 378 775 l 515 640 z "},"≥":{"ha":640,"x_min":75,"x_max":564,"o":"m 215 268 l 104 407 l 322 569 l 104 733 l 215 872 l 557 600 l 557 539 l 215 268 m 75 188 l 564 188 l 564 11 l 75 11 l 75 188 z "},"≤":{"ha":640,"x_min":78,"x_max":565,"o":"m 536 407 l 425 268 l 83 539 l 83 600 l 425 872 l 536 733 l 318 569 l 536 407 m 78 188 l 565 188 l 565 11 l 78 11 l 78 188 z "},"±":{"ha":764,"x_min":81,"x_max":685,"o":"m 279 275 l 279 457 l 85 457 l 85 647 l 279 647 l 279 842 l 485 842 l 485 647 l 679 647 l 679 457 l 485 457 l 485 275 l 279 275 m 81 190 l 685 190 l 685 11 l 81 11 l 81 190 z "},"≈":{"ha":747,"x_min":72,"x_max":676,"o":"m 481 446 q 421 455 449 446 q 358 481 393 464 q 312 500 331 493 q 275 507 293 507 q 186 451 218 507 l 72 518 q 156 620 104 583 q 268 657 207 657 q 325 648 299 657 q 389 622 351 639 q 438 602 419 608 q 474 596 456 596 q 564 653 531 596 l 676 585 q 593 483 644 519 q 481 446 542 446 m 481 182 q 421 191 449 182 q 358 217 393 200 q 312 236 331 229 q 275 243 293 243 q 186 186 218 243 l 72 254 q 156 356 104 319 q 268 393 207 393 q 325 384 299 393 q 389 358 351 375 q 438 338 419 344 q 474 332 456 332 q 564 388 529 332 l 676 319 q 593 218 644 254 q 481 182 542 182 z "},"~":{"ha":860,"x_min":72,"x_max":789,"o":"m 568 281 q 499 294 532 281 q 421 335 465 308 q 360 367 385 356 q 314 378 336 378 q 219 303 261 378 l 72 357 q 148 502 92 449 q 289 556 204 556 q 364 542 328 556 q 454 500 400 528 q 518 469 496 479 q 560 460 540 460 q 640 536 611 460 l 789 481 q 715 335 772 390 q 568 281 657 281 z "},"¬":{"ha":754,"x_min":81,"x_max":660,"o":"m 471 374 l 81 374 l 81 540 l 660 540 l 660 197 l 471 197 l 471 374 z "},"^":{"ha":879,"x_min":44,"x_max":836,"o":"m 836 475 l 611 475 l 438 740 l 265 475 l 44 475 l 372 972 l 504 972 l 836 475 z "},"∞":{"ha":1122,"x_min":68,"x_max":1054,"o":"m 821 672 q 989 608 924 672 q 1054 443 1054 544 q 989 276 1054 340 q 821 213 924 213 q 683 248 744 213 q 560 344 621 283 q 438 248 499 283 q 301 213 378 213 q 133 276 199 213 q 68 443 68 340 q 133 608 68 544 q 301 672 199 672 q 438 637 378 672 q 560 540 499 601 q 683 637 621 601 q 821 672 744 672 m 226 443 q 249 383 226 407 q 308 360 272 360 q 386 381 349 360 q 465 443 424 403 q 386 503 424 482 q 308 525 349 525 q 249 502 272 525 q 226 443 226 479 m 813 360 q 872 383 849 360 q 894 443 894 407 q 872 502 894 479 q 813 525 849 525 q 733 503 771 525 q 654 443 696 482 q 733 381 696 403 q 813 360 771 360 z "},"∅":{"ha":957,"x_min":43,"x_max":914,"o":"m 767 732 q 875 591 836 675 q 914 407 914 507 q 858 190 914 286 q 702 39 801 93 q 478 -15 603 -15 q 319 11 396 -15 l 271 -67 l 97 -67 l 190 83 q 82 224 121 140 q 43 407 43 307 q 99 624 43 528 q 253 775 154 721 q 478 829 353 829 q 638 803 567 829 l 685 881 l 860 881 l 767 732 m 478 650 q 353 619 408 650 q 267 532 299 588 q 236 407 236 476 q 294 243 236 310 l 539 643 q 478 650 507 650 m 478 164 q 603 195 547 164 q 690 282 658 226 q 721 407 721 338 q 663 569 721 504 l 418 171 q 478 164 449 164 z "},"∫":{"ha":704,"x_min":-4,"x_max":708,"o":"m 193 -282 q 89 -266 140 -282 q -4 -221 38 -250 l 65 -75 q 106 -94 88 -89 q 146 -100 124 -100 q 210 -72 188 -100 q 233 7 233 -43 l 233 794 q 310 993 233 919 q 513 1067 388 1067 q 620 1049 569 1067 q 708 1000 671 1032 l 636 861 q 540 894 594 894 q 476 869 500 894 q 453 794 453 843 l 453 -1 q 383 -206 453 -129 q 193 -282 313 -282 z "},"Ω":{"ha":1157,"x_min":69,"x_max":1089,"o":"m 1089 514 q 1051 332 1089 417 q 947 190 1014 247 l 1068 190 l 1068 0 l 660 0 l 660 188 q 813 303 757 221 q 868 496 868 385 q 831 651 868 583 q 728 758 794 719 q 579 796 663 796 q 430 757 496 796 q 327 650 364 718 q 290 496 290 582 q 345 303 290 385 q 497 188 400 221 l 497 0 l 90 0 l 90 190 l 211 190 q 108 333 146 247 q 69 514 69 418 q 133 765 69 656 q 313 934 197 874 q 579 994 429 994 q 845 934 729 994 q 1025 765 961 874 q 1089 514 1089 656 z "},"∆":{"ha":1083,"x_min":-10,"x_max":1094,"o":"m 661 972 l 1094 0 l -10 0 l 422 972 l 661 972 m 542 735 l 313 193 l 771 193 l 542 735 z "},"∏":{"ha":963,"x_min":106,"x_max":857,"o":"m 106 972 l 857 972 l 857 -254 l 629 -254 l 629 772 l 333 772 l 333 -254 l 106 -254 l 106 972 z "},"∑":{"ha":850,"x_min":60,"x_max":781,"o":"m 363 199 l 781 199 l 781 0 l 60 0 l 60 124 l 339 499 l 72 864 l 72 972 l 772 972 l 772 782 l 376 782 l 557 528 l 557 471 l 363 199 z "},"√":{"ha":878,"x_min":7,"x_max":865,"o":"m 713 1038 l 865 996 l 536 0 l 381 0 l 168 438 l 57 386 l 7 503 l 292 632 l 460 274 l 713 1038 z "},"∂":{"ha":814,"x_min":43,"x_max":768,"o":"m 228 969 q 509 868 386 951 q 700 651 632 785 q 768 354 768 517 q 724 158 768 242 q 599 30 681 75 q 406 -15 517 -15 q 215 27 297 -15 q 88 148 133 69 q 43 329 43 226 q 85 504 43 428 q 201 623 126 581 q 371 665 275 665 q 501 633 449 665 q 372 744 456 697 q 189 804 288 790 l 228 969 m 406 165 q 515 210 474 165 q 556 329 556 256 q 515 447 556 403 q 406 492 474 492 q 297 447 338 492 q 256 329 256 403 q 297 210 256 256 q 406 165 338 165 z "},"µ":{"ha":861,"x_min":82,"x_max":779,"o":"m 779 686 l 779 0 l 599 0 l 582 74 q 404 -12 506 -12 q 300 13 349 -12 l 300 -297 l 82 -297 l 82 686 l 300 686 l 300 306 q 333 208 300 244 q 422 172 367 172 q 522 215 483 172 q 561 326 561 258 l 561 686 l 779 686 z "},"%":{"ha":1186,"x_min":50,"x_max":1138,"o":"m 285 533 q 115 596 181 533 q 50 758 50 658 q 115 920 50 858 q 285 982 181 982 q 456 921 392 982 q 521 758 521 860 q 456 595 521 657 q 285 533 390 533 m 807 972 l 1013 972 l 379 0 l 174 0 l 807 972 m 285 681 q 341 702 319 681 q 363 758 363 724 q 341 815 363 793 q 285 836 319 836 q 229 815 250 836 q 208 758 208 793 q 229 702 208 724 q 285 681 250 681 m 901 -10 q 732 52 797 -10 q 667 214 667 114 q 732 376 667 314 q 901 439 797 439 q 1072 377 1007 439 q 1138 214 1138 315 q 1073 51 1138 113 q 901 -10 1008 -10 m 901 136 q 958 158 936 136 q 979 214 979 179 q 958 270 979 249 q 901 292 936 292 q 846 270 867 292 q 825 214 825 249 q 846 158 825 179 q 901 136 867 136 z "},"‰":{"ha":1739,"x_min":50,"x_max":1689,"o":"m 285 533 q 115 596 181 533 q 50 758 50 658 q 115 920 50 858 q 285 982 181 982 q 456 921 392 982 q 521 758 521 860 q 456 595 521 657 q 285 533 390 533 m 811 972 l 1017 972 l 383 0 l 178 0 l 811 972 m 285 681 q 341 702 319 681 q 363 758 363 724 q 341 815 363 793 q 285 836 319 836 q 229 815 250 836 q 208 758 208 793 q 229 702 208 724 q 285 681 250 681 m 911 -10 q 740 52 806 -10 q 675 214 675 114 q 740 376 675 314 q 911 439 806 439 q 1081 377 1017 439 q 1146 214 1146 315 q 1081 51 1146 113 q 911 -10 1017 -10 m 1454 -10 q 1284 52 1350 -10 q 1218 214 1218 114 q 1284 376 1218 314 q 1454 439 1350 439 q 1624 377 1560 439 q 1689 214 1689 315 q 1624 51 1689 113 q 1454 -10 1560 -10 m 911 136 q 967 158 946 136 q 988 214 988 179 q 967 270 988 249 q 911 292 946 292 q 855 270 876 292 q 833 214 833 249 q 855 158 833 179 q 911 136 876 136 m 1454 136 q 1510 158 1489 136 q 1531 214 1531 179 q 1510 270 1531 249 q 1454 292 1489 292 q 1398 270 1419 292 q 1376 214 1376 249 q 1398 158 1376 179 q 1454 136 1419 136 z "},"↑":{"ha":750,"x_min":42,"x_max":708,"o":"m 708 544 l 601 436 l 458 579 l 458 119 l 292 119 l 292 579 l 149 436 l 42 544 l 375 878 l 708 544 z "},"↗":{"ha":722,"x_min":47,"x_max":643,"o":"m 172 760 l 643 761 l 643 289 l 490 288 l 490 490 l 165 165 l 47 282 l 374 608 l 171 608 l 172 760 z "},"→":{"ha":883,"x_min":81,"x_max":839,"o":"m 506 819 l 839 486 l 506 153 l 397 260 l 540 403 l 81 403 l 81 569 l 540 569 l 397 713 l 506 819 z "},"↘":{"ha":721,"x_min":47,"x_max":643,"o":"m 490 710 l 643 708 l 643 236 l 172 238 l 171 389 l 374 389 l 47 715 l 165 832 l 490 507 l 490 710 z "},"↓":{"ha":750,"x_min":42,"x_max":708,"o":"m 601 560 l 708 451 l 375 118 l 42 451 l 149 560 l 292 417 l 292 878 l 458 878 l 458 417 l 601 560 z "},"↙":{"ha":722,"x_min":79,"x_max":675,"o":"m 675 714 l 350 389 l 551 389 l 550 236 l 79 236 l 79 708 l 231 708 l 231 506 l 557 832 l 675 714 z "},"←":{"ha":883,"x_min":44,"x_max":804,"o":"m 804 569 l 804 403 l 343 403 l 486 260 l 378 153 l 44 486 l 378 819 l 486 713 l 343 569 l 804 569 z "},"↖":{"ha":721,"x_min":78,"x_max":674,"o":"m 674 282 l 556 164 l 231 489 l 231 288 l 78 289 l 78 760 l 550 760 l 550 608 l 347 608 l 674 282 z "},"◊":{"ha":869,"x_min":44,"x_max":825,"o":"m 531 972 l 825 486 l 531 0 l 338 0 l 44 486 l 338 972 l 531 972 m 435 211 l 600 486 l 435 761 l 268 486 l 435 211 z "},"":{"ha":1611,"x_min":69,"x_max":1542,"o":"m 69 625 l 69 683 l 115 683 l 115 708 q 136 768 115 746 q 197 790 157 790 l 250 790 l 250 732 l 210 732 q 182 706 182 732 l 182 683 l 250 683 l 250 625 l 185 625 l 185 425 l 113 425 l 113 625 l 69 625 m 1465 640 q 1414 661 1435 640 q 1393 714 1393 682 q 1414 767 1393 746 q 1465 788 1435 788 q 1518 767 1497 788 q 1539 714 1539 746 q 1518 662 1539 683 q 1465 640 1497 640 m 1465 657 q 1507 674 1490 657 q 1524 714 1524 690 q 1506 754 1524 738 q 1465 771 1488 771 q 1425 754 1442 771 q 1408 714 1408 738 q 1425 674 1408 690 q 1465 657 1442 657 m 1021 425 q 952 451 978 425 q 926 519 926 476 l 926 629 l 881 629 l 881 644 l 985 754 l 996 754 l 996 686 l 1069 686 l 1069 629 l 1000 629 l 1000 528 q 1039 489 1000 489 l 1069 489 l 1069 425 l 1021 425 m 1469 751 q 1490 744 1482 751 q 1499 726 1499 738 q 1494 713 1499 719 q 1482 706 1489 707 l 1501 676 l 1482 676 l 1465 703 l 1457 703 l 1457 676 l 1438 676 l 1438 751 l 1469 751 m 1469 717 q 1479 726 1479 717 q 1469 736 1479 736 l 1457 736 l 1457 717 l 1469 717 m 411 418 q 309 457 350 418 q 268 556 268 496 q 309 656 268 615 q 411 696 350 696 q 511 656 471 696 q 551 556 551 615 q 511 457 551 496 q 411 418 471 418 m 651 686 l 664 656 q 750 693 699 693 q 821 663 794 693 q 847 583 847 633 l 847 425 l 776 425 l 776 574 q 731 632 776 632 q 689 613 704 632 q 674 561 674 593 l 674 425 l 603 425 l 603 686 l 651 686 m 411 485 q 460 504 440 485 q 481 556 481 524 q 460 608 481 588 q 411 629 440 629 q 360 608 379 629 q 340 556 340 588 q 360 504 340 524 q 411 485 379 485 m 69 201 l 69 260 l 115 260 l 115 285 q 136 344 115 322 q 197 367 157 367 l 250 367 l 250 308 l 210 308 q 182 281 182 308 l 182 260 l 250 260 l 250 201 l 185 201 l 185 0 l 113 0 l 113 201 l 69 201 m 1149 364 l 1219 364 l 1219 300 l 1149 300 l 1149 364 m 761 -6 q 679 22 718 -6 l 674 0 l 618 0 l 618 357 l 692 357 l 692 247 q 761 272 721 272 q 860 232 821 272 q 899 132 899 192 q 860 33 899 72 q 761 -6 821 -6 m 404 -6 q 306 33 344 -6 q 268 132 268 72 q 307 232 268 192 q 404 272 346 272 q 490 239 457 272 l 500 263 l 551 263 l 551 0 l 496 0 l 490 25 q 404 -6 456 -6 m 1408 -6 q 1308 35 1349 -6 q 1268 132 1268 75 q 1308 232 1268 192 q 1408 272 1349 272 q 1496 242 1458 272 q 1542 163 1533 211 l 1472 163 q 1408 204 1454 204 q 1359 184 1378 204 q 1340 132 1340 164 q 1360 81 1340 101 q 1408 61 1381 61 q 1446 72 1429 61 q 1472 104 1463 83 l 1542 104 q 1496 25 1533 56 q 1408 -6 1458 -6 m 996 263 l 1008 232 q 1085 265 1036 265 l 1106 265 l 1106 199 l 1075 199 q 1033 184 1046 199 q 1021 138 1021 169 l 1021 0 l 950 0 l 950 263 l 996 263 m 1149 263 l 1219 263 l 1219 0 l 1149 0 l 1149 263 m 411 61 q 464 81 443 61 q 485 132 485 101 q 464 184 485 164 q 411 204 443 204 q 360 184 381 204 q 340 132 340 164 q 360 81 340 101 q 411 61 381 61 m 756 61 q 808 81 788 61 q 829 132 829 101 q 808 184 829 164 q 756 204 788 204 q 705 184 725 204 q 685 132 685 164 q 705 81 685 101 q 756 61 725 61 z "},"@":{"ha":1276,"x_min":56,"x_max":1251,"o":"m 663 879 q 961 814 826 879 q 1174 631 1096 749 q 1251 358 1251 513 q 1213 168 1251 247 q 1111 49 1174 89 q 976 8 1049 8 q 813 100 864 8 q 732 37 779 57 q 614 17 685 17 q 474 54 536 17 q 378 158 413 92 q 344 307 344 225 q 379 460 344 393 q 476 565 414 528 q 622 603 539 603 q 793 536 731 603 l 804 582 l 939 582 l 939 275 q 951 199 939 224 q 992 175 963 175 q 1051 218 1028 175 q 1075 351 1075 261 q 963 620 1075 526 q 663 714 850 714 q 443 663 539 714 q 294 519 347 611 q 240 308 240 426 q 290 100 240 190 q 431 -40 340 10 q 639 -89 521 -89 q 817 -53 740 -89 l 874 -203 q 626 -257 771 -257 q 334 -185 464 -257 q 130 16 204 -112 q 56 310 56 144 q 133 603 56 474 q 349 806 211 733 q 663 879 488 879 m 649 179 q 735 214 701 179 q 769 307 769 249 q 740 403 769 368 q 656 439 710 439 q 569 406 601 439 q 536 314 536 374 q 565 215 536 250 q 649 179 594 179 z "},"&":{"ha":967,"x_min":67,"x_max":954,"o":"m 844 -15 l 721 97 q 403 -18 593 -18 q 223 15 299 -18 q 107 106 147 47 q 67 238 67 164 q 265 514 67 400 q 181 624 206 574 q 156 733 156 674 q 194 865 156 806 q 301 958 232 924 q 461 992 371 992 q 602 960 540 992 q 699 874 664 929 q 733 750 733 818 q 686 608 733 676 q 547 483 639 540 l 694 350 q 743 499 725 410 l 914 451 q 835 225 892 319 l 954 117 l 844 -15 m 450 826 q 374 801 401 826 q 347 738 347 775 q 364 671 347 703 q 428 592 381 639 q 517 668 490 633 q 543 740 543 703 q 518 802 543 778 q 450 826 493 826 m 414 156 q 590 215 518 156 l 386 401 q 278 261 278 346 q 315 185 278 215 q 414 156 351 156 z "},"¶":{"ha":1211,"x_min":44,"x_max":1165,"o":"m 1165 769 l 1029 769 l 1029 -281 l 810 -281 l 810 769 l 603 769 l 603 -281 l 383 -281 l 383 263 q 206 313 283 265 q 87 439 129 360 q 44 617 44 518 q 92 796 44 714 q 224 925 139 878 q 419 972 310 972 l 1165 972 l 1165 769 z "},"§":{"ha":868,"x_min":58,"x_max":800,"o":"m 711 356 q 776 286 753 328 q 800 197 800 244 q 754 82 800 132 q 626 4 708 32 q 436 -24 543 -24 q 224 8 322 -24 q 58 100 125 40 l 161 244 q 291 174 225 197 q 432 151 357 151 q 582 208 582 151 q 436 263 582 263 q 177 319 271 265 q 83 467 83 374 q 112 558 83 518 q 188 615 140 599 q 116 678 142 638 q 90 771 90 718 q 185 936 90 876 q 447 996 281 996 q 629 967 544 996 q 767 889 714 939 l 650 767 q 454 825 582 825 q 308 769 308 825 q 341 730 308 742 q 446 718 374 718 q 706 660 614 715 q 799 508 799 606 q 775 419 799 460 q 711 356 751 378 m 442 426 q 551 444 513 426 q 590 493 590 461 q 551 543 590 525 q 442 561 513 561 q 331 543 369 561 q 292 493 292 525 q 331 444 292 461 q 442 426 371 426 z "},"©":{"ha":1138,"x_min":58,"x_max":1078,"o":"m 569 -21 q 303 42 419 -21 q 123 221 188 106 q 58 486 58 336 q 123 751 58 636 q 303 930 188 867 q 569 993 419 993 q 835 930 719 993 q 1014 751 950 867 q 1078 486 1078 636 q 1014 221 1078 336 q 835 42 950 106 q 569 -21 719 -21 m 569 107 q 763 154 679 107 q 893 287 847 201 q 939 486 939 372 q 893 685 939 600 q 763 818 847 771 q 569 865 679 865 q 376 818 460 865 q 245 685 292 771 q 199 486 199 599 q 245 288 199 374 q 376 154 292 201 q 569 107 460 107 m 599 222 q 392 294 468 222 q 315 486 315 365 q 351 625 315 564 q 449 719 386 686 q 596 753 513 753 q 702 732 651 753 q 793 671 753 711 l 700 572 q 603 614 658 614 q 512 578 547 614 q 476 486 476 543 q 512 396 476 431 q 601 361 547 361 q 706 406 661 361 l 801 308 q 599 222 711 222 z "},"®":{"ha":453,"x_min":22,"x_max":431,"o":"m 226 996 q 374 940 318 996 q 431 793 431 885 q 374 647 431 703 q 226 590 317 590 q 79 647 136 590 q 22 793 22 703 q 78 940 22 885 q 226 996 135 996 m 226 649 q 329 688 290 649 q 368 793 368 728 q 329 900 368 860 q 226 940 290 940 q 124 900 163 940 q 86 793 86 860 q 124 688 86 728 q 226 649 163 649 m 321 824 q 310 787 321 803 q 281 763 300 771 l 324 696 l 254 696 l 224 754 l 208 754 l 208 696 l 147 696 l 147 893 l 240 893 q 299 874 276 893 q 321 824 321 856 m 260 822 q 236 840 260 840 l 207 840 l 207 801 l 236 801 q 253 807 247 801 q 260 822 260 813 z "},"℗":{"ha":1138,"x_min":58,"x_max":1078,"o":"m 569 993 q 835 930 719 993 q 1014 751 950 867 q 1078 486 1078 636 q 1014 221 1078 336 q 835 42 950 106 q 569 -21 719 -21 q 303 42 419 -21 q 123 221 188 106 q 58 486 58 336 q 123 751 58 636 q 303 930 188 867 q 569 993 419 993 m 569 107 q 763 154 679 107 q 893 287 847 201 q 939 486 939 372 q 893 685 939 600 q 763 818 847 771 q 569 865 679 865 q 376 818 460 865 q 245 685 292 771 q 199 486 199 599 q 245 288 199 374 q 376 154 292 201 q 569 107 460 107 m 632 725 q 767 674 714 725 q 821 544 821 624 q 767 416 821 467 q 632 365 714 365 l 524 365 l 524 224 l 390 224 l 390 725 l 632 725 m 624 479 q 670 497 653 479 q 688 542 688 514 q 670 587 688 569 q 624 604 653 604 l 524 604 l 524 479 l 624 479 z "},"™":{"ha":1160,"x_min":85,"x_max":1061,"o":"m 85 842 l 85 972 l 492 972 l 492 842 l 363 842 l 363 556 l 214 556 l 214 842 l 85 842 m 918 972 l 1061 972 l 1061 556 l 915 556 l 915 654 l 919 769 l 826 644 l 792 644 l 701 768 l 706 654 l 706 556 l 558 556 l 558 972 l 701 972 l 810 822 l 918 972 z "},"°":{"ha":518,"x_min":53,"x_max":464,"o":"m 258 603 q 110 656 168 603 q 53 793 53 710 q 110 929 53 876 q 258 982 168 982 q 406 929 349 982 q 464 793 464 876 q 406 656 464 710 q 258 603 349 603 m 258 726 q 308 745 289 726 q 328 793 328 764 q 308 840 328 821 q 258 860 289 860 q 208 840 228 860 q 189 793 189 821 q 208 745 189 764 q 258 726 228 726 z "},"′":{"ha":335,"x_min":53,"x_max":300,"o":"m 82 972 l 300 972 l 226 622 l 53 622 l 82 972 z "},"″":{"ha":632,"x_min":53,"x_max":597,"o":"m 379 972 l 597 972 l 524 622 l 350 622 l 379 972 m 82 972 l 300 972 l 226 622 l 53 622 l 82 972 z "},"|":{"ha":426,"x_min":106,"x_max":321,"o":"m 106 1036 l 321 1036 l 321 -107 l 106 -107 l 106 1036 z "},"¦":{"ha":426,"x_min":106,"x_max":321,"o":"m 106 1036 l 321 1036 l 321 526 l 106 526 l 106 1036 m 106 417 l 321 417 l 321 -107 l 106 -107 l 106 417 z "},"†":{"ha":821,"x_min":46,"x_max":775,"o":"m 775 718 l 775 528 l 518 528 l 518 -139 l 303 -139 l 303 528 l 46 528 l 46 718 l 303 718 l 303 972 l 518 972 l 518 718 l 775 718 z "},"ℓ":{"ha":718,"x_min":32,"x_max":653,"o":"m 447 175 q 578 201 513 175 l 632 36 q 417 -8 525 -8 q 206 55 278 -8 q 131 239 133 118 l 101 235 q 32 226 38 226 l 32 411 q 131 426 72 415 l 131 751 q 200 924 131 861 q 390 988 269 988 q 583 919 514 988 q 653 729 653 851 q 571 455 653 565 q 321 286 489 344 q 358 202 328 229 q 447 175 388 175 m 317 482 q 429 575 396 518 q 463 719 463 632 q 392 810 463 810 q 336 788 356 810 q 317 725 317 767 l 317 482 z "},"‡":{"ha":875,"x_min":69,"x_max":806,"o":"m 806 547 l 547 547 l 547 285 l 806 285 l 806 104 l 547 104 l 547 -153 l 328 -153 l 328 104 l 69 104 l 69 285 l 328 285 l 328 547 l 69 547 l 69 728 l 328 728 l 328 972 l 547 972 l 547 728 l 806 728 l 806 547 z "},"℮":{"ha":882,"x_min":81,"x_max":817,"o":"m 257 365 l 257 121 q 453 56 340 56 q 606 87 542 56 q 717 185 669 118 l 768 144 q 635 27 711 64 q 453 -10 558 -10 q 257 41 342 -10 q 126 185 172 92 q 81 401 81 278 q 126 619 81 525 q 256 763 172 713 q 451 814 340 814 q 724 713 631 814 q 817 419 817 613 q 815 365 817 383 l 257 365 m 650 692 q 451 749 576 749 q 257 683 335 749 l 257 431 l 650 431 l 650 692 z "},"№":{"ha":1574,"x_min":106,"x_max":1519,"o":"m 1300 579 q 1142 634 1203 579 q 1082 779 1082 689 q 1142 926 1082 869 q 1300 982 1203 982 q 1459 926 1399 982 q 1519 779 1519 869 q 1459 634 1519 689 q 1300 579 1399 579 m 747 628 l 747 972 l 982 972 l 982 0 l 785 0 l 338 576 l 342 339 l 342 0 l 106 0 l 106 972 l 303 972 l 750 392 l 747 628 m 1300 853 q 1247 833 1268 853 q 1226 779 1226 813 q 1247 727 1226 747 q 1300 707 1268 707 q 1354 727 1333 707 q 1375 779 1375 747 q 1355 833 1375 813 q 1300 853 1335 853 m 1101 385 l 1101 513 l 1500 513 l 1500 385 l 1101 385 z "},"̈":{"ha":0,"x_min":-614,"x_max":-82,"o":"m -503 769 q -581 798 -549 769 q -614 878 -614 826 q -581 956 -614 928 q -503 985 -547 985 q -424 956 -457 985 q -392 878 -392 928 q -424 798 -392 826 q -503 769 -457 769 m -194 769 q -273 798 -240 769 q -306 878 -306 826 q -272 956 -306 928 q -194 985 -239 985 q -115 956 -149 985 q -82 878 -82 928 q -115 798 -82 826 q -194 769 -149 769 z "},"̇":{"ha":0,"x_min":-311,"x_max":-76,"o":"m -193 769 q -278 800 -244 769 q -311 878 -311 831 q -278 956 -311 925 q -193 986 -244 986 q -109 956 -142 986 q -76 878 -76 925 q -109 800 -76 831 q -193 769 -142 769 z "},"̀":{"ha":0,"x_min":-572,"x_max":-244,"o":"m -426 767 l -572 972 l -337 972 l -244 767 l -426 767 z "},"́":{"ha":0,"x_min":-346,"x_max":-18,"o":"m -253 972 l -18 972 l -164 767 l -346 767 l -253 972 z "},"̋":{"ha":0,"x_min":-618,"x_max":-17,"o":"m -524 972 l -308 972 l -439 767 l -618 767 l -524 972 m -233 972 l -17 972 l -167 767 l -349 767 l -233 972 z "},"̂":{"ha":0,"x_min":-619,"x_max":-69,"o":"m -69 764 l -265 764 l -346 838 l -424 764 l -619 764 l -412 972 l -278 972 l -69 764 z "},"̌":{"ha":0,"x_min":-621,"x_max":-71,"o":"m -267 972 l -71 972 l -279 764 l -414 764 l -621 972 l -425 972 l -347 899 l -267 972 z "},"̆":{"ha":0,"x_min":-529,"x_max":-71,"o":"m -300 765 q -468 820 -407 765 q -529 972 -529 875 l -365 972 q -347 924 -365 942 q -300 906 -329 906 q -251 924 -269 906 q -233 972 -233 942 l -71 972 q -132 820 -71 875 q -300 765 -193 765 z "},"̊":{"ha":0,"x_min":-460,"x_max":-72,"o":"m -267 749 q -406 797 -351 749 q -460 919 -460 844 q -406 1044 -460 996 q -267 1092 -351 1092 q -126 1044 -181 1092 q -72 919 -72 996 q -126 797 -72 844 q -267 749 -181 749 m -267 864 q -224 879 -240 864 q -208 919 -208 894 q -224 960 -208 944 q -267 976 -240 976 q -309 960 -293 976 q -325 919 -325 944 q -309 880 -325 896 q -267 864 -293 864 z "},"̃":{"ha":0,"x_min":-586,"x_max":-92,"o":"m -243 772 q -344 801 -292 772 q -412 825 -387 825 q -474 779 -454 825 l -586 856 q -523 949 -565 915 q -428 982 -481 982 q -333 954 -381 982 q -264 931 -300 931 q -203 978 -222 931 l -92 906 q -151 806 -111 839 q -243 772 -190 772 z "},"̄":{"ha":0,"x_min":-519,"x_max":-103,"o":"m -519 943 l -103 943 l -103 786 l -519 786 l -519 943 z "},"̒":{"ha":0,"x_min":-325,"x_max":-75,"o":"m -151 957 q -95 917 -115 946 q -75 850 -75 889 q -110 764 -75 797 q -200 731 -144 731 q -291 765 -257 731 q -325 856 -325 800 q -306 954 -325 901 q -232 1122 -286 1007 l -114 1122 l -151 957 z "},"̦":{"ha":0,"x_min":-222,"x_max":-11,"o":"m -117 -72 q -40 -99 -69 -72 q -11 -168 -11 -126 q -25 -241 -11 -200 q -79 -371 -39 -282 l -185 -371 l -158 -243 q -206 -217 -189 -237 q -222 -165 -222 -197 q -192 -99 -222 -125 q -117 -72 -162 -72 z "},"̧":{"ha":0,"x_min":-465,"x_max":-90,"o":"m -226 -56 q -127 -97 -164 -60 q -90 -196 -90 -135 q -142 -302 -90 -261 q -279 -343 -194 -343 q -386 -324 -337 -343 q -465 -271 -435 -306 l -392 -186 q -292 -224 -347 -224 q -247 -212 -264 -224 q -231 -181 -231 -200 q -247 -147 -231 -160 q -293 -135 -264 -135 q -342 -146 -322 -135 l -383 -107 l -331 31 l -196 19 l -226 -56 z "},"̨":{"ha":0,"x_min":-346,"x_max":-24,"o":"m -197 -261 q -306 -228 -267 -261 q -346 -136 -346 -194 q -299 -20 -346 -74 q -172 64 -253 33 l -87 0 q -183 -86 -183 -43 q -172 -112 -183 -101 q -143 -122 -161 -122 q -113 -116 -129 -122 q -85 -100 -97 -110 l -24 -196 q -197 -261 -97 -261 z "},"´":{"ha":371,"x_min":75,"x_max":403,"o":"m 168 972 l 403 972 l 257 767 l 75 767 l 168 972 z "},"˘":{"ha":531,"x_min":40,"x_max":499,"o":"m 269 765 q 101 820 163 765 q 40 972 40 875 l 204 972 q 222 924 204 942 q 269 906 240 906 q 318 924 300 906 q 336 972 336 942 l 499 972 q 438 820 499 875 q 269 765 376 765 z "},"ˇ":{"ha":600,"x_min":26,"x_max":576,"o":"m 381 972 l 576 972 l 368 764 l 233 764 l 26 972 l 222 972 l 300 899 l 381 972 z "},"¸":{"ha":475,"x_min":57,"x_max":432,"o":"m 296 -56 q 395 -97 358 -60 q 432 -196 432 -135 q 380 -302 432 -261 q 243 -343 328 -343 q 136 -324 185 -343 q 57 -271 88 -306 l 131 -186 q 231 -224 175 -224 q 275 -212 258 -224 q 292 -181 292 -200 q 275 -147 292 -160 q 229 -135 258 -135 q 181 -146 200 -135 l 139 -107 l 192 31 l 326 19 l 296 -56 z "},"ˆ":{"ha":613,"x_min":18,"x_max":568,"o":"m 568 764 l 372 764 l 292 838 l 214 764 l 18 764 l 225 972 l 360 972 l 568 764 z "},"¨":{"ha":736,"x_min":69,"x_max":601,"o":"m 181 769 q 102 798 135 769 q 69 878 69 826 q 103 956 69 928 q 181 985 136 985 q 259 956 226 985 q 292 878 292 928 q 259 798 292 826 q 181 769 226 769 m 489 769 q 410 798 443 769 q 378 878 378 826 q 411 956 378 928 q 489 985 444 985 q 568 956 535 985 q 601 878 601 928 q 568 798 601 826 q 489 769 535 769 z "},"˙":{"ha":351,"x_min":51,"x_max":286,"o":"m 169 769 q 85 800 118 769 q 51 878 51 831 q 85 956 51 925 q 169 986 118 986 q 253 956 221 986 q 286 878 286 925 q 253 800 286 831 q 169 769 221 769 z "},"`":{"ha":376,"x_min":-161,"x_max":167,"o":"m -15 767 l -161 972 l 74 972 l 167 767 l -15 767 z "},"˝":{"ha":676,"x_min":94,"x_max":696,"o":"m 189 972 l 404 972 l 274 767 l 94 767 l 189 972 m 479 972 l 696 972 l 546 767 l 364 767 l 479 972 z "},"¯":{"ha":617,"x_min":93,"x_max":510,"o":"m 93 943 l 510 943 l 510 786 l 93 786 l 93 943 z "},"˛":{"ha":549,"x_min":174,"x_max":496,"o":"m 322 -261 q 213 -228 253 -261 q 174 -136 174 -194 q 220 -20 174 -74 q 347 64 267 33 l 432 0 q 336 -86 336 -43 q 347 -112 336 -101 q 376 -122 358 -122 q 406 -116 390 -122 q 435 -100 422 -110 l 496 -196 q 322 -261 422 -261 z "},"˚":{"ha":550,"x_min":69,"x_max":457,"o":"m 263 749 q 124 797 178 749 q 69 919 69 844 q 124 1044 69 996 q 263 1092 178 1092 q 403 1044 349 1092 q 457 919 457 996 q 403 797 457 844 q 263 749 349 749 m 263 864 q 305 879 289 864 q 321 919 321 894 q 305 960 321 944 q 263 976 289 976 q 220 960 236 976 q 204 919 204 944 q 220 880 204 896 q 263 864 236 864 z "},"˜":{"ha":621,"x_min":58,"x_max":553,"o":"m 401 772 q 300 801 353 772 q 232 825 257 825 q 171 779 190 825 l 58 856 q 122 949 79 915 q 217 982 164 982 q 311 954 264 982 q 381 931 344 931 q 442 978 422 931 l 553 906 q 494 806 533 839 q 401 772 454 772 z "},"\u0000":{"ha":833,"x_min":0,"x_max":0,"o":""}}}
